M48
; DRILL file {KiCad 8.0.5} date 2024-11-26T16:03:43+0700
; FORMAT={-:-/ absolute / metric / decimal}
; #@! TF.CreationDate,2024-11-26T16:03:43+07:00
; #@! TF.GenerationSoftware,Kicad,Pcbnew,8.0.5
; #@! TF.FileFunction,Plated,1,2,PTH
FMAT,2
METRIC
; #@! TA.AperFunction,Plated,PTH,ViaDrill
T1C0.200
; #@! TA.AperFunction,Plated,PTH,ViaDrill
T2C0.300
; #@! TA.AperFunction,Plated,PTH,ViaDrill
T3C0.400
; #@! TA.AperFunction,Plated,PTH,ComponentDrill
T4C0.500
; #@! TA.AperFunction,Plated,PTH,ComponentDrill
T5C0.800
; #@! TA.AperFunction,Plated,PTH,ComponentDrill
T6C0.900
; #@! TA.AperFunction,Plated,PTH,ComponentDrill
T7C0.950
; #@! TA.AperFunction,Plated,PTH,ComponentDrill
T8C1.000
; #@! TA.AperFunction,Plated,PTH,ComponentDrill
T9C1.170
; #@! TA.AperFunction,Plated,PTH,ComponentDrill
T10C1.500
%
G90
G05
T1
X136.42Y-110.26
X142.13Y-115.45
X143.845Y-108.6
X144.52Y-108.62
X144.61Y-91.47
X145.74Y-98.66
X145.75Y-103.795
X145.75Y-99.93
X145.75Y-102.97
X145.76Y-96.03
X145.76Y-104.67
X145.76Y-105.44
X146.98Y-94.33
X147.64Y-106.55
X148.52Y-91.17
X148.53Y-106.55
X150.01Y-106.53
X152.058Y-90.68
X152.852Y-91.2
X157.04Y-109.136
X158.01Y-92.47
X158.01Y-103.42
X158.012Y-95.67
X158.02Y-94.68
X158.02Y-104.37
X158.03Y-106.47
X158.11Y-107.83
X158.24Y-86.74
X160.482Y-94.171
X160.49Y-95.16
X161.46Y-106.88
X172.26Y-103.74
X178.93Y-102.067
T2
X139.66Y-77.193
X159.89Y-110.23
X175.3Y-93.78
X175.46Y-85.19
T3
X116.81Y-88.89
X116.83Y-86.02
X118.512Y-93.525
X118.67Y-83.92
X119.072Y-95.825
X120.49Y-78.51
X120.49Y-84.15
X120.51Y-80.8
X122.48Y-78.52
X122.882Y-95.825
X124.2Y-86.85
X124.6Y-78.52
X125.32Y-95.55
X125.59Y-86.85
X125.6Y-88.66
X125.63Y-90.51
X126.91Y-78.56
X129.91Y-78.55
X131.612Y-94.805
X148.42Y-80.8
X148.43Y-79.11
X150.2Y-79.09
X150.21Y-80.82
X157.05Y-80.79
X157.08Y-79.04
X159.64Y-79.07
X159.65Y-80.8
X163.06Y-110.99
X163.06Y-113.87
X163.07Y-116.64
X166.15Y-121.42
X166.92Y-116.63
X166.94Y-110.92
X166.94Y-113.87
X168.73Y-121.41
X168.76Y-123.73
X168.76Y-126.11
X168.78Y-130.58
X168.8Y-128.45
X170.25Y-116.63
X170.26Y-110.95
X170.28Y-113.88
X171.19Y-123.75
X171.24Y-128.57
X171.26Y-126.1
X171.27Y-130.6
X173.34Y-110.94
X173.37Y-113.93
X173.39Y-116.65
X173.82Y-130.56
X176.24Y-110.93
X176.29Y-113.86
X176.29Y-116.7
X177.09Y-121.38
X177.09Y-123.73
X178.87Y-117.59
X178.9Y-120.03
X178.9Y-125.18
T4
X135.785Y-95.085
X135.785Y-96.985
T5
X140.66Y-117.75
X140.66Y-139.75
X142.66Y-117.75
X142.66Y-139.75
X144.66Y-117.75
X144.66Y-139.75
X146.66Y-117.75
X146.66Y-139.75
X148.66Y-117.75
X148.66Y-139.75
X150.66Y-117.75
X150.66Y-139.75
X152.66Y-117.75
X152.66Y-139.75
X154.66Y-117.75
X154.66Y-139.75
X156.66Y-117.75
X156.66Y-139.75
X158.66Y-117.75
X158.66Y-139.75
T6
X108.112Y-101.315
X108.112Y-103.315
X108.112Y-105.315
T7
X113.882Y-109.605
X113.882Y-116.965
X114.902Y-101.715
X116.382Y-109.605
X116.382Y-116.965
X117.402Y-101.715
X118.882Y-109.605
X118.882Y-116.965
X119.902Y-101.715
X122.402Y-101.715
X125.002Y-124.324
X125.002Y-131.542
X125.032Y-117.205
X125.642Y-74.285
X127.502Y-124.324
X127.502Y-131.542
X127.532Y-117.205
X128.142Y-74.285
X130.002Y-124.324
X130.002Y-131.542
X130.032Y-117.205
X130.642Y-74.285
X133.142Y-74.285
X139.202Y-74.285
X140.245Y-80.34
X140.245Y-82.84
X140.245Y-85.34
X140.245Y-87.84
X141.702Y-74.285
X144.202Y-74.285
X146.702Y-74.285
X149.202Y-74.285
T8
X109.412Y-92.495
X109.412Y-95.035
X145.792Y-112.215
X148.332Y-112.215
X150.873Y-112.215
X153.412Y-112.215
X167.29Y-98.98
X169.83Y-98.98
X172.37Y-98.98
X174.91Y-98.98
T9
X141.38Y-128.8
T10
X108.112Y-99.215
X108.112Y-107.415
X161.38Y-128.8
M30
