G04 #@! TF.GenerationSoftware,KiCad,Pcbnew,8.0.5*
G04 #@! TF.CreationDate,2024-11-26T16:03:35+07:00*
G04 #@! TF.ProjectId,probe06-ivy,70726f62-6530-4362-9d69-76792e6b6963,1*
G04 #@! TF.SameCoordinates,Original*
G04 #@! TF.FileFunction,Paste,Top*
G04 #@! TF.FilePolarity,Positive*
%FSLAX46Y46*%
G04 Gerber Fmt 4.6, Leading zero omitted, Abs format (unit mm)*
G04 Created by KiCad (PCBNEW 8.0.5) date 2024-11-26 16:03:35*
%MOMM*%
%LPD*%
G01*
G04 APERTURE LIST*
G04 Aperture macros list*
%AMRoundRect*
0 Rectangle with rounded corners*
0 $1 Rounding radius*
0 $2 $3 $4 $5 $6 $7 $8 $9 X,Y pos of 4 corners*
0 Add a 4 corners polygon primitive as box body*
4,1,4,$2,$3,$4,$5,$6,$7,$8,$9,$2,$3,0*
0 Add four circle primitives for the rounded corners*
1,1,$1+$1,$2,$3*
1,1,$1+$1,$4,$5*
1,1,$1+$1,$6,$7*
1,1,$1+$1,$8,$9*
0 Add four rect primitives between the rounded corners*
20,1,$1+$1,$2,$3,$4,$5,0*
20,1,$1+$1,$4,$5,$6,$7,0*
20,1,$1+$1,$6,$7,$8,$9,0*
20,1,$1+$1,$8,$9,$2,$3,0*%
G04 Aperture macros list end*
%ADD10C,0.010000*%
%ADD11RoundRect,0.218750X-0.256250X0.218750X-0.256250X-0.218750X0.256250X-0.218750X0.256250X0.218750X0*%
%ADD12RoundRect,0.218750X0.218750X0.256250X-0.218750X0.256250X-0.218750X-0.256250X0.218750X-0.256250X0*%
%ADD13R,0.400000X1.400000*%
%ADD14R,2.300000X1.900000*%
%ADD15R,1.800000X1.900000*%
%ADD16RoundRect,0.200000X-0.200000X-0.275000X0.200000X-0.275000X0.200000X0.275000X-0.200000X0.275000X0*%
%ADD17RoundRect,0.218750X-0.218750X-0.381250X0.218750X-0.381250X0.218750X0.381250X-0.218750X0.381250X0*%
%ADD18RoundRect,0.225000X0.225000X0.250000X-0.225000X0.250000X-0.225000X-0.250000X0.225000X-0.250000X0*%
%ADD19RoundRect,0.150000X-0.150000X0.587500X-0.150000X-0.587500X0.150000X-0.587500X0.150000X0.587500X0*%
%ADD20RoundRect,0.250000X-0.650000X0.325000X-0.650000X-0.325000X0.650000X-0.325000X0.650000X0.325000X0*%
%ADD21RoundRect,0.225000X-0.250000X0.225000X-0.250000X-0.225000X0.250000X-0.225000X0.250000X0.225000X0*%
%ADD22RoundRect,0.250000X0.650000X-1.000000X0.650000X1.000000X-0.650000X1.000000X-0.650000X-1.000000X0*%
%ADD23RoundRect,0.200000X-0.275000X0.200000X-0.275000X-0.200000X0.275000X-0.200000X0.275000X0.200000X0*%
%ADD24RoundRect,0.200000X0.200000X0.275000X-0.200000X0.275000X-0.200000X-0.275000X0.200000X-0.275000X0*%
%ADD25RoundRect,0.100000X0.637500X0.100000X-0.637500X0.100000X-0.637500X-0.100000X0.637500X-0.100000X0*%
%ADD26RoundRect,0.200000X0.200000X-0.700000X0.200000X0.700000X-0.200000X0.700000X-0.200000X-0.700000X0*%
%ADD27R,1.500000X2.400000*%
%ADD28RoundRect,0.200000X0.275000X-0.200000X0.275000X0.200000X-0.275000X0.200000X-0.275000X-0.200000X0*%
%ADD29R,1.200000X1.200000*%
%ADD30R,1.600000X1.500000*%
%ADD31RoundRect,0.250000X0.650000X-0.325000X0.650000X0.325000X-0.650000X0.325000X-0.650000X-0.325000X0*%
%ADD32RoundRect,0.225000X-0.225000X-0.250000X0.225000X-0.250000X0.225000X0.250000X-0.225000X0.250000X0*%
%ADD33RoundRect,0.225000X0.375000X-0.225000X0.375000X0.225000X-0.375000X0.225000X-0.375000X-0.225000X0*%
%ADD34R,0.700000X1.600000*%
%ADD35R,1.400000X1.600000*%
%ADD36R,1.400000X2.200000*%
%ADD37R,1.800000X1.400000*%
%ADD38R,1.600000X2.180000*%
%ADD39RoundRect,0.162000X0.138000X-0.823000X0.138000X0.823000X-0.138000X0.823000X-0.138000X-0.823000X0*%
%ADD40RoundRect,0.250000X-0.250000X0.275000X-0.250000X-0.275000X0.250000X-0.275000X0.250000X0.275000X0*%
%ADD41RoundRect,0.250000X-0.275000X0.850000X-0.275000X-0.850000X0.275000X-0.850000X0.275000X0.850000X0*%
%ADD42R,1.200000X1.400000*%
%ADD43RoundRect,0.218750X-0.218750X-0.256250X0.218750X-0.256250X0.218750X0.256250X-0.218750X0.256250X0*%
%ADD44RoundRect,0.075000X-0.725000X-0.075000X0.725000X-0.075000X0.725000X0.075000X-0.725000X0.075000X0*%
%ADD45RoundRect,0.075000X-0.075000X-0.725000X0.075000X-0.725000X0.075000X0.725000X-0.075000X0.725000X0*%
%ADD46R,0.500000X0.350000*%
%ADD47RoundRect,0.225000X0.250000X-0.225000X0.250000X0.225000X-0.250000X0.225000X-0.250000X-0.225000X0*%
G04 APERTURE END LIST*
D10*
X122100287Y-91510387D02*
X120860700Y-91510387D01*
X120860700Y-90710800D01*
X122100287Y-90710800D01*
X122100287Y-91510387D01*
G36*
X122100287Y-91510387D02*
G01*
X120860700Y-91510387D01*
X120860700Y-90710800D01*
X122100287Y-90710800D01*
X122100287Y-91510387D01*
G37*
X122100409Y-92582819D02*
X120860700Y-92582819D01*
X120860700Y-91780800D01*
X122100409Y-91780800D01*
X122100409Y-92582819D01*
G36*
X122100409Y-92582819D02*
G01*
X120860700Y-92582819D01*
X120860700Y-91780800D01*
X122100409Y-91780800D01*
X122100409Y-92582819D01*
G37*
X123612840Y-91510591D02*
X122370700Y-91510591D01*
X122370700Y-90710800D01*
X123612840Y-90710800D01*
X123612840Y-91510591D01*
G36*
X123612840Y-91510591D02*
G01*
X122370700Y-91510591D01*
X122370700Y-90710800D01*
X123612840Y-90710800D01*
X123612840Y-91510591D01*
G37*
X123614040Y-92583072D02*
X122370700Y-92583072D01*
X122370700Y-91780800D01*
X123614040Y-91780800D01*
X123614040Y-92583072D01*
G36*
X123614040Y-92583072D02*
G01*
X122370700Y-92583072D01*
X122370700Y-91780800D01*
X123614040Y-91780800D01*
X123614040Y-92583072D01*
G37*
D11*
X179760000Y-110860000D03*
X179760000Y-112435000D03*
D12*
X183500000Y-94280000D03*
X181925000Y-94280000D03*
D13*
X147250000Y-68110000D03*
X146600000Y-68110000D03*
X145950000Y-68110000D03*
X145300000Y-68110000D03*
X144650000Y-68110000D03*
D14*
X149700000Y-65260000D03*
D15*
X147100000Y-65260000D03*
X144800000Y-65260000D03*
D14*
X142200000Y-65260000D03*
D16*
X169195000Y-91802500D03*
X170845000Y-91802500D03*
D17*
X173115000Y-122347500D03*
X175240000Y-122347500D03*
D18*
X115172500Y-87825000D03*
X113622500Y-87825000D03*
D19*
X133462500Y-78300000D03*
X131562500Y-78300000D03*
X132512500Y-80175000D03*
D20*
X114004300Y-91919200D03*
X114004300Y-94869200D03*
D16*
X169175000Y-89672500D03*
X170825000Y-89672500D03*
D21*
X136425000Y-101055000D03*
X136425000Y-102605000D03*
D22*
X117352500Y-83375000D03*
X117352500Y-79375000D03*
D23*
X179740000Y-113990000D03*
X179740000Y-115640000D03*
D24*
X180020000Y-94290000D03*
X178370000Y-94290000D03*
D23*
X165620000Y-102787500D03*
X165620000Y-104437500D03*
D21*
X118512500Y-90875000D03*
X118512500Y-92425000D03*
D25*
X176800000Y-104417500D03*
X176800000Y-103767500D03*
X176800000Y-103117500D03*
X176800000Y-102467500D03*
X171075000Y-102467500D03*
X171075000Y-103117500D03*
X171075000Y-103767500D03*
X171075000Y-104417500D03*
D26*
X162320000Y-118877500D03*
X163420000Y-118877500D03*
X164520000Y-118877500D03*
X165620000Y-118877500D03*
X166720000Y-118877500D03*
X167820000Y-118877500D03*
X168920000Y-118877500D03*
X171920000Y-118877500D03*
X173020000Y-118877500D03*
X174120000Y-118877500D03*
X175220000Y-118877500D03*
X176320000Y-118877500D03*
X176320000Y-106877500D03*
X175220000Y-106877500D03*
X174120000Y-106877500D03*
X173020000Y-106877500D03*
X171920000Y-106877500D03*
X168920000Y-106877500D03*
X167820000Y-106877500D03*
X166720000Y-106877500D03*
X165620000Y-106877500D03*
X164520000Y-106877500D03*
X163420000Y-106877500D03*
X162320000Y-106877500D03*
D16*
X119987500Y-97005000D03*
X121637500Y-97005000D03*
D27*
X122592500Y-82595000D03*
X128092500Y-82595000D03*
D18*
X140205000Y-104925000D03*
X138655000Y-104925000D03*
D28*
X136405000Y-109415000D03*
X136405000Y-107765000D03*
D24*
X120667500Y-85905000D03*
X119017500Y-85905000D03*
D12*
X183530000Y-99270000D03*
X181955000Y-99270000D03*
D29*
X126462500Y-92215000D03*
D30*
X127462500Y-88965000D03*
D29*
X128462500Y-92215000D03*
D24*
X166170000Y-87170000D03*
X164520000Y-87170000D03*
D31*
X131052500Y-86605000D03*
X131052500Y-83655000D03*
D24*
X140245000Y-95155000D03*
X138595000Y-95155000D03*
D23*
X159220000Y-86740000D03*
X159220000Y-88390000D03*
D18*
X164120000Y-104360000D03*
X162570000Y-104360000D03*
D32*
X169302500Y-93800000D03*
X170852500Y-93800000D03*
D24*
X128382500Y-94655000D03*
X126732500Y-94655000D03*
D33*
X179740000Y-106057500D03*
X179740000Y-102757500D03*
D16*
X138595000Y-98675000D03*
X140245000Y-98675000D03*
D34*
X159022500Y-84175000D03*
X160122500Y-84175000D03*
X161222500Y-84175000D03*
X162322500Y-84175000D03*
X163422500Y-84175000D03*
X164522500Y-84175000D03*
X165622500Y-84175000D03*
X166722500Y-84175000D03*
X167822500Y-84175000D03*
D35*
X169122500Y-83575000D03*
D36*
X169122500Y-74075000D03*
X153422500Y-74075000D03*
D37*
X154322500Y-83675000D03*
D18*
X136705000Y-98885000D03*
X135155000Y-98885000D03*
X174325000Y-93792500D03*
X172775000Y-93792500D03*
D38*
X132185000Y-99535000D03*
X132185000Y-108715000D03*
D23*
X179740000Y-107647500D03*
X179740000Y-109297500D03*
D39*
X120330700Y-94120800D03*
X121600700Y-94120800D03*
X122870700Y-94120800D03*
X124140700Y-94120800D03*
X124140700Y-89170800D03*
X122870700Y-89170800D03*
X121600700Y-89170800D03*
X120330700Y-89170800D03*
D24*
X180040000Y-96700000D03*
X178390000Y-96700000D03*
D12*
X183475000Y-91870000D03*
X181900000Y-91870000D03*
D16*
X125257500Y-97005000D03*
X126907500Y-97005000D03*
D40*
X175240000Y-125447500D03*
D41*
X176715000Y-126972500D03*
X173765000Y-126972500D03*
D23*
X134100000Y-81890000D03*
X134100000Y-83540000D03*
D42*
X140072000Y-102926800D03*
X140072000Y-100726800D03*
X138372000Y-100726800D03*
X138372000Y-102926800D03*
D23*
X174402500Y-85175000D03*
X174402500Y-86825000D03*
X161250000Y-86750000D03*
X161250000Y-88400000D03*
D24*
X180025000Y-91880000D03*
X178375000Y-91880000D03*
X180090000Y-99270000D03*
X178440000Y-99270000D03*
D43*
X134185000Y-68130000D03*
X135760000Y-68130000D03*
D22*
X131612500Y-93075000D03*
X131612500Y-89075000D03*
D12*
X183507500Y-96690000D03*
X181932500Y-96690000D03*
D23*
X172402500Y-85180000D03*
X172402500Y-86830000D03*
D18*
X136705000Y-93145000D03*
X135155000Y-93145000D03*
D44*
X143845000Y-94165000D03*
X143845000Y-94665000D03*
X143845000Y-95165000D03*
X143845000Y-95665000D03*
X143845000Y-96165000D03*
X143845000Y-96665000D03*
X143845000Y-97165000D03*
X143845000Y-97665000D03*
X143845000Y-98165000D03*
X143845000Y-98665000D03*
X143845000Y-99165000D03*
X143845000Y-99665000D03*
X143845000Y-100165000D03*
X143845000Y-100665000D03*
X143845000Y-101165000D03*
X143845000Y-101665000D03*
X143845000Y-102165000D03*
X143845000Y-102665000D03*
X143845000Y-103165000D03*
X143845000Y-103665000D03*
X143845000Y-104165000D03*
X143845000Y-104665000D03*
X143845000Y-105165000D03*
X143845000Y-105665000D03*
X143845000Y-106165000D03*
D45*
X145520000Y-107840000D03*
X146020000Y-107840000D03*
X146520000Y-107840000D03*
X147020000Y-107840000D03*
X147520000Y-107840000D03*
X148020000Y-107840000D03*
X148520000Y-107840000D03*
X149020000Y-107840000D03*
X149520000Y-107840000D03*
X150020000Y-107840000D03*
X150520000Y-107840000D03*
X151020000Y-107840000D03*
X151520000Y-107840000D03*
X152020000Y-107840000D03*
X152520000Y-107840000D03*
X153020000Y-107840000D03*
X153520000Y-107840000D03*
X154020000Y-107840000D03*
X154520000Y-107840000D03*
X155020000Y-107840000D03*
X155520000Y-107840000D03*
X156020000Y-107840000D03*
X156520000Y-107840000D03*
X157020000Y-107840000D03*
X157520000Y-107840000D03*
D44*
X159195000Y-106165000D03*
X159195000Y-105665000D03*
X159195000Y-105165000D03*
X159195000Y-104665000D03*
X159195000Y-104165000D03*
X159195000Y-103665000D03*
X159195000Y-103165000D03*
X159195000Y-102665000D03*
X159195000Y-102165000D03*
X159195000Y-101665000D03*
X159195000Y-101165000D03*
X159195000Y-100665000D03*
X159195000Y-100165000D03*
X159195000Y-99665000D03*
X159195000Y-99165000D03*
X159195000Y-98665000D03*
X159195000Y-98165000D03*
X159195000Y-97665000D03*
X159195000Y-97165000D03*
X159195000Y-96665000D03*
X159195000Y-96165000D03*
X159195000Y-95665000D03*
X159195000Y-95165000D03*
X159195000Y-94665000D03*
X159195000Y-94165000D03*
D45*
X157520000Y-92490000D03*
X157020000Y-92490000D03*
X156520000Y-92490000D03*
X156020000Y-92490000D03*
X155520000Y-92490000D03*
X155020000Y-92490000D03*
X154520000Y-92490000D03*
X154020000Y-92490000D03*
X153520000Y-92490000D03*
X153020000Y-92490000D03*
X152520000Y-92490000D03*
X152020000Y-92490000D03*
X151520000Y-92490000D03*
X151020000Y-92490000D03*
X150520000Y-92490000D03*
X150020000Y-92490000D03*
X149520000Y-92490000D03*
X149020000Y-92490000D03*
X148520000Y-92490000D03*
X148020000Y-92490000D03*
X147520000Y-92490000D03*
X147020000Y-92490000D03*
X146520000Y-92490000D03*
X146020000Y-92490000D03*
X145520000Y-92490000D03*
D23*
X171920000Y-120717500D03*
X171920000Y-122367500D03*
D24*
X140245000Y-96905000D03*
X138595000Y-96905000D03*
D32*
X129830000Y-82010000D03*
X131380000Y-82010000D03*
D46*
X172722500Y-90855000D03*
X172722500Y-90205000D03*
X172722500Y-89555000D03*
X172722500Y-88905000D03*
X174322500Y-88905000D03*
X174322500Y-89555000D03*
X174322500Y-90205000D03*
X174322500Y-90855000D03*
D23*
X167700000Y-102777500D03*
X167700000Y-104427500D03*
D47*
X136395000Y-106025000D03*
X136395000Y-104475000D03*
D18*
X118077500Y-95795000D03*
X116527500Y-95795000D03*
D28*
X116512500Y-92445000D03*
X116512500Y-90795000D03*
M02*
