G04 #@! TF.GenerationSoftware,KiCad,Pcbnew,8.0.5*
G04 #@! TF.CreationDate,2024-11-26T16:03:35+07:00*
G04 #@! TF.ProjectId,probe06-ivy,70726f62-6530-4362-9d69-76792e6b6963,1*
G04 #@! TF.SameCoordinates,Original*
G04 #@! TF.FileFunction,Legend,Bot*
G04 #@! TF.FilePolarity,Positive*
%FSLAX46Y46*%
G04 Gerber Fmt 4.6, Leading zero omitted, Abs format (unit mm)*
G04 Created by KiCad (PCBNEW 8.0.5) date 2024-11-26 16:03:35*
%MOMM*%
%LPD*%
G01*
G04 APERTURE LIST*
G04 Aperture macros list*
%AMRoundRect*
0 Rectangle with rounded corners*
0 $1 Rounding radius*
0 $2 $3 $4 $5 $6 $7 $8 $9 X,Y pos of 4 corners*
0 Add a 4 corners polygon primitive as box body*
4,1,4,$2,$3,$4,$5,$6,$7,$8,$9,$2,$3,0*
0 Add four circle primitives for the rounded corners*
1,1,$1+$1,$2,$3*
1,1,$1+$1,$4,$5*
1,1,$1+$1,$6,$7*
1,1,$1+$1,$8,$9*
0 Add four rect primitives between the rounded corners*
20,1,$1+$1,$2,$3,$4,$5,0*
20,1,$1+$1,$4,$5,$6,$7,0*
20,1,$1+$1,$6,$7,$8,$9,0*
20,1,$1+$1,$8,$9,$2,$3,0*%
G04 Aperture macros list end*
%ADD10C,0.400000*%
%ADD11C,0.312500*%
%ADD12C,0.100000*%
%ADD13C,0.120000*%
%ADD14C,0.000000*%
%ADD15RoundRect,0.250000X-0.600000X-0.725000X0.600000X-0.725000X0.600000X0.725000X-0.600000X0.725000X0*%
%ADD16O,1.700000X1.950000*%
%ADD17RoundRect,0.250000X0.600000X0.725000X-0.600000X0.725000X-0.600000X-0.725000X0.600000X-0.725000X0*%
%ADD18O,3.500000X2.200000*%
%ADD19R,2.500000X1.500000*%
%ADD20O,2.500000X1.500000*%
%ADD21R,1.700000X1.700000*%
%ADD22O,1.700000X1.700000*%
%ADD23RoundRect,0.102000X-0.700000X0.700000X-0.700000X-0.700000X0.700000X-0.700000X0.700000X0.700000X0*%
%ADD24C,1.604000*%
%ADD25C,1.000000*%
%ADD26C,0.900000*%
%ADD27RoundRect,0.250000X-0.725000X0.600000X-0.725000X-0.600000X0.725000X-0.600000X0.725000X0.600000X0*%
%ADD28O,1.950000X1.700000*%
%ADD29RoundRect,0.225000X-0.225000X-0.250000X0.225000X-0.250000X0.225000X0.250000X-0.225000X0.250000X0*%
%ADD30R,2.170000X2.170000*%
%ADD31C,2.500000*%
%ADD32RoundRect,0.225000X0.250000X-0.225000X0.250000X0.225000X-0.250000X0.225000X-0.250000X-0.225000X0*%
%ADD33RoundRect,0.200000X0.275000X-0.200000X0.275000X0.200000X-0.275000X0.200000X-0.275000X-0.200000X0*%
%ADD34RoundRect,0.150000X-0.150000X0.587500X-0.150000X-0.587500X0.150000X-0.587500X0.150000X0.587500X0*%
%ADD35RoundRect,0.225000X-0.250000X0.225000X-0.250000X-0.225000X0.250000X-0.225000X0.250000X0.225000X0*%
%ADD36RoundRect,0.250000X0.650000X-1.000000X0.650000X1.000000X-0.650000X1.000000X-0.650000X-1.000000X0*%
%ADD37RoundRect,0.200000X0.200000X0.275000X-0.200000X0.275000X-0.200000X-0.275000X0.200000X-0.275000X0*%
%ADD38RoundRect,0.200000X-0.275000X0.200000X-0.275000X-0.200000X0.275000X-0.200000X0.275000X0.200000X0*%
%ADD39RoundRect,0.250000X1.000000X0.650000X-1.000000X0.650000X-1.000000X-0.650000X1.000000X-0.650000X0*%
%ADD40RoundRect,0.200000X-0.200000X-0.275000X0.200000X-0.275000X0.200000X0.275000X-0.200000X0.275000X0*%
%ADD41RoundRect,0.375000X0.375000X-0.625000X0.375000X0.625000X-0.375000X0.625000X-0.375000X-0.625000X0*%
%ADD42RoundRect,0.500000X1.400000X-0.500000X1.400000X0.500000X-1.400000X0.500000X-1.400000X-0.500000X0*%
%ADD43RoundRect,0.225000X0.225000X0.250000X-0.225000X0.250000X-0.225000X-0.250000X0.225000X-0.250000X0*%
G04 APERTURE END LIST*
D10*
X133373033Y-78489788D02*
X133563509Y-78394550D01*
X133563509Y-78394550D02*
X133849223Y-78394550D01*
X133849223Y-78394550D02*
X134134938Y-78489788D01*
X134134938Y-78489788D02*
X134325414Y-78680264D01*
X134325414Y-78680264D02*
X134420652Y-78870740D01*
X134420652Y-78870740D02*
X134515890Y-79251692D01*
X134515890Y-79251692D02*
X134515890Y-79537407D01*
X134515890Y-79537407D02*
X134420652Y-79918359D01*
X134420652Y-79918359D02*
X134325414Y-80108835D01*
X134325414Y-80108835D02*
X134134938Y-80299312D01*
X134134938Y-80299312D02*
X133849223Y-80394550D01*
X133849223Y-80394550D02*
X133658747Y-80394550D01*
X133658747Y-80394550D02*
X133373033Y-80299312D01*
X133373033Y-80299312D02*
X133277795Y-80204073D01*
X133277795Y-80204073D02*
X133277795Y-79537407D01*
X133277795Y-79537407D02*
X133658747Y-79537407D01*
X131563509Y-80394550D02*
X131563509Y-79346931D01*
X131563509Y-79346931D02*
X131658747Y-79156454D01*
X131658747Y-79156454D02*
X131849223Y-79061216D01*
X131849223Y-79061216D02*
X132230176Y-79061216D01*
X132230176Y-79061216D02*
X132420652Y-79156454D01*
X131563509Y-80299312D02*
X131753985Y-80394550D01*
X131753985Y-80394550D02*
X132230176Y-80394550D01*
X132230176Y-80394550D02*
X132420652Y-80299312D01*
X132420652Y-80299312D02*
X132515890Y-80108835D01*
X132515890Y-80108835D02*
X132515890Y-79918359D01*
X132515890Y-79918359D02*
X132420652Y-79727883D01*
X132420652Y-79727883D02*
X132230176Y-79632645D01*
X132230176Y-79632645D02*
X131753985Y-79632645D01*
X131753985Y-79632645D02*
X131563509Y-79537407D01*
X130611128Y-80394550D02*
X130611128Y-79061216D01*
X130611128Y-79442169D02*
X130515890Y-79251692D01*
X130515890Y-79251692D02*
X130420652Y-79156454D01*
X130420652Y-79156454D02*
X130230176Y-79061216D01*
X130230176Y-79061216D02*
X130039699Y-79061216D01*
X128515890Y-79061216D02*
X128515890Y-80394550D01*
X129373033Y-79061216D02*
X129373033Y-80108835D01*
X129373033Y-80108835D02*
X129277795Y-80299312D01*
X129277795Y-80299312D02*
X129087319Y-80394550D01*
X129087319Y-80394550D02*
X128801604Y-80394550D01*
X128801604Y-80394550D02*
X128611128Y-80299312D01*
X128611128Y-80299312D02*
X128515890Y-80204073D01*
X126706366Y-80394550D02*
X126706366Y-78394550D01*
X126706366Y-80299312D02*
X126896842Y-80394550D01*
X126896842Y-80394550D02*
X127277795Y-80394550D01*
X127277795Y-80394550D02*
X127468271Y-80299312D01*
X127468271Y-80299312D02*
X127563509Y-80204073D01*
X127563509Y-80204073D02*
X127658747Y-80013597D01*
X127658747Y-80013597D02*
X127658747Y-79442169D01*
X127658747Y-79442169D02*
X127563509Y-79251692D01*
X127563509Y-79251692D02*
X127468271Y-79156454D01*
X127468271Y-79156454D02*
X127277795Y-79061216D01*
X127277795Y-79061216D02*
X126896842Y-79061216D01*
X126896842Y-79061216D02*
X126706366Y-79156454D01*
X124896842Y-80394550D02*
X124896842Y-79346931D01*
X124896842Y-79346931D02*
X124992080Y-79156454D01*
X124992080Y-79156454D02*
X125182556Y-79061216D01*
X125182556Y-79061216D02*
X125563509Y-79061216D01*
X125563509Y-79061216D02*
X125753985Y-79156454D01*
X124896842Y-80299312D02*
X125087318Y-80394550D01*
X125087318Y-80394550D02*
X125563509Y-80394550D01*
X125563509Y-80394550D02*
X125753985Y-80299312D01*
X125753985Y-80299312D02*
X125849223Y-80108835D01*
X125849223Y-80108835D02*
X125849223Y-79918359D01*
X125849223Y-79918359D02*
X125753985Y-79727883D01*
X125753985Y-79727883D02*
X125563509Y-79632645D01*
X125563509Y-79632645D02*
X125087318Y-79632645D01*
X125087318Y-79632645D02*
X124896842Y-79537407D01*
X123944461Y-80394550D02*
X123944461Y-78394550D01*
X123753985Y-79632645D02*
X123182556Y-80394550D01*
X123182556Y-79061216D02*
X123944461Y-79823121D01*
X121468270Y-79061216D02*
X121468270Y-80394550D01*
X122325413Y-79061216D02*
X122325413Y-80108835D01*
X122325413Y-80108835D02*
X122230175Y-80299312D01*
X122230175Y-80299312D02*
X122039699Y-80394550D01*
X122039699Y-80394550D02*
X121753984Y-80394550D01*
X121753984Y-80394550D02*
X121563508Y-80299312D01*
X121563508Y-80299312D02*
X121468270Y-80204073D01*
X133849223Y-81614438D02*
X133849223Y-83043009D01*
X133849223Y-83043009D02*
X133944462Y-83328723D01*
X133944462Y-83328723D02*
X134134938Y-83519200D01*
X134134938Y-83519200D02*
X134420652Y-83614438D01*
X134420652Y-83614438D02*
X134611128Y-83614438D01*
X132039699Y-83614438D02*
X132039699Y-82566819D01*
X132039699Y-82566819D02*
X132134937Y-82376342D01*
X132134937Y-82376342D02*
X132325413Y-82281104D01*
X132325413Y-82281104D02*
X132706366Y-82281104D01*
X132706366Y-82281104D02*
X132896842Y-82376342D01*
X132039699Y-83519200D02*
X132230175Y-83614438D01*
X132230175Y-83614438D02*
X132706366Y-83614438D01*
X132706366Y-83614438D02*
X132896842Y-83519200D01*
X132896842Y-83519200D02*
X132992080Y-83328723D01*
X132992080Y-83328723D02*
X132992080Y-83138247D01*
X132992080Y-83138247D02*
X132896842Y-82947771D01*
X132896842Y-82947771D02*
X132706366Y-82852533D01*
X132706366Y-82852533D02*
X132230175Y-82852533D01*
X132230175Y-82852533D02*
X132039699Y-82757295D01*
X131277794Y-82281104D02*
X130801604Y-83614438D01*
X130325413Y-82281104D02*
X130801604Y-83614438D01*
X130801604Y-83614438D02*
X130992080Y-84090628D01*
X130992080Y-84090628D02*
X131087318Y-84185866D01*
X131087318Y-84185866D02*
X131277794Y-84281104D01*
X128706365Y-83614438D02*
X128706365Y-82566819D01*
X128706365Y-82566819D02*
X128801603Y-82376342D01*
X128801603Y-82376342D02*
X128992079Y-82281104D01*
X128992079Y-82281104D02*
X129373032Y-82281104D01*
X129373032Y-82281104D02*
X129563508Y-82376342D01*
X128706365Y-83519200D02*
X128896841Y-83614438D01*
X128896841Y-83614438D02*
X129373032Y-83614438D01*
X129373032Y-83614438D02*
X129563508Y-83519200D01*
X129563508Y-83519200D02*
X129658746Y-83328723D01*
X129658746Y-83328723D02*
X129658746Y-83138247D01*
X129658746Y-83138247D02*
X129563508Y-82947771D01*
X129563508Y-82947771D02*
X129373032Y-82852533D01*
X129373032Y-82852533D02*
X128896841Y-82852533D01*
X128896841Y-82852533D02*
X128706365Y-82757295D01*
X134420652Y-86834326D02*
X134420652Y-84834326D01*
X134420652Y-84834326D02*
X133944462Y-84834326D01*
X133944462Y-84834326D02*
X133658747Y-84929564D01*
X133658747Y-84929564D02*
X133468271Y-85120040D01*
X133468271Y-85120040D02*
X133373033Y-85310516D01*
X133373033Y-85310516D02*
X133277795Y-85691468D01*
X133277795Y-85691468D02*
X133277795Y-85977183D01*
X133277795Y-85977183D02*
X133373033Y-86358135D01*
X133373033Y-86358135D02*
X133468271Y-86548611D01*
X133468271Y-86548611D02*
X133658747Y-86739088D01*
X133658747Y-86739088D02*
X133944462Y-86834326D01*
X133944462Y-86834326D02*
X134420652Y-86834326D01*
X132420652Y-86834326D02*
X132420652Y-85500992D01*
X132420652Y-84834326D02*
X132515890Y-84929564D01*
X132515890Y-84929564D02*
X132420652Y-85024802D01*
X132420652Y-85024802D02*
X132325414Y-84929564D01*
X132325414Y-84929564D02*
X132420652Y-84834326D01*
X132420652Y-84834326D02*
X132420652Y-85024802D01*
X130611128Y-86834326D02*
X130611128Y-85786707D01*
X130611128Y-85786707D02*
X130706366Y-85596230D01*
X130706366Y-85596230D02*
X130896842Y-85500992D01*
X130896842Y-85500992D02*
X131277795Y-85500992D01*
X131277795Y-85500992D02*
X131468271Y-85596230D01*
X130611128Y-86739088D02*
X130801604Y-86834326D01*
X130801604Y-86834326D02*
X131277795Y-86834326D01*
X131277795Y-86834326D02*
X131468271Y-86739088D01*
X131468271Y-86739088D02*
X131563509Y-86548611D01*
X131563509Y-86548611D02*
X131563509Y-86358135D01*
X131563509Y-86358135D02*
X131468271Y-86167659D01*
X131468271Y-86167659D02*
X131277795Y-86072421D01*
X131277795Y-86072421D02*
X130801604Y-86072421D01*
X130801604Y-86072421D02*
X130611128Y-85977183D01*
X129658747Y-85500992D02*
X129658747Y-86834326D01*
X129658747Y-85691468D02*
X129563509Y-85596230D01*
X129563509Y-85596230D02*
X129373033Y-85500992D01*
X129373033Y-85500992D02*
X129087318Y-85500992D01*
X129087318Y-85500992D02*
X128896842Y-85596230D01*
X128896842Y-85596230D02*
X128801604Y-85786707D01*
X128801604Y-85786707D02*
X128801604Y-86834326D01*
X126992080Y-85500992D02*
X126992080Y-87120040D01*
X126992080Y-87120040D02*
X127087318Y-87310516D01*
X127087318Y-87310516D02*
X127182556Y-87405754D01*
X127182556Y-87405754D02*
X127373033Y-87500992D01*
X127373033Y-87500992D02*
X127658747Y-87500992D01*
X127658747Y-87500992D02*
X127849223Y-87405754D01*
X126992080Y-86739088D02*
X127182556Y-86834326D01*
X127182556Y-86834326D02*
X127563509Y-86834326D01*
X127563509Y-86834326D02*
X127753985Y-86739088D01*
X127753985Y-86739088D02*
X127849223Y-86643849D01*
X127849223Y-86643849D02*
X127944461Y-86453373D01*
X127944461Y-86453373D02*
X127944461Y-85881945D01*
X127944461Y-85881945D02*
X127849223Y-85691468D01*
X127849223Y-85691468D02*
X127753985Y-85596230D01*
X127753985Y-85596230D02*
X127563509Y-85500992D01*
X127563509Y-85500992D02*
X127182556Y-85500992D01*
X127182556Y-85500992D02*
X126992080Y-85596230D01*
X126039699Y-86834326D02*
X126039699Y-84834326D01*
X125849223Y-86072421D02*
X125277794Y-86834326D01*
X125277794Y-85500992D02*
X126039699Y-86262897D01*
X123563508Y-86834326D02*
X123563508Y-85786707D01*
X123563508Y-85786707D02*
X123658746Y-85596230D01*
X123658746Y-85596230D02*
X123849222Y-85500992D01*
X123849222Y-85500992D02*
X124230175Y-85500992D01*
X124230175Y-85500992D02*
X124420651Y-85596230D01*
X123563508Y-86739088D02*
X123753984Y-86834326D01*
X123753984Y-86834326D02*
X124230175Y-86834326D01*
X124230175Y-86834326D02*
X124420651Y-86739088D01*
X124420651Y-86739088D02*
X124515889Y-86548611D01*
X124515889Y-86548611D02*
X124515889Y-86358135D01*
X124515889Y-86358135D02*
X124420651Y-86167659D01*
X124420651Y-86167659D02*
X124230175Y-86072421D01*
X124230175Y-86072421D02*
X123753984Y-86072421D01*
X123753984Y-86072421D02*
X123563508Y-85977183D01*
X122706365Y-86739088D02*
X122515889Y-86834326D01*
X122515889Y-86834326D02*
X122134937Y-86834326D01*
X122134937Y-86834326D02*
X121944460Y-86739088D01*
X121944460Y-86739088D02*
X121849222Y-86548611D01*
X121849222Y-86548611D02*
X121849222Y-86453373D01*
X121849222Y-86453373D02*
X121944460Y-86262897D01*
X121944460Y-86262897D02*
X122134937Y-86167659D01*
X122134937Y-86167659D02*
X122420651Y-86167659D01*
X122420651Y-86167659D02*
X122611127Y-86072421D01*
X122611127Y-86072421D02*
X122706365Y-85881945D01*
X122706365Y-85881945D02*
X122706365Y-85786707D01*
X122706365Y-85786707D02*
X122611127Y-85596230D01*
X122611127Y-85596230D02*
X122420651Y-85500992D01*
X122420651Y-85500992D02*
X122134937Y-85500992D01*
X122134937Y-85500992D02*
X121944460Y-85596230D01*
X120134936Y-86834326D02*
X120134936Y-85786707D01*
X120134936Y-85786707D02*
X120230174Y-85596230D01*
X120230174Y-85596230D02*
X120420650Y-85500992D01*
X120420650Y-85500992D02*
X120801603Y-85500992D01*
X120801603Y-85500992D02*
X120992079Y-85596230D01*
X120134936Y-86739088D02*
X120325412Y-86834326D01*
X120325412Y-86834326D02*
X120801603Y-86834326D01*
X120801603Y-86834326D02*
X120992079Y-86739088D01*
X120992079Y-86739088D02*
X121087317Y-86548611D01*
X121087317Y-86548611D02*
X121087317Y-86358135D01*
X121087317Y-86358135D02*
X120992079Y-86167659D01*
X120992079Y-86167659D02*
X120801603Y-86072421D01*
X120801603Y-86072421D02*
X120325412Y-86072421D01*
X120325412Y-86072421D02*
X120134936Y-85977183D01*
X150778571Y-66691160D02*
X149350000Y-66691160D01*
X150207143Y-65834017D02*
X150778571Y-68405446D01*
X149540476Y-67548303D02*
X150969047Y-67548303D01*
X150111904Y-68405446D02*
X149540476Y-65834017D01*
X148873809Y-66024494D02*
X147635714Y-66024494D01*
X147635714Y-66024494D02*
X148302381Y-66786398D01*
X148302381Y-66786398D02*
X148016666Y-66786398D01*
X148016666Y-66786398D02*
X147826190Y-66881636D01*
X147826190Y-66881636D02*
X147730952Y-66976875D01*
X147730952Y-66976875D02*
X147635714Y-67167351D01*
X147635714Y-67167351D02*
X147635714Y-67643541D01*
X147635714Y-67643541D02*
X147730952Y-67834017D01*
X147730952Y-67834017D02*
X147826190Y-67929256D01*
X147826190Y-67929256D02*
X148016666Y-68024494D01*
X148016666Y-68024494D02*
X148588095Y-68024494D01*
X148588095Y-68024494D02*
X148778571Y-67929256D01*
X148778571Y-67929256D02*
X148873809Y-67834017D01*
X145730952Y-68024494D02*
X146873809Y-68024494D01*
X146302381Y-68024494D02*
X146302381Y-66024494D01*
X146302381Y-66024494D02*
X146492857Y-66310208D01*
X146492857Y-66310208D02*
X146683333Y-66500684D01*
X146683333Y-66500684D02*
X146873809Y-66595922D01*
X144969047Y-66214970D02*
X144873809Y-66119732D01*
X144873809Y-66119732D02*
X144683333Y-66024494D01*
X144683333Y-66024494D02*
X144207142Y-66024494D01*
X144207142Y-66024494D02*
X144016666Y-66119732D01*
X144016666Y-66119732D02*
X143921428Y-66214970D01*
X143921428Y-66214970D02*
X143826190Y-66405446D01*
X143826190Y-66405446D02*
X143826190Y-66595922D01*
X143826190Y-66595922D02*
X143921428Y-66881636D01*
X143921428Y-66881636D02*
X145064285Y-68024494D01*
X145064285Y-68024494D02*
X143826190Y-68024494D01*
X141921428Y-68024494D02*
X143064285Y-68024494D01*
X142492857Y-68024494D02*
X142492857Y-66024494D01*
X142492857Y-66024494D02*
X142683333Y-66310208D01*
X142683333Y-66310208D02*
X142873809Y-66500684D01*
X142873809Y-66500684D02*
X143064285Y-66595922D01*
X159873810Y-70196763D02*
X159588096Y-70292001D01*
X159588096Y-70292001D02*
X159492858Y-70387239D01*
X159492858Y-70387239D02*
X159397620Y-70577715D01*
X159397620Y-70577715D02*
X159397620Y-70863429D01*
X159397620Y-70863429D02*
X159492858Y-71053905D01*
X159492858Y-71053905D02*
X159588096Y-71149144D01*
X159588096Y-71149144D02*
X159778572Y-71244382D01*
X159778572Y-71244382D02*
X160540477Y-71244382D01*
X160540477Y-71244382D02*
X160540477Y-69244382D01*
X160540477Y-69244382D02*
X159873810Y-69244382D01*
X159873810Y-69244382D02*
X159683334Y-69339620D01*
X159683334Y-69339620D02*
X159588096Y-69434858D01*
X159588096Y-69434858D02*
X159492858Y-69625334D01*
X159492858Y-69625334D02*
X159492858Y-69815810D01*
X159492858Y-69815810D02*
X159588096Y-70006286D01*
X159588096Y-70006286D02*
X159683334Y-70101524D01*
X159683334Y-70101524D02*
X159873810Y-70196763D01*
X159873810Y-70196763D02*
X160540477Y-70196763D01*
X157683334Y-71244382D02*
X157683334Y-70196763D01*
X157683334Y-70196763D02*
X157778572Y-70006286D01*
X157778572Y-70006286D02*
X157969048Y-69911048D01*
X157969048Y-69911048D02*
X158350001Y-69911048D01*
X158350001Y-69911048D02*
X158540477Y-70006286D01*
X157683334Y-71149144D02*
X157873810Y-71244382D01*
X157873810Y-71244382D02*
X158350001Y-71244382D01*
X158350001Y-71244382D02*
X158540477Y-71149144D01*
X158540477Y-71149144D02*
X158635715Y-70958667D01*
X158635715Y-70958667D02*
X158635715Y-70768191D01*
X158635715Y-70768191D02*
X158540477Y-70577715D01*
X158540477Y-70577715D02*
X158350001Y-70482477D01*
X158350001Y-70482477D02*
X157873810Y-70482477D01*
X157873810Y-70482477D02*
X157683334Y-70387239D01*
X156730953Y-71244382D02*
X156730953Y-69911048D01*
X156730953Y-70101524D02*
X156635715Y-70006286D01*
X156635715Y-70006286D02*
X156445239Y-69911048D01*
X156445239Y-69911048D02*
X156159524Y-69911048D01*
X156159524Y-69911048D02*
X155969048Y-70006286D01*
X155969048Y-70006286D02*
X155873810Y-70196763D01*
X155873810Y-70196763D02*
X155873810Y-71244382D01*
X155873810Y-70196763D02*
X155778572Y-70006286D01*
X155778572Y-70006286D02*
X155588096Y-69911048D01*
X155588096Y-69911048D02*
X155302382Y-69911048D01*
X155302382Y-69911048D02*
X155111905Y-70006286D01*
X155111905Y-70006286D02*
X155016667Y-70196763D01*
X155016667Y-70196763D02*
X155016667Y-71244382D01*
X153207143Y-71244382D02*
X153207143Y-70196763D01*
X153207143Y-70196763D02*
X153302381Y-70006286D01*
X153302381Y-70006286D02*
X153492857Y-69911048D01*
X153492857Y-69911048D02*
X153873810Y-69911048D01*
X153873810Y-69911048D02*
X154064286Y-70006286D01*
X153207143Y-71149144D02*
X153397619Y-71244382D01*
X153397619Y-71244382D02*
X153873810Y-71244382D01*
X153873810Y-71244382D02*
X154064286Y-71149144D01*
X154064286Y-71149144D02*
X154159524Y-70958667D01*
X154159524Y-70958667D02*
X154159524Y-70768191D01*
X154159524Y-70768191D02*
X154064286Y-70577715D01*
X154064286Y-70577715D02*
X153873810Y-70482477D01*
X153873810Y-70482477D02*
X153397619Y-70482477D01*
X153397619Y-70482477D02*
X153207143Y-70387239D01*
X152254762Y-69911048D02*
X152254762Y-71244382D01*
X152254762Y-70101524D02*
X152159524Y-70006286D01*
X152159524Y-70006286D02*
X151969048Y-69911048D01*
X151969048Y-69911048D02*
X151683333Y-69911048D01*
X151683333Y-69911048D02*
X151492857Y-70006286D01*
X151492857Y-70006286D02*
X151397619Y-70196763D01*
X151397619Y-70196763D02*
X151397619Y-71244382D01*
X150730952Y-69911048D02*
X149969048Y-69911048D01*
X150445238Y-69244382D02*
X150445238Y-70958667D01*
X150445238Y-70958667D02*
X150350000Y-71149144D01*
X150350000Y-71149144D02*
X150159524Y-71244382D01*
X150159524Y-71244382D02*
X149969048Y-71244382D01*
X148445238Y-71244382D02*
X148445238Y-70196763D01*
X148445238Y-70196763D02*
X148540476Y-70006286D01*
X148540476Y-70006286D02*
X148730952Y-69911048D01*
X148730952Y-69911048D02*
X149111905Y-69911048D01*
X149111905Y-69911048D02*
X149302381Y-70006286D01*
X148445238Y-71149144D02*
X148635714Y-71244382D01*
X148635714Y-71244382D02*
X149111905Y-71244382D01*
X149111905Y-71244382D02*
X149302381Y-71149144D01*
X149302381Y-71149144D02*
X149397619Y-70958667D01*
X149397619Y-70958667D02*
X149397619Y-70768191D01*
X149397619Y-70768191D02*
X149302381Y-70577715D01*
X149302381Y-70577715D02*
X149111905Y-70482477D01*
X149111905Y-70482477D02*
X148635714Y-70482477D01*
X148635714Y-70482477D02*
X148445238Y-70387239D01*
X147492857Y-71244382D02*
X147492857Y-69911048D01*
X147492857Y-70292001D02*
X147397619Y-70101524D01*
X147397619Y-70101524D02*
X147302381Y-70006286D01*
X147302381Y-70006286D02*
X147111905Y-69911048D01*
X147111905Y-69911048D02*
X146921428Y-69911048D01*
X145397619Y-71244382D02*
X145397619Y-70196763D01*
X145397619Y-70196763D02*
X145492857Y-70006286D01*
X145492857Y-70006286D02*
X145683333Y-69911048D01*
X145683333Y-69911048D02*
X146064286Y-69911048D01*
X146064286Y-69911048D02*
X146254762Y-70006286D01*
X145397619Y-71149144D02*
X145588095Y-71244382D01*
X145588095Y-71244382D02*
X146064286Y-71244382D01*
X146064286Y-71244382D02*
X146254762Y-71149144D01*
X146254762Y-71149144D02*
X146350000Y-70958667D01*
X146350000Y-70958667D02*
X146350000Y-70768191D01*
X146350000Y-70768191D02*
X146254762Y-70577715D01*
X146254762Y-70577715D02*
X146064286Y-70482477D01*
X146064286Y-70482477D02*
X145588095Y-70482477D01*
X145588095Y-70482477D02*
X145397619Y-70387239D01*
X142921428Y-70196763D02*
X142254761Y-70196763D01*
X141969047Y-71244382D02*
X142921428Y-71244382D01*
X142921428Y-71244382D02*
X142921428Y-69244382D01*
X142921428Y-69244382D02*
X141969047Y-69244382D01*
X141111904Y-70196763D02*
X140445237Y-70196763D01*
X140159523Y-71244382D02*
X141111904Y-71244382D01*
X141111904Y-71244382D02*
X141111904Y-69244382D01*
X141111904Y-69244382D02*
X140159523Y-69244382D01*
X139302380Y-71244382D02*
X139302380Y-69244382D01*
X139302380Y-69244382D02*
X138540475Y-69244382D01*
X138540475Y-69244382D02*
X138349999Y-69339620D01*
X138349999Y-69339620D02*
X138254761Y-69434858D01*
X138254761Y-69434858D02*
X138159523Y-69625334D01*
X138159523Y-69625334D02*
X138159523Y-69911048D01*
X138159523Y-69911048D02*
X138254761Y-70101524D01*
X138254761Y-70101524D02*
X138349999Y-70196763D01*
X138349999Y-70196763D02*
X138540475Y-70292001D01*
X138540475Y-70292001D02*
X139302380Y-70292001D01*
X137302380Y-71244382D02*
X137302380Y-69244382D01*
X136445237Y-71149144D02*
X136159523Y-71244382D01*
X136159523Y-71244382D02*
X135683332Y-71244382D01*
X135683332Y-71244382D02*
X135492856Y-71149144D01*
X135492856Y-71149144D02*
X135397618Y-71053905D01*
X135397618Y-71053905D02*
X135302380Y-70863429D01*
X135302380Y-70863429D02*
X135302380Y-70672953D01*
X135302380Y-70672953D02*
X135397618Y-70482477D01*
X135397618Y-70482477D02*
X135492856Y-70387239D01*
X135492856Y-70387239D02*
X135683332Y-70292001D01*
X135683332Y-70292001D02*
X136064285Y-70196763D01*
X136064285Y-70196763D02*
X136254761Y-70101524D01*
X136254761Y-70101524D02*
X136349999Y-70006286D01*
X136349999Y-70006286D02*
X136445237Y-69815810D01*
X136445237Y-69815810D02*
X136445237Y-69625334D01*
X136445237Y-69625334D02*
X136349999Y-69434858D01*
X136349999Y-69434858D02*
X136254761Y-69339620D01*
X136254761Y-69339620D02*
X136064285Y-69244382D01*
X136064285Y-69244382D02*
X135588094Y-69244382D01*
X135588094Y-69244382D02*
X135302380Y-69339620D01*
X134540475Y-70672953D02*
X133588094Y-70672953D01*
X134730951Y-71244382D02*
X134064285Y-69244382D01*
X134064285Y-69244382D02*
X133397618Y-71244382D01*
X133016665Y-69244382D02*
X131873808Y-69244382D01*
X132445237Y-71244382D02*
X132445237Y-69244382D01*
D11*
X180933238Y-114240713D02*
X180873715Y-114300237D01*
X180873715Y-114300237D02*
X180814191Y-114478808D01*
X180814191Y-114478808D02*
X180814191Y-114597856D01*
X180814191Y-114597856D02*
X180873715Y-114776427D01*
X180873715Y-114776427D02*
X180992762Y-114895475D01*
X180992762Y-114895475D02*
X181111810Y-114954998D01*
X181111810Y-114954998D02*
X181349905Y-115014522D01*
X181349905Y-115014522D02*
X181528476Y-115014522D01*
X181528476Y-115014522D02*
X181766572Y-114954998D01*
X181766572Y-114954998D02*
X181885619Y-114895475D01*
X181885619Y-114895475D02*
X182004667Y-114776427D01*
X182004667Y-114776427D02*
X182064191Y-114597856D01*
X182064191Y-114597856D02*
X182064191Y-114478808D01*
X182064191Y-114478808D02*
X182004667Y-114300237D01*
X182004667Y-114300237D02*
X181945143Y-114240713D01*
X180814191Y-113169284D02*
X181468953Y-113169284D01*
X181468953Y-113169284D02*
X181588000Y-113228808D01*
X181588000Y-113228808D02*
X181647524Y-113347856D01*
X181647524Y-113347856D02*
X181647524Y-113585951D01*
X181647524Y-113585951D02*
X181588000Y-113704998D01*
X180873715Y-113169284D02*
X180814191Y-113288332D01*
X180814191Y-113288332D02*
X180814191Y-113585951D01*
X180814191Y-113585951D02*
X180873715Y-113704998D01*
X180873715Y-113704998D02*
X180992762Y-113764522D01*
X180992762Y-113764522D02*
X181111810Y-113764522D01*
X181111810Y-113764522D02*
X181230857Y-113704998D01*
X181230857Y-113704998D02*
X181290381Y-113585951D01*
X181290381Y-113585951D02*
X181290381Y-113288332D01*
X181290381Y-113288332D02*
X181349905Y-113169284D01*
X181647524Y-112574046D02*
X180814191Y-112574046D01*
X181528476Y-112574046D02*
X181588000Y-112514523D01*
X181588000Y-112514523D02*
X181647524Y-112395475D01*
X181647524Y-112395475D02*
X181647524Y-112216904D01*
X181647524Y-112216904D02*
X181588000Y-112097856D01*
X181588000Y-112097856D02*
X181468953Y-112038332D01*
X181468953Y-112038332D02*
X180814191Y-112038332D01*
X180873715Y-111502618D02*
X180814191Y-111324047D01*
X180814191Y-111324047D02*
X180814191Y-111026428D01*
X180814191Y-111026428D02*
X180873715Y-110907380D01*
X180873715Y-110907380D02*
X180933238Y-110847856D01*
X180933238Y-110847856D02*
X181052286Y-110788333D01*
X181052286Y-110788333D02*
X181171334Y-110788333D01*
X181171334Y-110788333D02*
X181290381Y-110847856D01*
X181290381Y-110847856D02*
X181349905Y-110907380D01*
X181349905Y-110907380D02*
X181409429Y-111026428D01*
X181409429Y-111026428D02*
X181468953Y-111264523D01*
X181468953Y-111264523D02*
X181528476Y-111383571D01*
X181528476Y-111383571D02*
X181588000Y-111443094D01*
X181588000Y-111443094D02*
X181707048Y-111502618D01*
X181707048Y-111502618D02*
X181826095Y-111502618D01*
X181826095Y-111502618D02*
X181945143Y-111443094D01*
X181945143Y-111443094D02*
X182004667Y-111383571D01*
X182004667Y-111383571D02*
X182064191Y-111264523D01*
X182064191Y-111264523D02*
X182064191Y-110966904D01*
X182064191Y-110966904D02*
X182004667Y-110788333D01*
X180814191Y-109716904D02*
X181468953Y-109716904D01*
X181468953Y-109716904D02*
X181588000Y-109776428D01*
X181588000Y-109776428D02*
X181647524Y-109895476D01*
X181647524Y-109895476D02*
X181647524Y-110133571D01*
X181647524Y-110133571D02*
X181588000Y-110252618D01*
X180873715Y-109716904D02*
X180814191Y-109835952D01*
X180814191Y-109835952D02*
X180814191Y-110133571D01*
X180814191Y-110133571D02*
X180873715Y-110252618D01*
X180873715Y-110252618D02*
X180992762Y-110312142D01*
X180992762Y-110312142D02*
X181111810Y-110312142D01*
X181111810Y-110312142D02*
X181230857Y-110252618D01*
X181230857Y-110252618D02*
X181290381Y-110133571D01*
X181290381Y-110133571D02*
X181290381Y-109835952D01*
X181290381Y-109835952D02*
X181349905Y-109716904D01*
X181647524Y-109300238D02*
X181647524Y-108824047D01*
X182064191Y-109121666D02*
X180992762Y-109121666D01*
X180992762Y-109121666D02*
X180873715Y-109062143D01*
X180873715Y-109062143D02*
X180814191Y-108943095D01*
X180814191Y-108943095D02*
X180814191Y-108824047D01*
X180933238Y-106740714D02*
X180873715Y-106800238D01*
X180873715Y-106800238D02*
X180814191Y-106978809D01*
X180814191Y-106978809D02*
X180814191Y-107097857D01*
X180814191Y-107097857D02*
X180873715Y-107276428D01*
X180873715Y-107276428D02*
X180992762Y-107395476D01*
X180992762Y-107395476D02*
X181111810Y-107454999D01*
X181111810Y-107454999D02*
X181349905Y-107514523D01*
X181349905Y-107514523D02*
X181528476Y-107514523D01*
X181528476Y-107514523D02*
X181766572Y-107454999D01*
X181766572Y-107454999D02*
X181885619Y-107395476D01*
X181885619Y-107395476D02*
X182004667Y-107276428D01*
X182004667Y-107276428D02*
X182064191Y-107097857D01*
X182064191Y-107097857D02*
X182064191Y-106978809D01*
X182064191Y-106978809D02*
X182004667Y-106800238D01*
X182004667Y-106800238D02*
X181945143Y-106740714D01*
X180814191Y-106026428D02*
X180873715Y-106145476D01*
X180873715Y-106145476D02*
X180933238Y-106204999D01*
X180933238Y-106204999D02*
X181052286Y-106264523D01*
X181052286Y-106264523D02*
X181409429Y-106264523D01*
X181409429Y-106264523D02*
X181528476Y-106204999D01*
X181528476Y-106204999D02*
X181588000Y-106145476D01*
X181588000Y-106145476D02*
X181647524Y-106026428D01*
X181647524Y-106026428D02*
X181647524Y-105847857D01*
X181647524Y-105847857D02*
X181588000Y-105728809D01*
X181588000Y-105728809D02*
X181528476Y-105669285D01*
X181528476Y-105669285D02*
X181409429Y-105609761D01*
X181409429Y-105609761D02*
X181052286Y-105609761D01*
X181052286Y-105609761D02*
X180933238Y-105669285D01*
X180933238Y-105669285D02*
X180873715Y-105728809D01*
X180873715Y-105728809D02*
X180814191Y-105847857D01*
X180814191Y-105847857D02*
X180814191Y-106026428D01*
X180814191Y-105074047D02*
X181647524Y-105074047D01*
X181528476Y-105074047D02*
X181588000Y-105014524D01*
X181588000Y-105014524D02*
X181647524Y-104895476D01*
X181647524Y-104895476D02*
X181647524Y-104716905D01*
X181647524Y-104716905D02*
X181588000Y-104597857D01*
X181588000Y-104597857D02*
X181468953Y-104538333D01*
X181468953Y-104538333D02*
X180814191Y-104538333D01*
X181468953Y-104538333D02*
X181588000Y-104478809D01*
X181588000Y-104478809D02*
X181647524Y-104359762D01*
X181647524Y-104359762D02*
X181647524Y-104181190D01*
X181647524Y-104181190D02*
X181588000Y-104062143D01*
X181588000Y-104062143D02*
X181468953Y-104002619D01*
X181468953Y-104002619D02*
X180814191Y-104002619D01*
X181647524Y-103407380D02*
X180397524Y-103407380D01*
X181588000Y-103407380D02*
X181647524Y-103288333D01*
X181647524Y-103288333D02*
X181647524Y-103050238D01*
X181647524Y-103050238D02*
X181588000Y-102931190D01*
X181588000Y-102931190D02*
X181528476Y-102871666D01*
X181528476Y-102871666D02*
X181409429Y-102812142D01*
X181409429Y-102812142D02*
X181052286Y-102812142D01*
X181052286Y-102812142D02*
X180933238Y-102871666D01*
X180933238Y-102871666D02*
X180873715Y-102931190D01*
X180873715Y-102931190D02*
X180814191Y-103050238D01*
X180814191Y-103050238D02*
X180814191Y-103288333D01*
X180814191Y-103288333D02*
X180873715Y-103407380D01*
X180873715Y-101800238D02*
X180814191Y-101919286D01*
X180814191Y-101919286D02*
X180814191Y-102157381D01*
X180814191Y-102157381D02*
X180873715Y-102276428D01*
X180873715Y-102276428D02*
X180992762Y-102335952D01*
X180992762Y-102335952D02*
X181468953Y-102335952D01*
X181468953Y-102335952D02*
X181588000Y-102276428D01*
X181588000Y-102276428D02*
X181647524Y-102157381D01*
X181647524Y-102157381D02*
X181647524Y-101919286D01*
X181647524Y-101919286D02*
X181588000Y-101800238D01*
X181588000Y-101800238D02*
X181468953Y-101740714D01*
X181468953Y-101740714D02*
X181349905Y-101740714D01*
X181349905Y-101740714D02*
X181230857Y-102335952D01*
X181647524Y-101383571D02*
X181647524Y-100907380D01*
X182064191Y-101204999D02*
X180992762Y-101204999D01*
X180992762Y-101204999D02*
X180873715Y-101145476D01*
X180873715Y-101145476D02*
X180814191Y-101026428D01*
X180814191Y-101026428D02*
X180814191Y-100907380D01*
X180814191Y-100490713D02*
X181647524Y-100490713D01*
X182064191Y-100490713D02*
X182004667Y-100550237D01*
X182004667Y-100550237D02*
X181945143Y-100490713D01*
X181945143Y-100490713D02*
X182004667Y-100431190D01*
X182004667Y-100431190D02*
X182064191Y-100490713D01*
X182064191Y-100490713D02*
X181945143Y-100490713D01*
X181647524Y-100074047D02*
X181647524Y-99597856D01*
X182064191Y-99895475D02*
X180992762Y-99895475D01*
X180992762Y-99895475D02*
X180873715Y-99835952D01*
X180873715Y-99835952D02*
X180814191Y-99716904D01*
X180814191Y-99716904D02*
X180814191Y-99597856D01*
X180814191Y-99181189D02*
X181647524Y-99181189D01*
X182064191Y-99181189D02*
X182004667Y-99240713D01*
X182004667Y-99240713D02*
X181945143Y-99181189D01*
X181945143Y-99181189D02*
X182004667Y-99121666D01*
X182004667Y-99121666D02*
X182064191Y-99181189D01*
X182064191Y-99181189D02*
X181945143Y-99181189D01*
X180814191Y-98407380D02*
X180873715Y-98526428D01*
X180873715Y-98526428D02*
X180933238Y-98585951D01*
X180933238Y-98585951D02*
X181052286Y-98645475D01*
X181052286Y-98645475D02*
X181409429Y-98645475D01*
X181409429Y-98645475D02*
X181528476Y-98585951D01*
X181528476Y-98585951D02*
X181588000Y-98526428D01*
X181588000Y-98526428D02*
X181647524Y-98407380D01*
X181647524Y-98407380D02*
X181647524Y-98228809D01*
X181647524Y-98228809D02*
X181588000Y-98109761D01*
X181588000Y-98109761D02*
X181528476Y-98050237D01*
X181528476Y-98050237D02*
X181409429Y-97990713D01*
X181409429Y-97990713D02*
X181052286Y-97990713D01*
X181052286Y-97990713D02*
X180933238Y-98050237D01*
X180933238Y-98050237D02*
X180873715Y-98109761D01*
X180873715Y-98109761D02*
X180814191Y-98228809D01*
X180814191Y-98228809D02*
X180814191Y-98407380D01*
X181647524Y-97454999D02*
X180814191Y-97454999D01*
X181528476Y-97454999D02*
X181588000Y-97395476D01*
X181588000Y-97395476D02*
X181647524Y-97276428D01*
X181647524Y-97276428D02*
X181647524Y-97097857D01*
X181647524Y-97097857D02*
X181588000Y-96978809D01*
X181588000Y-96978809D02*
X181468953Y-96919285D01*
X181468953Y-96919285D02*
X180814191Y-96919285D01*
X181945143Y-95431190D02*
X182004667Y-95371666D01*
X182004667Y-95371666D02*
X182064191Y-95252619D01*
X182064191Y-95252619D02*
X182064191Y-94955000D01*
X182064191Y-94955000D02*
X182004667Y-94835952D01*
X182004667Y-94835952D02*
X181945143Y-94776428D01*
X181945143Y-94776428D02*
X181826095Y-94716905D01*
X181826095Y-94716905D02*
X181707048Y-94716905D01*
X181707048Y-94716905D02*
X181528476Y-94776428D01*
X181528476Y-94776428D02*
X180814191Y-95490714D01*
X180814191Y-95490714D02*
X180814191Y-94716905D01*
X182064191Y-93943095D02*
X182064191Y-93824048D01*
X182064191Y-93824048D02*
X182004667Y-93705000D01*
X182004667Y-93705000D02*
X181945143Y-93645476D01*
X181945143Y-93645476D02*
X181826095Y-93585952D01*
X181826095Y-93585952D02*
X181588000Y-93526429D01*
X181588000Y-93526429D02*
X181290381Y-93526429D01*
X181290381Y-93526429D02*
X181052286Y-93585952D01*
X181052286Y-93585952D02*
X180933238Y-93645476D01*
X180933238Y-93645476D02*
X180873715Y-93705000D01*
X180873715Y-93705000D02*
X180814191Y-93824048D01*
X180814191Y-93824048D02*
X180814191Y-93943095D01*
X180814191Y-93943095D02*
X180873715Y-94062143D01*
X180873715Y-94062143D02*
X180933238Y-94121667D01*
X180933238Y-94121667D02*
X181052286Y-94181190D01*
X181052286Y-94181190D02*
X181290381Y-94240714D01*
X181290381Y-94240714D02*
X181588000Y-94240714D01*
X181588000Y-94240714D02*
X181826095Y-94181190D01*
X181826095Y-94181190D02*
X181945143Y-94121667D01*
X181945143Y-94121667D02*
X182004667Y-94062143D01*
X182004667Y-94062143D02*
X182064191Y-93943095D01*
X181945143Y-93050238D02*
X182004667Y-92990714D01*
X182004667Y-92990714D02*
X182064191Y-92871667D01*
X182064191Y-92871667D02*
X182064191Y-92574048D01*
X182064191Y-92574048D02*
X182004667Y-92455000D01*
X182004667Y-92455000D02*
X181945143Y-92395476D01*
X181945143Y-92395476D02*
X181826095Y-92335953D01*
X181826095Y-92335953D02*
X181707048Y-92335953D01*
X181707048Y-92335953D02*
X181528476Y-92395476D01*
X181528476Y-92395476D02*
X180814191Y-93109762D01*
X180814191Y-93109762D02*
X180814191Y-92335953D01*
X182064191Y-91205000D02*
X182064191Y-91800238D01*
X182064191Y-91800238D02*
X181468953Y-91859762D01*
X181468953Y-91859762D02*
X181528476Y-91800238D01*
X181528476Y-91800238D02*
X181588000Y-91681191D01*
X181588000Y-91681191D02*
X181588000Y-91383572D01*
X181588000Y-91383572D02*
X181528476Y-91264524D01*
X181528476Y-91264524D02*
X181468953Y-91205000D01*
X181468953Y-91205000D02*
X181349905Y-91145477D01*
X181349905Y-91145477D02*
X181052286Y-91145477D01*
X181052286Y-91145477D02*
X180933238Y-91205000D01*
X180933238Y-91205000D02*
X180873715Y-91264524D01*
X180873715Y-91264524D02*
X180814191Y-91383572D01*
X180814191Y-91383572D02*
X180814191Y-91681191D01*
X180814191Y-91681191D02*
X180873715Y-91800238D01*
X180873715Y-91800238D02*
X180933238Y-91859762D01*
X179158904Y-112663333D02*
X179158904Y-112068095D01*
X178801761Y-112782381D02*
X180051761Y-112365714D01*
X180051761Y-112365714D02*
X178801761Y-111949048D01*
X179635094Y-110996666D02*
X178801761Y-110996666D01*
X179635094Y-111532380D02*
X178980332Y-111532380D01*
X178980332Y-111532380D02*
X178861285Y-111472857D01*
X178861285Y-111472857D02*
X178801761Y-111353809D01*
X178801761Y-111353809D02*
X178801761Y-111175238D01*
X178801761Y-111175238D02*
X178861285Y-111056190D01*
X178861285Y-111056190D02*
X178920808Y-110996666D01*
X179635094Y-110580000D02*
X179635094Y-110103809D01*
X180051761Y-110401428D02*
X178980332Y-110401428D01*
X178980332Y-110401428D02*
X178861285Y-110341905D01*
X178861285Y-110341905D02*
X178801761Y-110222857D01*
X178801761Y-110222857D02*
X178801761Y-110103809D01*
X178801761Y-109508571D02*
X178861285Y-109627619D01*
X178861285Y-109627619D02*
X178920808Y-109687142D01*
X178920808Y-109687142D02*
X179039856Y-109746666D01*
X179039856Y-109746666D02*
X179396999Y-109746666D01*
X179396999Y-109746666D02*
X179516046Y-109687142D01*
X179516046Y-109687142D02*
X179575570Y-109627619D01*
X179575570Y-109627619D02*
X179635094Y-109508571D01*
X179635094Y-109508571D02*
X179635094Y-109330000D01*
X179635094Y-109330000D02*
X179575570Y-109210952D01*
X179575570Y-109210952D02*
X179516046Y-109151428D01*
X179516046Y-109151428D02*
X179396999Y-109091904D01*
X179396999Y-109091904D02*
X179039856Y-109091904D01*
X179039856Y-109091904D02*
X178920808Y-109151428D01*
X178920808Y-109151428D02*
X178861285Y-109210952D01*
X178861285Y-109210952D02*
X178801761Y-109330000D01*
X178801761Y-109330000D02*
X178801761Y-109508571D01*
X179992237Y-106949048D02*
X180051761Y-107068095D01*
X180051761Y-107068095D02*
X180051761Y-107246667D01*
X180051761Y-107246667D02*
X179992237Y-107425238D01*
X179992237Y-107425238D02*
X179873189Y-107544286D01*
X179873189Y-107544286D02*
X179754142Y-107603809D01*
X179754142Y-107603809D02*
X179516046Y-107663333D01*
X179516046Y-107663333D02*
X179337475Y-107663333D01*
X179337475Y-107663333D02*
X179099380Y-107603809D01*
X179099380Y-107603809D02*
X178980332Y-107544286D01*
X178980332Y-107544286D02*
X178861285Y-107425238D01*
X178861285Y-107425238D02*
X178801761Y-107246667D01*
X178801761Y-107246667D02*
X178801761Y-107127619D01*
X178801761Y-107127619D02*
X178861285Y-106949048D01*
X178861285Y-106949048D02*
X178920808Y-106889524D01*
X178920808Y-106889524D02*
X179337475Y-106889524D01*
X179337475Y-106889524D02*
X179337475Y-107127619D01*
X179635094Y-106472857D02*
X178801761Y-106175238D01*
X179635094Y-105877619D02*
X178801761Y-106175238D01*
X178801761Y-106175238D02*
X178504142Y-106294286D01*
X178504142Y-106294286D02*
X178444618Y-106353809D01*
X178444618Y-106353809D02*
X178385094Y-106472857D01*
X178801761Y-105401428D02*
X179635094Y-105401428D01*
X179396999Y-105401428D02*
X179516046Y-105341905D01*
X179516046Y-105341905D02*
X179575570Y-105282381D01*
X179575570Y-105282381D02*
X179635094Y-105163333D01*
X179635094Y-105163333D02*
X179635094Y-105044286D01*
X178801761Y-104449047D02*
X178861285Y-104568095D01*
X178861285Y-104568095D02*
X178920808Y-104627618D01*
X178920808Y-104627618D02*
X179039856Y-104687142D01*
X179039856Y-104687142D02*
X179396999Y-104687142D01*
X179396999Y-104687142D02*
X179516046Y-104627618D01*
X179516046Y-104627618D02*
X179575570Y-104568095D01*
X179575570Y-104568095D02*
X179635094Y-104449047D01*
X179635094Y-104449047D02*
X179635094Y-104270476D01*
X179635094Y-104270476D02*
X179575570Y-104151428D01*
X179575570Y-104151428D02*
X179516046Y-104091904D01*
X179516046Y-104091904D02*
X179396999Y-104032380D01*
X179396999Y-104032380D02*
X179039856Y-104032380D01*
X179039856Y-104032380D02*
X178920808Y-104091904D01*
X178920808Y-104091904D02*
X178861285Y-104151428D01*
X178861285Y-104151428D02*
X178801761Y-104270476D01*
X178801761Y-104270476D02*
X178801761Y-104449047D01*
X178801761Y-102544285D02*
X180051761Y-102544285D01*
X180051761Y-102544285D02*
X180051761Y-102246666D01*
X180051761Y-102246666D02*
X179992237Y-102068095D01*
X179992237Y-102068095D02*
X179873189Y-101949047D01*
X179873189Y-101949047D02*
X179754142Y-101889524D01*
X179754142Y-101889524D02*
X179516046Y-101830000D01*
X179516046Y-101830000D02*
X179337475Y-101830000D01*
X179337475Y-101830000D02*
X179099380Y-101889524D01*
X179099380Y-101889524D02*
X178980332Y-101949047D01*
X178980332Y-101949047D02*
X178861285Y-102068095D01*
X178861285Y-102068095D02*
X178801761Y-102246666D01*
X178801761Y-102246666D02*
X178801761Y-102544285D01*
X178861285Y-100818095D02*
X178801761Y-100937143D01*
X178801761Y-100937143D02*
X178801761Y-101175238D01*
X178801761Y-101175238D02*
X178861285Y-101294285D01*
X178861285Y-101294285D02*
X178980332Y-101353809D01*
X178980332Y-101353809D02*
X179456523Y-101353809D01*
X179456523Y-101353809D02*
X179575570Y-101294285D01*
X179575570Y-101294285D02*
X179635094Y-101175238D01*
X179635094Y-101175238D02*
X179635094Y-100937143D01*
X179635094Y-100937143D02*
X179575570Y-100818095D01*
X179575570Y-100818095D02*
X179456523Y-100758571D01*
X179456523Y-100758571D02*
X179337475Y-100758571D01*
X179337475Y-100758571D02*
X179218427Y-101353809D01*
X178861285Y-100282380D02*
X178801761Y-100163333D01*
X178801761Y-100163333D02*
X178801761Y-99925237D01*
X178801761Y-99925237D02*
X178861285Y-99806190D01*
X178861285Y-99806190D02*
X178980332Y-99746666D01*
X178980332Y-99746666D02*
X179039856Y-99746666D01*
X179039856Y-99746666D02*
X179158904Y-99806190D01*
X179158904Y-99806190D02*
X179218427Y-99925237D01*
X179218427Y-99925237D02*
X179218427Y-100103809D01*
X179218427Y-100103809D02*
X179277951Y-100222856D01*
X179277951Y-100222856D02*
X179396999Y-100282380D01*
X179396999Y-100282380D02*
X179456523Y-100282380D01*
X179456523Y-100282380D02*
X179575570Y-100222856D01*
X179575570Y-100222856D02*
X179635094Y-100103809D01*
X179635094Y-100103809D02*
X179635094Y-99925237D01*
X179635094Y-99925237D02*
X179575570Y-99806190D01*
X178861285Y-98675237D02*
X178801761Y-98794285D01*
X178801761Y-98794285D02*
X178801761Y-99032380D01*
X178801761Y-99032380D02*
X178861285Y-99151428D01*
X178861285Y-99151428D02*
X178920808Y-99210951D01*
X178920808Y-99210951D02*
X179039856Y-99270475D01*
X179039856Y-99270475D02*
X179396999Y-99270475D01*
X179396999Y-99270475D02*
X179516046Y-99210951D01*
X179516046Y-99210951D02*
X179575570Y-99151428D01*
X179575570Y-99151428D02*
X179635094Y-99032380D01*
X179635094Y-99032380D02*
X179635094Y-98794285D01*
X179635094Y-98794285D02*
X179575570Y-98675237D01*
X178861285Y-97663332D02*
X178801761Y-97782380D01*
X178801761Y-97782380D02*
X178801761Y-98020475D01*
X178801761Y-98020475D02*
X178861285Y-98139522D01*
X178861285Y-98139522D02*
X178980332Y-98199046D01*
X178980332Y-98199046D02*
X179456523Y-98199046D01*
X179456523Y-98199046D02*
X179575570Y-98139522D01*
X179575570Y-98139522D02*
X179635094Y-98020475D01*
X179635094Y-98020475D02*
X179635094Y-97782380D01*
X179635094Y-97782380D02*
X179575570Y-97663332D01*
X179575570Y-97663332D02*
X179456523Y-97603808D01*
X179456523Y-97603808D02*
X179337475Y-97603808D01*
X179337475Y-97603808D02*
X179218427Y-98199046D01*
X179635094Y-97068093D02*
X178801761Y-97068093D01*
X179516046Y-97068093D02*
X179575570Y-97008570D01*
X179575570Y-97008570D02*
X179635094Y-96889522D01*
X179635094Y-96889522D02*
X179635094Y-96710951D01*
X179635094Y-96710951D02*
X179575570Y-96591903D01*
X179575570Y-96591903D02*
X179456523Y-96532379D01*
X179456523Y-96532379D02*
X178801761Y-96532379D01*
X178801761Y-95401427D02*
X180051761Y-95401427D01*
X178861285Y-95401427D02*
X178801761Y-95520475D01*
X178801761Y-95520475D02*
X178801761Y-95758570D01*
X178801761Y-95758570D02*
X178861285Y-95877618D01*
X178861285Y-95877618D02*
X178920808Y-95937141D01*
X178920808Y-95937141D02*
X179039856Y-95996665D01*
X179039856Y-95996665D02*
X179396999Y-95996665D01*
X179396999Y-95996665D02*
X179516046Y-95937141D01*
X179516046Y-95937141D02*
X179575570Y-95877618D01*
X179575570Y-95877618D02*
X179635094Y-95758570D01*
X179635094Y-95758570D02*
X179635094Y-95520475D01*
X179635094Y-95520475D02*
X179575570Y-95401427D01*
X178861285Y-94329999D02*
X178801761Y-94449047D01*
X178801761Y-94449047D02*
X178801761Y-94687142D01*
X178801761Y-94687142D02*
X178861285Y-94806189D01*
X178861285Y-94806189D02*
X178980332Y-94865713D01*
X178980332Y-94865713D02*
X179456523Y-94865713D01*
X179456523Y-94865713D02*
X179575570Y-94806189D01*
X179575570Y-94806189D02*
X179635094Y-94687142D01*
X179635094Y-94687142D02*
X179635094Y-94449047D01*
X179635094Y-94449047D02*
X179575570Y-94329999D01*
X179575570Y-94329999D02*
X179456523Y-94270475D01*
X179456523Y-94270475D02*
X179337475Y-94270475D01*
X179337475Y-94270475D02*
X179218427Y-94865713D01*
X178801761Y-93734760D02*
X179635094Y-93734760D01*
X179396999Y-93734760D02*
X179516046Y-93675237D01*
X179516046Y-93675237D02*
X179575570Y-93615713D01*
X179575570Y-93615713D02*
X179635094Y-93496665D01*
X179635094Y-93496665D02*
X179635094Y-93377618D01*
D12*
X162887543Y-95736535D02*
X162923257Y-95772250D01*
X162923257Y-95772250D02*
X163030400Y-95807964D01*
X163030400Y-95807964D02*
X163101828Y-95807964D01*
X163101828Y-95807964D02*
X163208971Y-95772250D01*
X163208971Y-95772250D02*
X163280400Y-95700821D01*
X163280400Y-95700821D02*
X163316114Y-95629392D01*
X163316114Y-95629392D02*
X163351828Y-95486535D01*
X163351828Y-95486535D02*
X163351828Y-95379392D01*
X163351828Y-95379392D02*
X163316114Y-95236535D01*
X163316114Y-95236535D02*
X163280400Y-95165107D01*
X163280400Y-95165107D02*
X163208971Y-95093678D01*
X163208971Y-95093678D02*
X163101828Y-95057964D01*
X163101828Y-95057964D02*
X163030400Y-95057964D01*
X163030400Y-95057964D02*
X162923257Y-95093678D01*
X162923257Y-95093678D02*
X162887543Y-95129392D01*
X162173257Y-95807964D02*
X162601828Y-95807964D01*
X162387543Y-95807964D02*
X162387543Y-95057964D01*
X162387543Y-95057964D02*
X162458971Y-95165107D01*
X162458971Y-95165107D02*
X162530400Y-95236535D01*
X162530400Y-95236535D02*
X162601828Y-95272250D01*
X161458971Y-95807964D02*
X161887542Y-95807964D01*
X161673257Y-95807964D02*
X161673257Y-95057964D01*
X161673257Y-95057964D02*
X161744685Y-95165107D01*
X161744685Y-95165107D02*
X161816114Y-95236535D01*
X161816114Y-95236535D02*
X161887542Y-95272250D01*
X149497845Y-141055207D02*
X149390702Y-141090921D01*
X149390702Y-141090921D02*
X149354988Y-141126635D01*
X149354988Y-141126635D02*
X149319274Y-141198064D01*
X149319274Y-141198064D02*
X149319274Y-141305207D01*
X149319274Y-141305207D02*
X149354988Y-141376635D01*
X149354988Y-141376635D02*
X149390702Y-141412350D01*
X149390702Y-141412350D02*
X149462131Y-141448064D01*
X149462131Y-141448064D02*
X149747845Y-141448064D01*
X149747845Y-141448064D02*
X149747845Y-140698064D01*
X149747845Y-140698064D02*
X149497845Y-140698064D01*
X149497845Y-140698064D02*
X149426417Y-140733778D01*
X149426417Y-140733778D02*
X149390702Y-140769492D01*
X149390702Y-140769492D02*
X149354988Y-140840921D01*
X149354988Y-140840921D02*
X149354988Y-140912350D01*
X149354988Y-140912350D02*
X149390702Y-140983778D01*
X149390702Y-140983778D02*
X149426417Y-141019492D01*
X149426417Y-141019492D02*
X149497845Y-141055207D01*
X149497845Y-141055207D02*
X149747845Y-141055207D01*
X149104988Y-140698064D02*
X148676417Y-140698064D01*
X148890702Y-141448064D02*
X148890702Y-140698064D01*
X148033559Y-141448064D02*
X148462130Y-141448064D01*
X148247845Y-141448064D02*
X148247845Y-140698064D01*
X148247845Y-140698064D02*
X148319273Y-140805207D01*
X148319273Y-140805207D02*
X148390702Y-140876635D01*
X148390702Y-140876635D02*
X148462130Y-140912350D01*
X148685335Y-95684999D02*
X148721050Y-95649285D01*
X148721050Y-95649285D02*
X148756764Y-95542142D01*
X148756764Y-95542142D02*
X148756764Y-95470714D01*
X148756764Y-95470714D02*
X148721050Y-95363571D01*
X148721050Y-95363571D02*
X148649621Y-95292142D01*
X148649621Y-95292142D02*
X148578192Y-95256428D01*
X148578192Y-95256428D02*
X148435335Y-95220714D01*
X148435335Y-95220714D02*
X148328192Y-95220714D01*
X148328192Y-95220714D02*
X148185335Y-95256428D01*
X148185335Y-95256428D02*
X148113907Y-95292142D01*
X148113907Y-95292142D02*
X148042478Y-95363571D01*
X148042478Y-95363571D02*
X148006764Y-95470714D01*
X148006764Y-95470714D02*
X148006764Y-95542142D01*
X148006764Y-95542142D02*
X148042478Y-95649285D01*
X148042478Y-95649285D02*
X148078192Y-95684999D01*
X148756764Y-96042142D02*
X148756764Y-96184999D01*
X148756764Y-96184999D02*
X148721050Y-96256428D01*
X148721050Y-96256428D02*
X148685335Y-96292142D01*
X148685335Y-96292142D02*
X148578192Y-96363571D01*
X148578192Y-96363571D02*
X148435335Y-96399285D01*
X148435335Y-96399285D02*
X148149621Y-96399285D01*
X148149621Y-96399285D02*
X148078192Y-96363571D01*
X148078192Y-96363571D02*
X148042478Y-96327857D01*
X148042478Y-96327857D02*
X148006764Y-96256428D01*
X148006764Y-96256428D02*
X148006764Y-96113571D01*
X148006764Y-96113571D02*
X148042478Y-96042142D01*
X148042478Y-96042142D02*
X148078192Y-96006428D01*
X148078192Y-96006428D02*
X148149621Y-95970714D01*
X148149621Y-95970714D02*
X148328192Y-95970714D01*
X148328192Y-95970714D02*
X148399621Y-96006428D01*
X148399621Y-96006428D02*
X148435335Y-96042142D01*
X148435335Y-96042142D02*
X148471050Y-96113571D01*
X148471050Y-96113571D02*
X148471050Y-96256428D01*
X148471050Y-96256428D02*
X148435335Y-96327857D01*
X148435335Y-96327857D02*
X148399621Y-96363571D01*
X148399621Y-96363571D02*
X148328192Y-96399285D01*
X133285264Y-103016356D02*
X132928121Y-102766356D01*
X133285264Y-102587785D02*
X132535264Y-102587785D01*
X132535264Y-102587785D02*
X132535264Y-102873499D01*
X132535264Y-102873499D02*
X132570978Y-102944928D01*
X132570978Y-102944928D02*
X132606692Y-102980642D01*
X132606692Y-102980642D02*
X132678121Y-103016356D01*
X132678121Y-103016356D02*
X132785264Y-103016356D01*
X132785264Y-103016356D02*
X132856692Y-102980642D01*
X132856692Y-102980642D02*
X132892407Y-102944928D01*
X132892407Y-102944928D02*
X132928121Y-102873499D01*
X132928121Y-102873499D02*
X132928121Y-102587785D01*
X132535264Y-103266356D02*
X132535264Y-103730642D01*
X132535264Y-103730642D02*
X132820978Y-103480642D01*
X132820978Y-103480642D02*
X132820978Y-103587785D01*
X132820978Y-103587785D02*
X132856692Y-103659214D01*
X132856692Y-103659214D02*
X132892407Y-103694928D01*
X132892407Y-103694928D02*
X132963835Y-103730642D01*
X132963835Y-103730642D02*
X133142407Y-103730642D01*
X133142407Y-103730642D02*
X133213835Y-103694928D01*
X133213835Y-103694928D02*
X133249550Y-103659214D01*
X133249550Y-103659214D02*
X133285264Y-103587785D01*
X133285264Y-103587785D02*
X133285264Y-103373499D01*
X133285264Y-103373499D02*
X133249550Y-103302071D01*
X133249550Y-103302071D02*
X133213835Y-103266356D01*
X133285264Y-104444928D02*
X133285264Y-104016357D01*
X133285264Y-104230642D02*
X132535264Y-104230642D01*
X132535264Y-104230642D02*
X132642407Y-104159214D01*
X132642407Y-104159214D02*
X132713835Y-104087785D01*
X132713835Y-104087785D02*
X132749550Y-104016357D01*
X159691764Y-120233928D02*
X158941764Y-120233928D01*
X158941764Y-120233928D02*
X158941764Y-120412499D01*
X158941764Y-120412499D02*
X158977478Y-120519642D01*
X158977478Y-120519642D02*
X159048907Y-120591071D01*
X159048907Y-120591071D02*
X159120335Y-120626785D01*
X159120335Y-120626785D02*
X159263192Y-120662499D01*
X159263192Y-120662499D02*
X159370335Y-120662499D01*
X159370335Y-120662499D02*
X159513192Y-120626785D01*
X159513192Y-120626785D02*
X159584621Y-120591071D01*
X159584621Y-120591071D02*
X159656050Y-120519642D01*
X159656050Y-120519642D02*
X159691764Y-120412499D01*
X159691764Y-120412499D02*
X159691764Y-120233928D01*
X159691764Y-121376785D02*
X159691764Y-120948214D01*
X159691764Y-121162499D02*
X158941764Y-121162499D01*
X158941764Y-121162499D02*
X159048907Y-121091071D01*
X159048907Y-121091071D02*
X159120335Y-121019642D01*
X159120335Y-121019642D02*
X159156050Y-120948214D01*
X152512143Y-105760335D02*
X152547857Y-105796050D01*
X152547857Y-105796050D02*
X152655000Y-105831764D01*
X152655000Y-105831764D02*
X152726428Y-105831764D01*
X152726428Y-105831764D02*
X152833571Y-105796050D01*
X152833571Y-105796050D02*
X152905000Y-105724621D01*
X152905000Y-105724621D02*
X152940714Y-105653192D01*
X152940714Y-105653192D02*
X152976428Y-105510335D01*
X152976428Y-105510335D02*
X152976428Y-105403192D01*
X152976428Y-105403192D02*
X152940714Y-105260335D01*
X152940714Y-105260335D02*
X152905000Y-105188907D01*
X152905000Y-105188907D02*
X152833571Y-105117478D01*
X152833571Y-105117478D02*
X152726428Y-105081764D01*
X152726428Y-105081764D02*
X152655000Y-105081764D01*
X152655000Y-105081764D02*
X152547857Y-105117478D01*
X152547857Y-105117478D02*
X152512143Y-105153192D01*
X151797857Y-105831764D02*
X152226428Y-105831764D01*
X152012143Y-105831764D02*
X152012143Y-105081764D01*
X152012143Y-105081764D02*
X152083571Y-105188907D01*
X152083571Y-105188907D02*
X152155000Y-105260335D01*
X152155000Y-105260335D02*
X152226428Y-105296050D01*
X151333571Y-105081764D02*
X151262142Y-105081764D01*
X151262142Y-105081764D02*
X151190714Y-105117478D01*
X151190714Y-105117478D02*
X151155000Y-105153192D01*
X151155000Y-105153192D02*
X151119285Y-105224621D01*
X151119285Y-105224621D02*
X151083571Y-105367478D01*
X151083571Y-105367478D02*
X151083571Y-105546050D01*
X151083571Y-105546050D02*
X151119285Y-105688907D01*
X151119285Y-105688907D02*
X151155000Y-105760335D01*
X151155000Y-105760335D02*
X151190714Y-105796050D01*
X151190714Y-105796050D02*
X151262142Y-105831764D01*
X151262142Y-105831764D02*
X151333571Y-105831764D01*
X151333571Y-105831764D02*
X151405000Y-105796050D01*
X151405000Y-105796050D02*
X151440714Y-105760335D01*
X151440714Y-105760335D02*
X151476428Y-105688907D01*
X151476428Y-105688907D02*
X151512142Y-105546050D01*
X151512142Y-105546050D02*
X151512142Y-105367478D01*
X151512142Y-105367478D02*
X151476428Y-105224621D01*
X151476428Y-105224621D02*
X151440714Y-105153192D01*
X151440714Y-105153192D02*
X151405000Y-105117478D01*
X151405000Y-105117478D02*
X151333571Y-105081764D01*
X146452143Y-85320335D02*
X146487857Y-85356050D01*
X146487857Y-85356050D02*
X146595000Y-85391764D01*
X146595000Y-85391764D02*
X146666428Y-85391764D01*
X146666428Y-85391764D02*
X146773571Y-85356050D01*
X146773571Y-85356050D02*
X146845000Y-85284621D01*
X146845000Y-85284621D02*
X146880714Y-85213192D01*
X146880714Y-85213192D02*
X146916428Y-85070335D01*
X146916428Y-85070335D02*
X146916428Y-84963192D01*
X146916428Y-84963192D02*
X146880714Y-84820335D01*
X146880714Y-84820335D02*
X146845000Y-84748907D01*
X146845000Y-84748907D02*
X146773571Y-84677478D01*
X146773571Y-84677478D02*
X146666428Y-84641764D01*
X146666428Y-84641764D02*
X146595000Y-84641764D01*
X146595000Y-84641764D02*
X146487857Y-84677478D01*
X146487857Y-84677478D02*
X146452143Y-84713192D01*
X146166428Y-84713192D02*
X146130714Y-84677478D01*
X146130714Y-84677478D02*
X146059286Y-84641764D01*
X146059286Y-84641764D02*
X145880714Y-84641764D01*
X145880714Y-84641764D02*
X145809286Y-84677478D01*
X145809286Y-84677478D02*
X145773571Y-84713192D01*
X145773571Y-84713192D02*
X145737857Y-84784621D01*
X145737857Y-84784621D02*
X145737857Y-84856050D01*
X145737857Y-84856050D02*
X145773571Y-84963192D01*
X145773571Y-84963192D02*
X146202143Y-85391764D01*
X146202143Y-85391764D02*
X145737857Y-85391764D01*
X145095000Y-84641764D02*
X145237857Y-84641764D01*
X145237857Y-84641764D02*
X145309285Y-84677478D01*
X145309285Y-84677478D02*
X145345000Y-84713192D01*
X145345000Y-84713192D02*
X145416428Y-84820335D01*
X145416428Y-84820335D02*
X145452142Y-84963192D01*
X145452142Y-84963192D02*
X145452142Y-85248907D01*
X145452142Y-85248907D02*
X145416428Y-85320335D01*
X145416428Y-85320335D02*
X145380714Y-85356050D01*
X145380714Y-85356050D02*
X145309285Y-85391764D01*
X145309285Y-85391764D02*
X145166428Y-85391764D01*
X145166428Y-85391764D02*
X145095000Y-85356050D01*
X145095000Y-85356050D02*
X145059285Y-85320335D01*
X145059285Y-85320335D02*
X145023571Y-85248907D01*
X145023571Y-85248907D02*
X145023571Y-85070335D01*
X145023571Y-85070335D02*
X145059285Y-84998907D01*
X145059285Y-84998907D02*
X145095000Y-84963192D01*
X145095000Y-84963192D02*
X145166428Y-84927478D01*
X145166428Y-84927478D02*
X145309285Y-84927478D01*
X145309285Y-84927478D02*
X145380714Y-84963192D01*
X145380714Y-84963192D02*
X145416428Y-84998907D01*
X145416428Y-84998907D02*
X145452142Y-85070335D01*
X163992143Y-125340335D02*
X164027857Y-125376050D01*
X164027857Y-125376050D02*
X164135000Y-125411764D01*
X164135000Y-125411764D02*
X164206428Y-125411764D01*
X164206428Y-125411764D02*
X164313571Y-125376050D01*
X164313571Y-125376050D02*
X164385000Y-125304621D01*
X164385000Y-125304621D02*
X164420714Y-125233192D01*
X164420714Y-125233192D02*
X164456428Y-125090335D01*
X164456428Y-125090335D02*
X164456428Y-124983192D01*
X164456428Y-124983192D02*
X164420714Y-124840335D01*
X164420714Y-124840335D02*
X164385000Y-124768907D01*
X164385000Y-124768907D02*
X164313571Y-124697478D01*
X164313571Y-124697478D02*
X164206428Y-124661764D01*
X164206428Y-124661764D02*
X164135000Y-124661764D01*
X164135000Y-124661764D02*
X164027857Y-124697478D01*
X164027857Y-124697478D02*
X163992143Y-124733192D01*
X163706428Y-124733192D02*
X163670714Y-124697478D01*
X163670714Y-124697478D02*
X163599286Y-124661764D01*
X163599286Y-124661764D02*
X163420714Y-124661764D01*
X163420714Y-124661764D02*
X163349286Y-124697478D01*
X163349286Y-124697478D02*
X163313571Y-124733192D01*
X163313571Y-124733192D02*
X163277857Y-124804621D01*
X163277857Y-124804621D02*
X163277857Y-124876050D01*
X163277857Y-124876050D02*
X163313571Y-124983192D01*
X163313571Y-124983192D02*
X163742143Y-125411764D01*
X163742143Y-125411764D02*
X163277857Y-125411764D01*
X162599285Y-124661764D02*
X162956428Y-124661764D01*
X162956428Y-124661764D02*
X162992142Y-125018907D01*
X162992142Y-125018907D02*
X162956428Y-124983192D01*
X162956428Y-124983192D02*
X162885000Y-124947478D01*
X162885000Y-124947478D02*
X162706428Y-124947478D01*
X162706428Y-124947478D02*
X162635000Y-124983192D01*
X162635000Y-124983192D02*
X162599285Y-125018907D01*
X162599285Y-125018907D02*
X162563571Y-125090335D01*
X162563571Y-125090335D02*
X162563571Y-125268907D01*
X162563571Y-125268907D02*
X162599285Y-125340335D01*
X162599285Y-125340335D02*
X162635000Y-125376050D01*
X162635000Y-125376050D02*
X162706428Y-125411764D01*
X162706428Y-125411764D02*
X162885000Y-125411764D01*
X162885000Y-125411764D02*
X162956428Y-125376050D01*
X162956428Y-125376050D02*
X162992142Y-125340335D01*
X155201764Y-79906428D02*
X154451764Y-79906428D01*
X154451764Y-79906428D02*
X154451764Y-80084999D01*
X154451764Y-80084999D02*
X154487478Y-80192142D01*
X154487478Y-80192142D02*
X154558907Y-80263571D01*
X154558907Y-80263571D02*
X154630335Y-80299285D01*
X154630335Y-80299285D02*
X154773192Y-80334999D01*
X154773192Y-80334999D02*
X154880335Y-80334999D01*
X154880335Y-80334999D02*
X155023192Y-80299285D01*
X155023192Y-80299285D02*
X155094621Y-80263571D01*
X155094621Y-80263571D02*
X155166050Y-80192142D01*
X155166050Y-80192142D02*
X155201764Y-80084999D01*
X155201764Y-80084999D02*
X155201764Y-79906428D01*
X154773192Y-80763571D02*
X154737478Y-80692142D01*
X154737478Y-80692142D02*
X154701764Y-80656428D01*
X154701764Y-80656428D02*
X154630335Y-80620714D01*
X154630335Y-80620714D02*
X154594621Y-80620714D01*
X154594621Y-80620714D02*
X154523192Y-80656428D01*
X154523192Y-80656428D02*
X154487478Y-80692142D01*
X154487478Y-80692142D02*
X154451764Y-80763571D01*
X154451764Y-80763571D02*
X154451764Y-80906428D01*
X154451764Y-80906428D02*
X154487478Y-80977857D01*
X154487478Y-80977857D02*
X154523192Y-81013571D01*
X154523192Y-81013571D02*
X154594621Y-81049285D01*
X154594621Y-81049285D02*
X154630335Y-81049285D01*
X154630335Y-81049285D02*
X154701764Y-81013571D01*
X154701764Y-81013571D02*
X154737478Y-80977857D01*
X154737478Y-80977857D02*
X154773192Y-80906428D01*
X154773192Y-80906428D02*
X154773192Y-80763571D01*
X154773192Y-80763571D02*
X154808907Y-80692142D01*
X154808907Y-80692142D02*
X154844621Y-80656428D01*
X154844621Y-80656428D02*
X154916050Y-80620714D01*
X154916050Y-80620714D02*
X155058907Y-80620714D01*
X155058907Y-80620714D02*
X155130335Y-80656428D01*
X155130335Y-80656428D02*
X155166050Y-80692142D01*
X155166050Y-80692142D02*
X155201764Y-80763571D01*
X155201764Y-80763571D02*
X155201764Y-80906428D01*
X155201764Y-80906428D02*
X155166050Y-80977857D01*
X155166050Y-80977857D02*
X155130335Y-81013571D01*
X155130335Y-81013571D02*
X155058907Y-81049285D01*
X155058907Y-81049285D02*
X154916050Y-81049285D01*
X154916050Y-81049285D02*
X154844621Y-81013571D01*
X154844621Y-81013571D02*
X154808907Y-80977857D01*
X154808907Y-80977857D02*
X154773192Y-80906428D01*
X146090335Y-101334999D02*
X146126050Y-101299285D01*
X146126050Y-101299285D02*
X146161764Y-101192142D01*
X146161764Y-101192142D02*
X146161764Y-101120714D01*
X146161764Y-101120714D02*
X146126050Y-101013571D01*
X146126050Y-101013571D02*
X146054621Y-100942142D01*
X146054621Y-100942142D02*
X145983192Y-100906428D01*
X145983192Y-100906428D02*
X145840335Y-100870714D01*
X145840335Y-100870714D02*
X145733192Y-100870714D01*
X145733192Y-100870714D02*
X145590335Y-100906428D01*
X145590335Y-100906428D02*
X145518907Y-100942142D01*
X145518907Y-100942142D02*
X145447478Y-101013571D01*
X145447478Y-101013571D02*
X145411764Y-101120714D01*
X145411764Y-101120714D02*
X145411764Y-101192142D01*
X145411764Y-101192142D02*
X145447478Y-101299285D01*
X145447478Y-101299285D02*
X145483192Y-101334999D01*
X145483192Y-101620714D02*
X145447478Y-101656428D01*
X145447478Y-101656428D02*
X145411764Y-101727857D01*
X145411764Y-101727857D02*
X145411764Y-101906428D01*
X145411764Y-101906428D02*
X145447478Y-101977857D01*
X145447478Y-101977857D02*
X145483192Y-102013571D01*
X145483192Y-102013571D02*
X145554621Y-102049285D01*
X145554621Y-102049285D02*
X145626050Y-102049285D01*
X145626050Y-102049285D02*
X145733192Y-102013571D01*
X145733192Y-102013571D02*
X146161764Y-101584999D01*
X146161764Y-101584999D02*
X146161764Y-102049285D01*
X148332143Y-99940335D02*
X148367857Y-99976050D01*
X148367857Y-99976050D02*
X148475000Y-100011764D01*
X148475000Y-100011764D02*
X148546428Y-100011764D01*
X148546428Y-100011764D02*
X148653571Y-99976050D01*
X148653571Y-99976050D02*
X148725000Y-99904621D01*
X148725000Y-99904621D02*
X148760714Y-99833192D01*
X148760714Y-99833192D02*
X148796428Y-99690335D01*
X148796428Y-99690335D02*
X148796428Y-99583192D01*
X148796428Y-99583192D02*
X148760714Y-99440335D01*
X148760714Y-99440335D02*
X148725000Y-99368907D01*
X148725000Y-99368907D02*
X148653571Y-99297478D01*
X148653571Y-99297478D02*
X148546428Y-99261764D01*
X148546428Y-99261764D02*
X148475000Y-99261764D01*
X148475000Y-99261764D02*
X148367857Y-99297478D01*
X148367857Y-99297478D02*
X148332143Y-99333192D01*
X147617857Y-100011764D02*
X148046428Y-100011764D01*
X147832143Y-100011764D02*
X147832143Y-99261764D01*
X147832143Y-99261764D02*
X147903571Y-99368907D01*
X147903571Y-99368907D02*
X147975000Y-99440335D01*
X147975000Y-99440335D02*
X148046428Y-99476050D01*
X147332142Y-99333192D02*
X147296428Y-99297478D01*
X147296428Y-99297478D02*
X147225000Y-99261764D01*
X147225000Y-99261764D02*
X147046428Y-99261764D01*
X147046428Y-99261764D02*
X146975000Y-99297478D01*
X146975000Y-99297478D02*
X146939285Y-99333192D01*
X146939285Y-99333192D02*
X146903571Y-99404621D01*
X146903571Y-99404621D02*
X146903571Y-99476050D01*
X146903571Y-99476050D02*
X146939285Y-99583192D01*
X146939285Y-99583192D02*
X147367857Y-100011764D01*
X147367857Y-100011764D02*
X146903571Y-100011764D01*
X143895000Y-92251764D02*
X144145000Y-91894621D01*
X144323571Y-92251764D02*
X144323571Y-91501764D01*
X144323571Y-91501764D02*
X144037857Y-91501764D01*
X144037857Y-91501764D02*
X143966428Y-91537478D01*
X143966428Y-91537478D02*
X143930714Y-91573192D01*
X143930714Y-91573192D02*
X143895000Y-91644621D01*
X143895000Y-91644621D02*
X143895000Y-91751764D01*
X143895000Y-91751764D02*
X143930714Y-91823192D01*
X143930714Y-91823192D02*
X143966428Y-91858907D01*
X143966428Y-91858907D02*
X144037857Y-91894621D01*
X144037857Y-91894621D02*
X144323571Y-91894621D01*
X143180714Y-92251764D02*
X143609285Y-92251764D01*
X143395000Y-92251764D02*
X143395000Y-91501764D01*
X143395000Y-91501764D02*
X143466428Y-91608907D01*
X143466428Y-91608907D02*
X143537857Y-91680335D01*
X143537857Y-91680335D02*
X143609285Y-91716050D01*
X146235000Y-92241764D02*
X146485000Y-91884621D01*
X146663571Y-92241764D02*
X146663571Y-91491764D01*
X146663571Y-91491764D02*
X146377857Y-91491764D01*
X146377857Y-91491764D02*
X146306428Y-91527478D01*
X146306428Y-91527478D02*
X146270714Y-91563192D01*
X146270714Y-91563192D02*
X146235000Y-91634621D01*
X146235000Y-91634621D02*
X146235000Y-91741764D01*
X146235000Y-91741764D02*
X146270714Y-91813192D01*
X146270714Y-91813192D02*
X146306428Y-91848907D01*
X146306428Y-91848907D02*
X146377857Y-91884621D01*
X146377857Y-91884621D02*
X146663571Y-91884621D01*
X145985000Y-91491764D02*
X145520714Y-91491764D01*
X145520714Y-91491764D02*
X145770714Y-91777478D01*
X145770714Y-91777478D02*
X145663571Y-91777478D01*
X145663571Y-91777478D02*
X145592143Y-91813192D01*
X145592143Y-91813192D02*
X145556428Y-91848907D01*
X145556428Y-91848907D02*
X145520714Y-91920335D01*
X145520714Y-91920335D02*
X145520714Y-92098907D01*
X145520714Y-92098907D02*
X145556428Y-92170335D01*
X145556428Y-92170335D02*
X145592143Y-92206050D01*
X145592143Y-92206050D02*
X145663571Y-92241764D01*
X145663571Y-92241764D02*
X145877857Y-92241764D01*
X145877857Y-92241764D02*
X145949285Y-92206050D01*
X145949285Y-92206050D02*
X145985000Y-92170335D01*
X130143571Y-94141764D02*
X130143571Y-93391764D01*
X130143571Y-93391764D02*
X129965000Y-93391764D01*
X129965000Y-93391764D02*
X129857857Y-93427478D01*
X129857857Y-93427478D02*
X129786428Y-93498907D01*
X129786428Y-93498907D02*
X129750714Y-93570335D01*
X129750714Y-93570335D02*
X129715000Y-93713192D01*
X129715000Y-93713192D02*
X129715000Y-93820335D01*
X129715000Y-93820335D02*
X129750714Y-93963192D01*
X129750714Y-93963192D02*
X129786428Y-94034621D01*
X129786428Y-94034621D02*
X129857857Y-94106050D01*
X129857857Y-94106050D02*
X129965000Y-94141764D01*
X129965000Y-94141764D02*
X130143571Y-94141764D01*
X129357857Y-94141764D02*
X129215000Y-94141764D01*
X129215000Y-94141764D02*
X129143571Y-94106050D01*
X129143571Y-94106050D02*
X129107857Y-94070335D01*
X129107857Y-94070335D02*
X129036428Y-93963192D01*
X129036428Y-93963192D02*
X129000714Y-93820335D01*
X129000714Y-93820335D02*
X129000714Y-93534621D01*
X129000714Y-93534621D02*
X129036428Y-93463192D01*
X129036428Y-93463192D02*
X129072143Y-93427478D01*
X129072143Y-93427478D02*
X129143571Y-93391764D01*
X129143571Y-93391764D02*
X129286428Y-93391764D01*
X129286428Y-93391764D02*
X129357857Y-93427478D01*
X129357857Y-93427478D02*
X129393571Y-93463192D01*
X129393571Y-93463192D02*
X129429285Y-93534621D01*
X129429285Y-93534621D02*
X129429285Y-93713192D01*
X129429285Y-93713192D02*
X129393571Y-93784621D01*
X129393571Y-93784621D02*
X129357857Y-93820335D01*
X129357857Y-93820335D02*
X129286428Y-93856050D01*
X129286428Y-93856050D02*
X129143571Y-93856050D01*
X129143571Y-93856050D02*
X129072143Y-93820335D01*
X129072143Y-93820335D02*
X129036428Y-93784621D01*
X129036428Y-93784621D02*
X129000714Y-93713192D01*
X148582143Y-85320335D02*
X148617857Y-85356050D01*
X148617857Y-85356050D02*
X148725000Y-85391764D01*
X148725000Y-85391764D02*
X148796428Y-85391764D01*
X148796428Y-85391764D02*
X148903571Y-85356050D01*
X148903571Y-85356050D02*
X148975000Y-85284621D01*
X148975000Y-85284621D02*
X149010714Y-85213192D01*
X149010714Y-85213192D02*
X149046428Y-85070335D01*
X149046428Y-85070335D02*
X149046428Y-84963192D01*
X149046428Y-84963192D02*
X149010714Y-84820335D01*
X149010714Y-84820335D02*
X148975000Y-84748907D01*
X148975000Y-84748907D02*
X148903571Y-84677478D01*
X148903571Y-84677478D02*
X148796428Y-84641764D01*
X148796428Y-84641764D02*
X148725000Y-84641764D01*
X148725000Y-84641764D02*
X148617857Y-84677478D01*
X148617857Y-84677478D02*
X148582143Y-84713192D01*
X148296428Y-84713192D02*
X148260714Y-84677478D01*
X148260714Y-84677478D02*
X148189286Y-84641764D01*
X148189286Y-84641764D02*
X148010714Y-84641764D01*
X148010714Y-84641764D02*
X147939286Y-84677478D01*
X147939286Y-84677478D02*
X147903571Y-84713192D01*
X147903571Y-84713192D02*
X147867857Y-84784621D01*
X147867857Y-84784621D02*
X147867857Y-84856050D01*
X147867857Y-84856050D02*
X147903571Y-84963192D01*
X147903571Y-84963192D02*
X148332143Y-85391764D01*
X148332143Y-85391764D02*
X147867857Y-85391764D01*
X147510714Y-85391764D02*
X147367857Y-85391764D01*
X147367857Y-85391764D02*
X147296428Y-85356050D01*
X147296428Y-85356050D02*
X147260714Y-85320335D01*
X147260714Y-85320335D02*
X147189285Y-85213192D01*
X147189285Y-85213192D02*
X147153571Y-85070335D01*
X147153571Y-85070335D02*
X147153571Y-84784621D01*
X147153571Y-84784621D02*
X147189285Y-84713192D01*
X147189285Y-84713192D02*
X147225000Y-84677478D01*
X147225000Y-84677478D02*
X147296428Y-84641764D01*
X147296428Y-84641764D02*
X147439285Y-84641764D01*
X147439285Y-84641764D02*
X147510714Y-84677478D01*
X147510714Y-84677478D02*
X147546428Y-84713192D01*
X147546428Y-84713192D02*
X147582142Y-84784621D01*
X147582142Y-84784621D02*
X147582142Y-84963192D01*
X147582142Y-84963192D02*
X147546428Y-85034621D01*
X147546428Y-85034621D02*
X147510714Y-85070335D01*
X147510714Y-85070335D02*
X147439285Y-85106050D01*
X147439285Y-85106050D02*
X147296428Y-85106050D01*
X147296428Y-85106050D02*
X147225000Y-85070335D01*
X147225000Y-85070335D02*
X147189285Y-85034621D01*
X147189285Y-85034621D02*
X147153571Y-84963192D01*
X148095000Y-92190335D02*
X148130714Y-92226050D01*
X148130714Y-92226050D02*
X148237857Y-92261764D01*
X148237857Y-92261764D02*
X148309285Y-92261764D01*
X148309285Y-92261764D02*
X148416428Y-92226050D01*
X148416428Y-92226050D02*
X148487857Y-92154621D01*
X148487857Y-92154621D02*
X148523571Y-92083192D01*
X148523571Y-92083192D02*
X148559285Y-91940335D01*
X148559285Y-91940335D02*
X148559285Y-91833192D01*
X148559285Y-91833192D02*
X148523571Y-91690335D01*
X148523571Y-91690335D02*
X148487857Y-91618907D01*
X148487857Y-91618907D02*
X148416428Y-91547478D01*
X148416428Y-91547478D02*
X148309285Y-91511764D01*
X148309285Y-91511764D02*
X148237857Y-91511764D01*
X148237857Y-91511764D02*
X148130714Y-91547478D01*
X148130714Y-91547478D02*
X148095000Y-91583192D01*
X147845000Y-91511764D02*
X147345000Y-91511764D01*
X147345000Y-91511764D02*
X147666428Y-92261764D01*
X127885264Y-102992856D02*
X127528121Y-102742856D01*
X127885264Y-102564285D02*
X127135264Y-102564285D01*
X127135264Y-102564285D02*
X127135264Y-102849999D01*
X127135264Y-102849999D02*
X127170978Y-102921428D01*
X127170978Y-102921428D02*
X127206692Y-102957142D01*
X127206692Y-102957142D02*
X127278121Y-102992856D01*
X127278121Y-102992856D02*
X127385264Y-102992856D01*
X127385264Y-102992856D02*
X127456692Y-102957142D01*
X127456692Y-102957142D02*
X127492407Y-102921428D01*
X127492407Y-102921428D02*
X127528121Y-102849999D01*
X127528121Y-102849999D02*
X127528121Y-102564285D01*
X127206692Y-103278571D02*
X127170978Y-103314285D01*
X127170978Y-103314285D02*
X127135264Y-103385714D01*
X127135264Y-103385714D02*
X127135264Y-103564285D01*
X127135264Y-103564285D02*
X127170978Y-103635714D01*
X127170978Y-103635714D02*
X127206692Y-103671428D01*
X127206692Y-103671428D02*
X127278121Y-103707142D01*
X127278121Y-103707142D02*
X127349550Y-103707142D01*
X127349550Y-103707142D02*
X127456692Y-103671428D01*
X127456692Y-103671428D02*
X127885264Y-103242856D01*
X127885264Y-103242856D02*
X127885264Y-103707142D01*
X127885264Y-104064285D02*
X127885264Y-104207142D01*
X127885264Y-104207142D02*
X127849550Y-104278571D01*
X127849550Y-104278571D02*
X127813835Y-104314285D01*
X127813835Y-104314285D02*
X127706692Y-104385714D01*
X127706692Y-104385714D02*
X127563835Y-104421428D01*
X127563835Y-104421428D02*
X127278121Y-104421428D01*
X127278121Y-104421428D02*
X127206692Y-104385714D01*
X127206692Y-104385714D02*
X127170978Y-104350000D01*
X127170978Y-104350000D02*
X127135264Y-104278571D01*
X127135264Y-104278571D02*
X127135264Y-104135714D01*
X127135264Y-104135714D02*
X127170978Y-104064285D01*
X127170978Y-104064285D02*
X127206692Y-104028571D01*
X127206692Y-104028571D02*
X127278121Y-103992857D01*
X127278121Y-103992857D02*
X127456692Y-103992857D01*
X127456692Y-103992857D02*
X127528121Y-104028571D01*
X127528121Y-104028571D02*
X127563835Y-104064285D01*
X127563835Y-104064285D02*
X127599550Y-104135714D01*
X127599550Y-104135714D02*
X127599550Y-104278571D01*
X127599550Y-104278571D02*
X127563835Y-104350000D01*
X127563835Y-104350000D02*
X127528121Y-104385714D01*
X127528121Y-104385714D02*
X127456692Y-104421428D01*
X150210335Y-101354999D02*
X150246050Y-101319285D01*
X150246050Y-101319285D02*
X150281764Y-101212142D01*
X150281764Y-101212142D02*
X150281764Y-101140714D01*
X150281764Y-101140714D02*
X150246050Y-101033571D01*
X150246050Y-101033571D02*
X150174621Y-100962142D01*
X150174621Y-100962142D02*
X150103192Y-100926428D01*
X150103192Y-100926428D02*
X149960335Y-100890714D01*
X149960335Y-100890714D02*
X149853192Y-100890714D01*
X149853192Y-100890714D02*
X149710335Y-100926428D01*
X149710335Y-100926428D02*
X149638907Y-100962142D01*
X149638907Y-100962142D02*
X149567478Y-101033571D01*
X149567478Y-101033571D02*
X149531764Y-101140714D01*
X149531764Y-101140714D02*
X149531764Y-101212142D01*
X149531764Y-101212142D02*
X149567478Y-101319285D01*
X149567478Y-101319285D02*
X149603192Y-101354999D01*
X150281764Y-102069285D02*
X150281764Y-101640714D01*
X150281764Y-101854999D02*
X149531764Y-101854999D01*
X149531764Y-101854999D02*
X149638907Y-101783571D01*
X149638907Y-101783571D02*
X149710335Y-101712142D01*
X149710335Y-101712142D02*
X149746050Y-101640714D01*
X153105000Y-89251764D02*
X153355000Y-88894621D01*
X153533571Y-89251764D02*
X153533571Y-88501764D01*
X153533571Y-88501764D02*
X153247857Y-88501764D01*
X153247857Y-88501764D02*
X153176428Y-88537478D01*
X153176428Y-88537478D02*
X153140714Y-88573192D01*
X153140714Y-88573192D02*
X153105000Y-88644621D01*
X153105000Y-88644621D02*
X153105000Y-88751764D01*
X153105000Y-88751764D02*
X153140714Y-88823192D01*
X153140714Y-88823192D02*
X153176428Y-88858907D01*
X153176428Y-88858907D02*
X153247857Y-88894621D01*
X153247857Y-88894621D02*
X153533571Y-88894621D01*
X152462143Y-88751764D02*
X152462143Y-89251764D01*
X152640714Y-88466050D02*
X152819285Y-89001764D01*
X152819285Y-89001764D02*
X152355000Y-89001764D01*
X141862143Y-78731764D02*
X142112143Y-78374621D01*
X142290714Y-78731764D02*
X142290714Y-77981764D01*
X142290714Y-77981764D02*
X142005000Y-77981764D01*
X142005000Y-77981764D02*
X141933571Y-78017478D01*
X141933571Y-78017478D02*
X141897857Y-78053192D01*
X141897857Y-78053192D02*
X141862143Y-78124621D01*
X141862143Y-78124621D02*
X141862143Y-78231764D01*
X141862143Y-78231764D02*
X141897857Y-78303192D01*
X141897857Y-78303192D02*
X141933571Y-78338907D01*
X141933571Y-78338907D02*
X142005000Y-78374621D01*
X142005000Y-78374621D02*
X142290714Y-78374621D01*
X141147857Y-78731764D02*
X141576428Y-78731764D01*
X141362143Y-78731764D02*
X141362143Y-77981764D01*
X141362143Y-77981764D02*
X141433571Y-78088907D01*
X141433571Y-78088907D02*
X141505000Y-78160335D01*
X141505000Y-78160335D02*
X141576428Y-78196050D01*
X140897857Y-77981764D02*
X140397857Y-77981764D01*
X140397857Y-77981764D02*
X140719285Y-78731764D01*
X143182143Y-87170335D02*
X143217857Y-87206050D01*
X143217857Y-87206050D02*
X143325000Y-87241764D01*
X143325000Y-87241764D02*
X143396428Y-87241764D01*
X143396428Y-87241764D02*
X143503571Y-87206050D01*
X143503571Y-87206050D02*
X143575000Y-87134621D01*
X143575000Y-87134621D02*
X143610714Y-87063192D01*
X143610714Y-87063192D02*
X143646428Y-86920335D01*
X143646428Y-86920335D02*
X143646428Y-86813192D01*
X143646428Y-86813192D02*
X143610714Y-86670335D01*
X143610714Y-86670335D02*
X143575000Y-86598907D01*
X143575000Y-86598907D02*
X143503571Y-86527478D01*
X143503571Y-86527478D02*
X143396428Y-86491764D01*
X143396428Y-86491764D02*
X143325000Y-86491764D01*
X143325000Y-86491764D02*
X143217857Y-86527478D01*
X143217857Y-86527478D02*
X143182143Y-86563192D01*
X142896428Y-86563192D02*
X142860714Y-86527478D01*
X142860714Y-86527478D02*
X142789286Y-86491764D01*
X142789286Y-86491764D02*
X142610714Y-86491764D01*
X142610714Y-86491764D02*
X142539286Y-86527478D01*
X142539286Y-86527478D02*
X142503571Y-86563192D01*
X142503571Y-86563192D02*
X142467857Y-86634621D01*
X142467857Y-86634621D02*
X142467857Y-86706050D01*
X142467857Y-86706050D02*
X142503571Y-86813192D01*
X142503571Y-86813192D02*
X142932143Y-87241764D01*
X142932143Y-87241764D02*
X142467857Y-87241764D01*
X142217857Y-86491764D02*
X141717857Y-86491764D01*
X141717857Y-86491764D02*
X142039285Y-87241764D01*
X150081428Y-77311764D02*
X150081428Y-77918907D01*
X150081428Y-77918907D02*
X150045714Y-77990335D01*
X150045714Y-77990335D02*
X150010000Y-78026050D01*
X150010000Y-78026050D02*
X149938571Y-78061764D01*
X149938571Y-78061764D02*
X149795714Y-78061764D01*
X149795714Y-78061764D02*
X149724285Y-78026050D01*
X149724285Y-78026050D02*
X149688571Y-77990335D01*
X149688571Y-77990335D02*
X149652857Y-77918907D01*
X149652857Y-77918907D02*
X149652857Y-77311764D01*
X149367143Y-77311764D02*
X148902857Y-77311764D01*
X148902857Y-77311764D02*
X149152857Y-77597478D01*
X149152857Y-77597478D02*
X149045714Y-77597478D01*
X149045714Y-77597478D02*
X148974286Y-77633192D01*
X148974286Y-77633192D02*
X148938571Y-77668907D01*
X148938571Y-77668907D02*
X148902857Y-77740335D01*
X148902857Y-77740335D02*
X148902857Y-77918907D01*
X148902857Y-77918907D02*
X148938571Y-77990335D01*
X148938571Y-77990335D02*
X148974286Y-78026050D01*
X148974286Y-78026050D02*
X149045714Y-78061764D01*
X149045714Y-78061764D02*
X149260000Y-78061764D01*
X149260000Y-78061764D02*
X149331428Y-78026050D01*
X149331428Y-78026050D02*
X149367143Y-77990335D01*
X156060335Y-110507856D02*
X156096050Y-110472142D01*
X156096050Y-110472142D02*
X156131764Y-110364999D01*
X156131764Y-110364999D02*
X156131764Y-110293571D01*
X156131764Y-110293571D02*
X156096050Y-110186428D01*
X156096050Y-110186428D02*
X156024621Y-110114999D01*
X156024621Y-110114999D02*
X155953192Y-110079285D01*
X155953192Y-110079285D02*
X155810335Y-110043571D01*
X155810335Y-110043571D02*
X155703192Y-110043571D01*
X155703192Y-110043571D02*
X155560335Y-110079285D01*
X155560335Y-110079285D02*
X155488907Y-110114999D01*
X155488907Y-110114999D02*
X155417478Y-110186428D01*
X155417478Y-110186428D02*
X155381764Y-110293571D01*
X155381764Y-110293571D02*
X155381764Y-110364999D01*
X155381764Y-110364999D02*
X155417478Y-110472142D01*
X155417478Y-110472142D02*
X155453192Y-110507856D01*
X156131764Y-111222142D02*
X156131764Y-110793571D01*
X156131764Y-111007856D02*
X155381764Y-111007856D01*
X155381764Y-111007856D02*
X155488907Y-110936428D01*
X155488907Y-110936428D02*
X155560335Y-110864999D01*
X155560335Y-110864999D02*
X155596050Y-110793571D01*
X155381764Y-111900714D02*
X155381764Y-111543571D01*
X155381764Y-111543571D02*
X155738907Y-111507857D01*
X155738907Y-111507857D02*
X155703192Y-111543571D01*
X155703192Y-111543571D02*
X155667478Y-111615000D01*
X155667478Y-111615000D02*
X155667478Y-111793571D01*
X155667478Y-111793571D02*
X155703192Y-111865000D01*
X155703192Y-111865000D02*
X155738907Y-111900714D01*
X155738907Y-111900714D02*
X155810335Y-111936428D01*
X155810335Y-111936428D02*
X155988907Y-111936428D01*
X155988907Y-111936428D02*
X156060335Y-111900714D01*
X156060335Y-111900714D02*
X156096050Y-111865000D01*
X156096050Y-111865000D02*
X156131764Y-111793571D01*
X156131764Y-111793571D02*
X156131764Y-111615000D01*
X156131764Y-111615000D02*
X156096050Y-111543571D01*
X156096050Y-111543571D02*
X156060335Y-111507857D01*
X153462143Y-85140335D02*
X153497857Y-85176050D01*
X153497857Y-85176050D02*
X153605000Y-85211764D01*
X153605000Y-85211764D02*
X153676428Y-85211764D01*
X153676428Y-85211764D02*
X153783571Y-85176050D01*
X153783571Y-85176050D02*
X153855000Y-85104621D01*
X153855000Y-85104621D02*
X153890714Y-85033192D01*
X153890714Y-85033192D02*
X153926428Y-84890335D01*
X153926428Y-84890335D02*
X153926428Y-84783192D01*
X153926428Y-84783192D02*
X153890714Y-84640335D01*
X153890714Y-84640335D02*
X153855000Y-84568907D01*
X153855000Y-84568907D02*
X153783571Y-84497478D01*
X153783571Y-84497478D02*
X153676428Y-84461764D01*
X153676428Y-84461764D02*
X153605000Y-84461764D01*
X153605000Y-84461764D02*
X153497857Y-84497478D01*
X153497857Y-84497478D02*
X153462143Y-84533192D01*
X152747857Y-85211764D02*
X153176428Y-85211764D01*
X152962143Y-85211764D02*
X152962143Y-84461764D01*
X152962143Y-84461764D02*
X153033571Y-84568907D01*
X153033571Y-84568907D02*
X153105000Y-84640335D01*
X153105000Y-84640335D02*
X153176428Y-84676050D01*
X152497857Y-84461764D02*
X152033571Y-84461764D01*
X152033571Y-84461764D02*
X152283571Y-84747478D01*
X152283571Y-84747478D02*
X152176428Y-84747478D01*
X152176428Y-84747478D02*
X152105000Y-84783192D01*
X152105000Y-84783192D02*
X152069285Y-84818907D01*
X152069285Y-84818907D02*
X152033571Y-84890335D01*
X152033571Y-84890335D02*
X152033571Y-85068907D01*
X152033571Y-85068907D02*
X152069285Y-85140335D01*
X152069285Y-85140335D02*
X152105000Y-85176050D01*
X152105000Y-85176050D02*
X152176428Y-85211764D01*
X152176428Y-85211764D02*
X152390714Y-85211764D01*
X152390714Y-85211764D02*
X152462142Y-85176050D01*
X152462142Y-85176050D02*
X152497857Y-85140335D01*
X150672143Y-85330335D02*
X150707857Y-85366050D01*
X150707857Y-85366050D02*
X150815000Y-85401764D01*
X150815000Y-85401764D02*
X150886428Y-85401764D01*
X150886428Y-85401764D02*
X150993571Y-85366050D01*
X150993571Y-85366050D02*
X151065000Y-85294621D01*
X151065000Y-85294621D02*
X151100714Y-85223192D01*
X151100714Y-85223192D02*
X151136428Y-85080335D01*
X151136428Y-85080335D02*
X151136428Y-84973192D01*
X151136428Y-84973192D02*
X151100714Y-84830335D01*
X151100714Y-84830335D02*
X151065000Y-84758907D01*
X151065000Y-84758907D02*
X150993571Y-84687478D01*
X150993571Y-84687478D02*
X150886428Y-84651764D01*
X150886428Y-84651764D02*
X150815000Y-84651764D01*
X150815000Y-84651764D02*
X150707857Y-84687478D01*
X150707857Y-84687478D02*
X150672143Y-84723192D01*
X150386428Y-84723192D02*
X150350714Y-84687478D01*
X150350714Y-84687478D02*
X150279286Y-84651764D01*
X150279286Y-84651764D02*
X150100714Y-84651764D01*
X150100714Y-84651764D02*
X150029286Y-84687478D01*
X150029286Y-84687478D02*
X149993571Y-84723192D01*
X149993571Y-84723192D02*
X149957857Y-84794621D01*
X149957857Y-84794621D02*
X149957857Y-84866050D01*
X149957857Y-84866050D02*
X149993571Y-84973192D01*
X149993571Y-84973192D02*
X150422143Y-85401764D01*
X150422143Y-85401764D02*
X149957857Y-85401764D01*
X149529285Y-84973192D02*
X149600714Y-84937478D01*
X149600714Y-84937478D02*
X149636428Y-84901764D01*
X149636428Y-84901764D02*
X149672142Y-84830335D01*
X149672142Y-84830335D02*
X149672142Y-84794621D01*
X149672142Y-84794621D02*
X149636428Y-84723192D01*
X149636428Y-84723192D02*
X149600714Y-84687478D01*
X149600714Y-84687478D02*
X149529285Y-84651764D01*
X149529285Y-84651764D02*
X149386428Y-84651764D01*
X149386428Y-84651764D02*
X149315000Y-84687478D01*
X149315000Y-84687478D02*
X149279285Y-84723192D01*
X149279285Y-84723192D02*
X149243571Y-84794621D01*
X149243571Y-84794621D02*
X149243571Y-84830335D01*
X149243571Y-84830335D02*
X149279285Y-84901764D01*
X149279285Y-84901764D02*
X149315000Y-84937478D01*
X149315000Y-84937478D02*
X149386428Y-84973192D01*
X149386428Y-84973192D02*
X149529285Y-84973192D01*
X149529285Y-84973192D02*
X149600714Y-85008907D01*
X149600714Y-85008907D02*
X149636428Y-85044621D01*
X149636428Y-85044621D02*
X149672142Y-85116050D01*
X149672142Y-85116050D02*
X149672142Y-85258907D01*
X149672142Y-85258907D02*
X149636428Y-85330335D01*
X149636428Y-85330335D02*
X149600714Y-85366050D01*
X149600714Y-85366050D02*
X149529285Y-85401764D01*
X149529285Y-85401764D02*
X149386428Y-85401764D01*
X149386428Y-85401764D02*
X149315000Y-85366050D01*
X149315000Y-85366050D02*
X149279285Y-85330335D01*
X149279285Y-85330335D02*
X149243571Y-85258907D01*
X149243571Y-85258907D02*
X149243571Y-85116050D01*
X149243571Y-85116050D02*
X149279285Y-85044621D01*
X149279285Y-85044621D02*
X149315000Y-85008907D01*
X149315000Y-85008907D02*
X149386428Y-84973192D01*
X160280335Y-110914999D02*
X160316050Y-110879285D01*
X160316050Y-110879285D02*
X160351764Y-110772142D01*
X160351764Y-110772142D02*
X160351764Y-110700714D01*
X160351764Y-110700714D02*
X160316050Y-110593571D01*
X160316050Y-110593571D02*
X160244621Y-110522142D01*
X160244621Y-110522142D02*
X160173192Y-110486428D01*
X160173192Y-110486428D02*
X160030335Y-110450714D01*
X160030335Y-110450714D02*
X159923192Y-110450714D01*
X159923192Y-110450714D02*
X159780335Y-110486428D01*
X159780335Y-110486428D02*
X159708907Y-110522142D01*
X159708907Y-110522142D02*
X159637478Y-110593571D01*
X159637478Y-110593571D02*
X159601764Y-110700714D01*
X159601764Y-110700714D02*
X159601764Y-110772142D01*
X159601764Y-110772142D02*
X159637478Y-110879285D01*
X159637478Y-110879285D02*
X159673192Y-110914999D01*
X159923192Y-111343571D02*
X159887478Y-111272142D01*
X159887478Y-111272142D02*
X159851764Y-111236428D01*
X159851764Y-111236428D02*
X159780335Y-111200714D01*
X159780335Y-111200714D02*
X159744621Y-111200714D01*
X159744621Y-111200714D02*
X159673192Y-111236428D01*
X159673192Y-111236428D02*
X159637478Y-111272142D01*
X159637478Y-111272142D02*
X159601764Y-111343571D01*
X159601764Y-111343571D02*
X159601764Y-111486428D01*
X159601764Y-111486428D02*
X159637478Y-111557857D01*
X159637478Y-111557857D02*
X159673192Y-111593571D01*
X159673192Y-111593571D02*
X159744621Y-111629285D01*
X159744621Y-111629285D02*
X159780335Y-111629285D01*
X159780335Y-111629285D02*
X159851764Y-111593571D01*
X159851764Y-111593571D02*
X159887478Y-111557857D01*
X159887478Y-111557857D02*
X159923192Y-111486428D01*
X159923192Y-111486428D02*
X159923192Y-111343571D01*
X159923192Y-111343571D02*
X159958907Y-111272142D01*
X159958907Y-111272142D02*
X159994621Y-111236428D01*
X159994621Y-111236428D02*
X160066050Y-111200714D01*
X160066050Y-111200714D02*
X160208907Y-111200714D01*
X160208907Y-111200714D02*
X160280335Y-111236428D01*
X160280335Y-111236428D02*
X160316050Y-111272142D01*
X160316050Y-111272142D02*
X160351764Y-111343571D01*
X160351764Y-111343571D02*
X160351764Y-111486428D01*
X160351764Y-111486428D02*
X160316050Y-111557857D01*
X160316050Y-111557857D02*
X160280335Y-111593571D01*
X160280335Y-111593571D02*
X160208907Y-111629285D01*
X160208907Y-111629285D02*
X160066050Y-111629285D01*
X160066050Y-111629285D02*
X159994621Y-111593571D01*
X159994621Y-111593571D02*
X159958907Y-111557857D01*
X159958907Y-111557857D02*
X159923192Y-111486428D01*
X147995000Y-105800335D02*
X148030714Y-105836050D01*
X148030714Y-105836050D02*
X148137857Y-105871764D01*
X148137857Y-105871764D02*
X148209285Y-105871764D01*
X148209285Y-105871764D02*
X148316428Y-105836050D01*
X148316428Y-105836050D02*
X148387857Y-105764621D01*
X148387857Y-105764621D02*
X148423571Y-105693192D01*
X148423571Y-105693192D02*
X148459285Y-105550335D01*
X148459285Y-105550335D02*
X148459285Y-105443192D01*
X148459285Y-105443192D02*
X148423571Y-105300335D01*
X148423571Y-105300335D02*
X148387857Y-105228907D01*
X148387857Y-105228907D02*
X148316428Y-105157478D01*
X148316428Y-105157478D02*
X148209285Y-105121764D01*
X148209285Y-105121764D02*
X148137857Y-105121764D01*
X148137857Y-105121764D02*
X148030714Y-105157478D01*
X148030714Y-105157478D02*
X147995000Y-105193192D01*
X147745000Y-105121764D02*
X147280714Y-105121764D01*
X147280714Y-105121764D02*
X147530714Y-105407478D01*
X147530714Y-105407478D02*
X147423571Y-105407478D01*
X147423571Y-105407478D02*
X147352143Y-105443192D01*
X147352143Y-105443192D02*
X147316428Y-105478907D01*
X147316428Y-105478907D02*
X147280714Y-105550335D01*
X147280714Y-105550335D02*
X147280714Y-105728907D01*
X147280714Y-105728907D02*
X147316428Y-105800335D01*
X147316428Y-105800335D02*
X147352143Y-105836050D01*
X147352143Y-105836050D02*
X147423571Y-105871764D01*
X147423571Y-105871764D02*
X147637857Y-105871764D01*
X147637857Y-105871764D02*
X147709285Y-105836050D01*
X147709285Y-105836050D02*
X147745000Y-105800335D01*
X162897143Y-97450335D02*
X162932857Y-97486050D01*
X162932857Y-97486050D02*
X163040000Y-97521764D01*
X163040000Y-97521764D02*
X163111428Y-97521764D01*
X163111428Y-97521764D02*
X163218571Y-97486050D01*
X163218571Y-97486050D02*
X163290000Y-97414621D01*
X163290000Y-97414621D02*
X163325714Y-97343192D01*
X163325714Y-97343192D02*
X163361428Y-97200335D01*
X163361428Y-97200335D02*
X163361428Y-97093192D01*
X163361428Y-97093192D02*
X163325714Y-96950335D01*
X163325714Y-96950335D02*
X163290000Y-96878907D01*
X163290000Y-96878907D02*
X163218571Y-96807478D01*
X163218571Y-96807478D02*
X163111428Y-96771764D01*
X163111428Y-96771764D02*
X163040000Y-96771764D01*
X163040000Y-96771764D02*
X162932857Y-96807478D01*
X162932857Y-96807478D02*
X162897143Y-96843192D01*
X162182857Y-97521764D02*
X162611428Y-97521764D01*
X162397143Y-97521764D02*
X162397143Y-96771764D01*
X162397143Y-96771764D02*
X162468571Y-96878907D01*
X162468571Y-96878907D02*
X162540000Y-96950335D01*
X162540000Y-96950335D02*
X162611428Y-96986050D01*
X161540000Y-96771764D02*
X161682857Y-96771764D01*
X161682857Y-96771764D02*
X161754285Y-96807478D01*
X161754285Y-96807478D02*
X161790000Y-96843192D01*
X161790000Y-96843192D02*
X161861428Y-96950335D01*
X161861428Y-96950335D02*
X161897142Y-97093192D01*
X161897142Y-97093192D02*
X161897142Y-97378907D01*
X161897142Y-97378907D02*
X161861428Y-97450335D01*
X161861428Y-97450335D02*
X161825714Y-97486050D01*
X161825714Y-97486050D02*
X161754285Y-97521764D01*
X161754285Y-97521764D02*
X161611428Y-97521764D01*
X161611428Y-97521764D02*
X161540000Y-97486050D01*
X161540000Y-97486050D02*
X161504285Y-97450335D01*
X161504285Y-97450335D02*
X161468571Y-97378907D01*
X161468571Y-97378907D02*
X161468571Y-97200335D01*
X161468571Y-97200335D02*
X161504285Y-97128907D01*
X161504285Y-97128907D02*
X161540000Y-97093192D01*
X161540000Y-97093192D02*
X161611428Y-97057478D01*
X161611428Y-97057478D02*
X161754285Y-97057478D01*
X161754285Y-97057478D02*
X161825714Y-97093192D01*
X161825714Y-97093192D02*
X161861428Y-97128907D01*
X161861428Y-97128907D02*
X161897142Y-97200335D01*
X152175000Y-101430335D02*
X152210714Y-101466050D01*
X152210714Y-101466050D02*
X152317857Y-101501764D01*
X152317857Y-101501764D02*
X152389285Y-101501764D01*
X152389285Y-101501764D02*
X152496428Y-101466050D01*
X152496428Y-101466050D02*
X152567857Y-101394621D01*
X152567857Y-101394621D02*
X152603571Y-101323192D01*
X152603571Y-101323192D02*
X152639285Y-101180335D01*
X152639285Y-101180335D02*
X152639285Y-101073192D01*
X152639285Y-101073192D02*
X152603571Y-100930335D01*
X152603571Y-100930335D02*
X152567857Y-100858907D01*
X152567857Y-100858907D02*
X152496428Y-100787478D01*
X152496428Y-100787478D02*
X152389285Y-100751764D01*
X152389285Y-100751764D02*
X152317857Y-100751764D01*
X152317857Y-100751764D02*
X152210714Y-100787478D01*
X152210714Y-100787478D02*
X152175000Y-100823192D01*
X151532143Y-101001764D02*
X151532143Y-101501764D01*
X151710714Y-100716050D02*
X151889285Y-101251764D01*
X151889285Y-101251764D02*
X151425000Y-101251764D01*
D13*
X162545980Y-93526200D02*
X162264820Y-93526200D01*
X162545980Y-94546200D02*
X162264820Y-94546200D01*
D12*
X162157200Y-124888400D02*
X159414000Y-124888400D01*
X162157200Y-127733200D02*
X162157200Y-124888400D01*
X162157200Y-129866800D02*
X162157200Y-132711600D01*
X162157200Y-132711600D02*
X159414000Y-132711600D01*
X160074400Y-128800000D02*
G75*
G02*
X137620800Y-128800000I-11226800J0D01*
G01*
X137620800Y-128800000D02*
G75*
G02*
X160074400Y-128800000I11226800J0D01*
G01*
D13*
X146475000Y-95669420D02*
X146475000Y-95950580D01*
X147495000Y-95669420D02*
X147495000Y-95950580D01*
X130991000Y-103261242D02*
X130991000Y-103735758D01*
X132036000Y-103261242D02*
X132036000Y-103735758D01*
X160190000Y-120137500D02*
X160190000Y-120787500D01*
X160190000Y-121437500D02*
X160190000Y-120787500D01*
X163310000Y-120137500D02*
X163310000Y-120787500D01*
X163310000Y-121437500D02*
X163310000Y-120787500D01*
X160240000Y-119625000D02*
X159910000Y-119865000D01*
X159910000Y-119385000D01*
X160240000Y-119625000D01*
G36*
X160240000Y-119625000D02*
G01*
X159910000Y-119865000D01*
X159910000Y-119385000D01*
X160240000Y-119625000D01*
G37*
D14*
G36*
X163702190Y-85576619D02*
G01*
X163696903Y-85581906D01*
X163691615Y-85576619D01*
X163696903Y-85571332D01*
X163702190Y-85576619D01*
G37*
G36*
X163744488Y-85587194D02*
G01*
X163739201Y-85592481D01*
X163733913Y-85587194D01*
X163739201Y-85581906D01*
X163744488Y-85587194D01*
G37*
G36*
X163666941Y-85564282D02*
G01*
X163668596Y-85567463D01*
X163659892Y-85571332D01*
X163654294Y-85570569D01*
X163652842Y-85564282D01*
X163654392Y-85563017D01*
X163666941Y-85564282D01*
G37*
G36*
X163926898Y-85627776D02*
G01*
X163928692Y-85631447D01*
X163913680Y-85633109D01*
X163899134Y-85631635D01*
X163900462Y-85627776D01*
X163905249Y-85626379D01*
X163926898Y-85627776D01*
G37*
G36*
X163804295Y-85600464D02*
G01*
X163834738Y-85607912D01*
X163854768Y-85613864D01*
X163871406Y-85620330D01*
X163871382Y-85623200D01*
X163855031Y-85621745D01*
X163829743Y-85616527D01*
X163803742Y-85609433D01*
X163784186Y-85602436D01*
X163778230Y-85597512D01*
X163783449Y-85597058D01*
X163804295Y-85600464D01*
G37*
G36*
X160847069Y-86861423D02*
G01*
X160328918Y-86861423D01*
X160328918Y-87860475D01*
X159979958Y-87511997D01*
X159979958Y-86861423D01*
X159635780Y-86861423D01*
X159469723Y-86694875D01*
X159447334Y-86672414D01*
X159400745Y-86625638D01*
X159360109Y-86584787D01*
X159327671Y-86552121D01*
X159305678Y-86529904D01*
X159296377Y-86520395D01*
X159305150Y-86519132D01*
X159333447Y-86517911D01*
X159379664Y-86516771D01*
X159442170Y-86515729D01*
X159519338Y-86514801D01*
X159609537Y-86514005D01*
X159711140Y-86513356D01*
X159822518Y-86512872D01*
X159942040Y-86512569D01*
X160068079Y-86512464D01*
X160847069Y-86512464D01*
X160847069Y-86861423D01*
G37*
G36*
X162231606Y-87128403D02*
G01*
X162232114Y-87190854D01*
X162232303Y-87269330D01*
X162232331Y-87366393D01*
X162232331Y-87728534D01*
X161883372Y-87728534D01*
X161883372Y-87464171D01*
X161196028Y-87464171D01*
X161196028Y-87860475D01*
X161021549Y-87686236D01*
X160847069Y-87511997D01*
X160847069Y-87292009D01*
X160847904Y-87203373D01*
X160851804Y-87106766D01*
X160852487Y-87099652D01*
X161196028Y-87099652D01*
X161196028Y-87125786D01*
X161886063Y-87125786D01*
X161880931Y-87072377D01*
X161875726Y-87041455D01*
X161851482Y-86984745D01*
X161808474Y-86936468D01*
X161746066Y-86895791D01*
X161722558Y-86883981D01*
X161697678Y-86873301D01*
X161673495Y-86866665D01*
X161644549Y-86863113D01*
X161605377Y-86861686D01*
X161550518Y-86861423D01*
X161539701Y-86861449D01*
X161466239Y-86863661D01*
X161408658Y-86870223D01*
X161362488Y-86882247D01*
X161323262Y-86900846D01*
X161286512Y-86927132D01*
X161276579Y-86936226D01*
X161247260Y-86972591D01*
X161221429Y-87016968D01*
X161203036Y-87061830D01*
X161196028Y-87099652D01*
X160852487Y-87099652D01*
X160859605Y-87025570D01*
X160872091Y-86956655D01*
X160890040Y-86896889D01*
X160914236Y-86843141D01*
X160945458Y-86792280D01*
X160984489Y-86741174D01*
X161008239Y-86713592D01*
X161076276Y-86647376D01*
X161149399Y-86595761D01*
X161230430Y-86557605D01*
X161322188Y-86531765D01*
X161427496Y-86517099D01*
X161549173Y-86512464D01*
X161589641Y-86512941D01*
X161701361Y-86520556D01*
X161797690Y-86538148D01*
X161881529Y-86566617D01*
X161955775Y-86606863D01*
X162023329Y-86659789D01*
X162027392Y-86663523D01*
X162106282Y-86746746D01*
X162165126Y-86832429D01*
X162204962Y-86922070D01*
X162205857Y-86924756D01*
X162213017Y-86946763D01*
X162218754Y-86966862D01*
X162223225Y-86987614D01*
X162226588Y-87011583D01*
X162229000Y-87041329D01*
X162230620Y-87079415D01*
X162231553Y-87125786D01*
X162231606Y-87128403D01*
G37*
G36*
X165616359Y-86968592D02*
G01*
X165616178Y-87064599D01*
X165616178Y-87521564D01*
X165449629Y-87688564D01*
X165283081Y-87855565D01*
X165280264Y-87575272D01*
X165277448Y-87294979D01*
X164920731Y-87294864D01*
X164847613Y-87294760D01*
X164758997Y-87294291D01*
X164687682Y-87293365D01*
X164631402Y-87291892D01*
X164587890Y-87289785D01*
X164554879Y-87286953D01*
X164530102Y-87283307D01*
X164511292Y-87278758D01*
X164449198Y-87253235D01*
X164377469Y-87204781D01*
X164316807Y-87141155D01*
X164270603Y-87065364D01*
X164267812Y-87059355D01*
X164252833Y-87023488D01*
X164244210Y-86991536D01*
X164240316Y-86955160D01*
X164239525Y-86906025D01*
X164239734Y-86897830D01*
X164584916Y-86897830D01*
X164590450Y-86924870D01*
X164592116Y-86927766D01*
X164596741Y-86933038D01*
X164604660Y-86937184D01*
X164618104Y-86940339D01*
X164639304Y-86942638D01*
X164670494Y-86944216D01*
X164713904Y-86945207D01*
X164771767Y-86945749D01*
X164846316Y-86945974D01*
X164939781Y-86946020D01*
X165277793Y-86946020D01*
X165277793Y-86861423D01*
X164939781Y-86861423D01*
X164893502Y-86861431D01*
X164809176Y-86861544D01*
X164742721Y-86861900D01*
X164691906Y-86862636D01*
X164654498Y-86863885D01*
X164628266Y-86865784D01*
X164610977Y-86868467D01*
X164600399Y-86872069D01*
X164594301Y-86876726D01*
X164590450Y-86882572D01*
X164584916Y-86897830D01*
X164239734Y-86897830D01*
X164240798Y-86856167D01*
X164245339Y-86818205D01*
X164254843Y-86784075D01*
X164271008Y-86745104D01*
X164273269Y-86740198D01*
X164320131Y-86664211D01*
X164383383Y-86601418D01*
X164463331Y-86551514D01*
X164531840Y-86517751D01*
X168566470Y-86512197D01*
X168566470Y-87728534D01*
X167181207Y-87728534D01*
X167181207Y-87379575D01*
X168228085Y-87379575D01*
X168228085Y-87294979D01*
X167360974Y-87294979D01*
X167360974Y-86946020D01*
X168228085Y-86946020D01*
X168228085Y-86861423D01*
X167355342Y-86861423D01*
X167234080Y-86739816D01*
X167206204Y-86712076D01*
X167167966Y-86674782D01*
X167136521Y-86645030D01*
X167114545Y-86625334D01*
X167104714Y-86618209D01*
X167104056Y-86620040D01*
X167102544Y-86638564D01*
X167101141Y-86675466D01*
X167099876Y-86728790D01*
X167098776Y-86796584D01*
X167097872Y-86876892D01*
X167097190Y-86967763D01*
X167096761Y-87067240D01*
X167096611Y-87173372D01*
X167096611Y-87728534D01*
X165711349Y-87728534D01*
X165711349Y-87379575D01*
X166747652Y-87379575D01*
X166747652Y-87294979D01*
X165880541Y-87294979D01*
X165880541Y-86946020D01*
X166747652Y-86946020D01*
X166747652Y-86861423D01*
X165885498Y-86861423D01*
X165758934Y-86734529D01*
X165726250Y-86702031D01*
X165687655Y-86664424D01*
X165656053Y-86634515D01*
X165634056Y-86614765D01*
X165624274Y-86607635D01*
X165623177Y-86611846D01*
X165621549Y-86634429D01*
X165620067Y-86674633D01*
X165618769Y-86730306D01*
X165617693Y-86799292D01*
X165616877Y-86879439D01*
X165616490Y-86946020D01*
X165616359Y-86968592D01*
G37*
G36*
X163977127Y-86551505D02*
G01*
X164146320Y-86721053D01*
X164146320Y-87729194D01*
X163377023Y-87726220D01*
X162607727Y-87723247D01*
X162551257Y-87693505D01*
X162492483Y-87656805D01*
X162422793Y-87592687D01*
X162368749Y-87514422D01*
X162367395Y-87511914D01*
X162351342Y-87480630D01*
X162341246Y-87454670D01*
X162335727Y-87427417D01*
X162333404Y-87392254D01*
X162332897Y-87342564D01*
X162333042Y-87312507D01*
X162334722Y-87269106D01*
X162339209Y-87236429D01*
X162347657Y-87207705D01*
X162361215Y-87176166D01*
X162381456Y-87139558D01*
X162430687Y-87076290D01*
X162491238Y-87021291D01*
X162556834Y-86980824D01*
X162618301Y-86951861D01*
X162988410Y-86946297D01*
X163358518Y-86940732D01*
X163362008Y-86910156D01*
X163360804Y-86887153D01*
X163351434Y-86870664D01*
X163349687Y-86870094D01*
X163330746Y-86868164D01*
X163293675Y-86866390D01*
X163240826Y-86864821D01*
X163174551Y-86863507D01*
X163097201Y-86862497D01*
X163011128Y-86861840D01*
X162918685Y-86861585D01*
X162500001Y-86861423D01*
X162157525Y-86517751D01*
X162752734Y-86514530D01*
X162766757Y-86514455D01*
X162910745Y-86513878D01*
X163034590Y-86513765D01*
X163139210Y-86514128D01*
X163225526Y-86514981D01*
X163294454Y-86516336D01*
X163346914Y-86518206D01*
X163383824Y-86520603D01*
X163406103Y-86523540D01*
X163486016Y-86549777D01*
X163561430Y-86595445D01*
X163625940Y-86658234D01*
X163677822Y-86736793D01*
X163690193Y-86762002D01*
X163699189Y-86787006D01*
X163704320Y-86814907D01*
X163706657Y-86851785D01*
X163707273Y-86903721D01*
X163707105Y-86939774D01*
X163705453Y-86982448D01*
X163701264Y-87013941D01*
X163693586Y-87040314D01*
X163681463Y-87067626D01*
X163666710Y-87094243D01*
X163627183Y-87149244D01*
X163580384Y-87199211D01*
X163532997Y-87236535D01*
X163527049Y-87240247D01*
X163505500Y-87253092D01*
X163484857Y-87263492D01*
X163462670Y-87271747D01*
X163436488Y-87278157D01*
X163403861Y-87283022D01*
X163362338Y-87286641D01*
X163309469Y-87289316D01*
X163242804Y-87291347D01*
X163159892Y-87293032D01*
X163058282Y-87294673D01*
X163037949Y-87294988D01*
X162943863Y-87296544D01*
X162868394Y-87298054D01*
X162809418Y-87299653D01*
X162764809Y-87301479D01*
X162732445Y-87303667D01*
X162710200Y-87306354D01*
X162695950Y-87309676D01*
X162687572Y-87313770D01*
X162682941Y-87318771D01*
X162676936Y-87333036D01*
X162682952Y-87355782D01*
X162683043Y-87355925D01*
X162687356Y-87360557D01*
X162695098Y-87364371D01*
X162708238Y-87367465D01*
X162728744Y-87369935D01*
X162758585Y-87371877D01*
X162799731Y-87373388D01*
X162854150Y-87374564D01*
X162923811Y-87375502D01*
X163010684Y-87376298D01*
X163116736Y-87377049D01*
X163538851Y-87379811D01*
X163665297Y-87506587D01*
X163697873Y-87538979D01*
X163736461Y-87576579D01*
X163768060Y-87606485D01*
X163790057Y-87626233D01*
X163799839Y-87633363D01*
X163801210Y-87624320D01*
X163802592Y-87595894D01*
X163803867Y-87549886D01*
X163805010Y-87488135D01*
X163806000Y-87412482D01*
X163806811Y-87324768D01*
X163807419Y-87226833D01*
X163807802Y-87120517D01*
X163807935Y-87007660D01*
X163807935Y-86381957D01*
X163977127Y-86551505D01*
G37*
G36*
X164968697Y-78227988D02*
G01*
X165079042Y-78228128D01*
X165174466Y-78228402D01*
X165256296Y-78228834D01*
X165325862Y-78229449D01*
X165384491Y-78230272D01*
X165433511Y-78231327D01*
X165474249Y-78232640D01*
X165508035Y-78234235D01*
X165536197Y-78236137D01*
X165560061Y-78238370D01*
X165580956Y-78240959D01*
X165600211Y-78243930D01*
X165619153Y-78247306D01*
X165639111Y-78251113D01*
X165732293Y-78271768D01*
X165889112Y-78320112D01*
X166044446Y-78386148D01*
X166058223Y-78392834D01*
X166117217Y-78422981D01*
X166169649Y-78453107D01*
X166221056Y-78486790D01*
X166276975Y-78527612D01*
X166342942Y-78579152D01*
X166368574Y-78600036D01*
X166502156Y-78723925D01*
X166628371Y-78866850D01*
X166746785Y-79027995D01*
X166856966Y-79206540D01*
X166958482Y-79401669D01*
X167050901Y-79612563D01*
X167133790Y-79838404D01*
X167206717Y-80078375D01*
X167269249Y-80331656D01*
X167290074Y-80427439D01*
X167308616Y-80516159D01*
X167324737Y-80598282D01*
X167338871Y-80676886D01*
X167351456Y-80755047D01*
X167362928Y-80835843D01*
X167373722Y-80922349D01*
X167384275Y-81017644D01*
X167395023Y-81124804D01*
X167406403Y-81246905D01*
X167418850Y-81387025D01*
X167419632Y-81396964D01*
X167419979Y-81428990D01*
X167415327Y-81440673D01*
X167405876Y-81431899D01*
X167391825Y-81402554D01*
X167381729Y-81381190D01*
X167359604Y-81340676D01*
X167330188Y-81290759D01*
X167296248Y-81235984D01*
X167260551Y-81180894D01*
X167225866Y-81130033D01*
X167220505Y-81122601D01*
X167182839Y-81075888D01*
X167133291Y-81020815D01*
X167075878Y-80961335D01*
X167014620Y-80901399D01*
X166953535Y-80844959D01*
X166896641Y-80795967D01*
X166847957Y-80758376D01*
X166763900Y-80701625D01*
X166678052Y-80649912D01*
X166588649Y-80602935D01*
X166491373Y-80558588D01*
X166381908Y-80514763D01*
X166255937Y-80469353D01*
X166207818Y-80453916D01*
X166110817Y-80427766D01*
X165997156Y-80402232D01*
X165869658Y-80377880D01*
X165731150Y-80355274D01*
X165584455Y-80334980D01*
X165573538Y-80333609D01*
X165531372Y-80328554D01*
X165491375Y-80324327D01*
X165451214Y-80320851D01*
X165408558Y-80318051D01*
X165361075Y-80315851D01*
X165306434Y-80314177D01*
X165242302Y-80312952D01*
X165166348Y-80312102D01*
X165076241Y-80311551D01*
X164969648Y-80311223D01*
X164844238Y-80311043D01*
X164695081Y-80311177D01*
X164550259Y-80311911D01*
X164418860Y-80313226D01*
X164301847Y-80315095D01*
X164200188Y-80317490D01*
X164114847Y-80320384D01*
X164046790Y-80323750D01*
X163996983Y-80327558D01*
X163966390Y-80331783D01*
X163955978Y-80336396D01*
X163957136Y-80337621D01*
X163971699Y-80348015D01*
X164001169Y-80367576D01*
X164043275Y-80394872D01*
X164095749Y-80428474D01*
X164156323Y-80466951D01*
X164222726Y-80508875D01*
X164292691Y-80552815D01*
X164363949Y-80597341D01*
X164434230Y-80641023D01*
X164501266Y-80682431D01*
X164562788Y-80720136D01*
X164616528Y-80752707D01*
X164634960Y-80763898D01*
X164673892Y-80787929D01*
X164716847Y-80814791D01*
X164758313Y-80841010D01*
X164792778Y-80863114D01*
X164814730Y-80877627D01*
X164816457Y-80878812D01*
X164837347Y-80891975D01*
X164849178Y-80897393D01*
X164858758Y-80902193D01*
X164882636Y-80916405D01*
X164916960Y-80937763D01*
X164957995Y-80963983D01*
X164962317Y-80966774D01*
X165012973Y-80999231D01*
X165073637Y-81037756D01*
X165137069Y-81077764D01*
X165196026Y-81114670D01*
X165213346Y-81125467D01*
X165264692Y-81157563D01*
X165311970Y-81187238D01*
X165350548Y-81211580D01*
X165375793Y-81227676D01*
X165390984Y-81237348D01*
X165418505Y-81254173D01*
X165436411Y-81264187D01*
X165442776Y-81267562D01*
X165465952Y-81281390D01*
X165494571Y-81299688D01*
X165495015Y-81299981D01*
X165533880Y-81325280D01*
X165584928Y-81358045D01*
X165642459Y-81394634D01*
X165700774Y-81431407D01*
X165737427Y-81454607D01*
X165787316Y-81486521D01*
X165846178Y-81524414D01*
X165911581Y-81566699D01*
X165981093Y-81611789D01*
X166052284Y-81658101D01*
X166122723Y-81704046D01*
X166189977Y-81748040D01*
X166251617Y-81788497D01*
X166305211Y-81823830D01*
X166348328Y-81852454D01*
X166378536Y-81872783D01*
X166393405Y-81883230D01*
X166405679Y-81891990D01*
X166430650Y-81909101D01*
X166462140Y-81930288D01*
X166477122Y-81940361D01*
X166645690Y-82064771D01*
X166797929Y-82198354D01*
X166932450Y-82339789D01*
X167047861Y-82487751D01*
X167066137Y-82515171D01*
X167105391Y-82580640D01*
X167145467Y-82654765D01*
X167182378Y-82730000D01*
X167212139Y-82798799D01*
X167218699Y-82816130D01*
X167245048Y-82899958D01*
X167268866Y-82997709D01*
X167289146Y-83103581D01*
X167304879Y-83211774D01*
X167315059Y-83316486D01*
X167318676Y-83411917D01*
X167318409Y-83438670D01*
X167314250Y-83531671D01*
X167305548Y-83634632D01*
X167292942Y-83743665D01*
X167277073Y-83854884D01*
X167258581Y-83964399D01*
X167238105Y-84068323D01*
X167216287Y-84162769D01*
X167193766Y-84243850D01*
X167171183Y-84307676D01*
X167169440Y-84311909D01*
X167159618Y-84336150D01*
X167145201Y-84372022D01*
X167128645Y-84413422D01*
X167093903Y-84492976D01*
X167049768Y-84581532D01*
X167002106Y-84667196D01*
X166955531Y-84741232D01*
X166936568Y-84768519D01*
X166820195Y-84915545D01*
X166688360Y-85049865D01*
X166540708Y-85171695D01*
X166376883Y-85281255D01*
X166196528Y-85378763D01*
X165999289Y-85464437D01*
X165784808Y-85538494D01*
X165552731Y-85601154D01*
X165471814Y-85620031D01*
X165370865Y-85642438D01*
X165281182Y-85660587D01*
X165197452Y-85675396D01*
X165114360Y-85687782D01*
X165026592Y-85698664D01*
X164928834Y-85708961D01*
X164897537Y-85711210D01*
X164842150Y-85713248D01*
X164774574Y-85714286D01*
X164698974Y-85714392D01*
X164619518Y-85713632D01*
X164540372Y-85712071D01*
X164465703Y-85709776D01*
X164399677Y-85706813D01*
X164346463Y-85703247D01*
X164310225Y-85699146D01*
X164278465Y-85694198D01*
X164229344Y-85687010D01*
X164172410Y-85679008D01*
X164114596Y-85671184D01*
X164110681Y-85670663D01*
X164059479Y-85663368D01*
X164015614Y-85656275D01*
X163983637Y-85650170D01*
X163968101Y-85645842D01*
X163967669Y-85645137D01*
X163978718Y-85642413D01*
X164007242Y-85639507D01*
X164050377Y-85636622D01*
X164105256Y-85633957D01*
X164169017Y-85631715D01*
X164380394Y-85617482D01*
X164586170Y-85586605D01*
X164780168Y-85539510D01*
X164961887Y-85476466D01*
X165130827Y-85397740D01*
X165286486Y-85303599D01*
X165428364Y-85194312D01*
X165555960Y-85070145D01*
X165668775Y-84931366D01*
X165766306Y-84778243D01*
X165781989Y-84749645D01*
X165807942Y-84699967D01*
X165830403Y-84654242D01*
X165845788Y-84619625D01*
X165847637Y-84614963D01*
X165888791Y-84486671D01*
X165909362Y-84363074D01*
X165909420Y-84244318D01*
X165889032Y-84130549D01*
X165848269Y-84021911D01*
X165787199Y-83918550D01*
X165705892Y-83820611D01*
X165604417Y-83728239D01*
X165482844Y-83641579D01*
X165341241Y-83560777D01*
X165311241Y-83545600D01*
X165218562Y-83501767D01*
X165124348Y-83462232D01*
X165025347Y-83425934D01*
X164918306Y-83391813D01*
X164799975Y-83358809D01*
X164667099Y-83325861D01*
X164516428Y-83291911D01*
X164492207Y-83287224D01*
X164444559Y-83279243D01*
X164383639Y-83269888D01*
X164313880Y-83259769D01*
X164239717Y-83249496D01*
X164165583Y-83239682D01*
X164095913Y-83230935D01*
X164035142Y-83223868D01*
X163987702Y-83219090D01*
X163987524Y-83219074D01*
X163954949Y-83216635D01*
X163905971Y-83213473D01*
X163845275Y-83209866D01*
X163777549Y-83206092D01*
X163707477Y-83202431D01*
X163624160Y-83197926D01*
X163534866Y-83192017D01*
X163459915Y-83185429D01*
X163395506Y-83177691D01*
X163337841Y-83168330D01*
X163283120Y-83156874D01*
X163227543Y-83142853D01*
X163077666Y-83093119D01*
X162921032Y-83019857D01*
X162771022Y-82926753D01*
X162627955Y-82814032D01*
X162492149Y-82681921D01*
X162363924Y-82530645D01*
X162357369Y-82522016D01*
X162329673Y-82483555D01*
X162296777Y-82435684D01*
X162262186Y-82383722D01*
X162229405Y-82332989D01*
X162201938Y-82288804D01*
X162183290Y-82256486D01*
X162099567Y-82090172D01*
X162022038Y-81915581D01*
X161959183Y-81749177D01*
X161911994Y-81593383D01*
X161896328Y-81533295D01*
X161966515Y-81538132D01*
X162004580Y-81540696D01*
X162075047Y-81545094D01*
X162146143Y-81549016D01*
X162219446Y-81552492D01*
X162296534Y-81555553D01*
X162378986Y-81558230D01*
X162468381Y-81560552D01*
X162566296Y-81562550D01*
X162674310Y-81564254D01*
X162794003Y-81565695D01*
X162926952Y-81566903D01*
X163074735Y-81567909D01*
X163238933Y-81568743D01*
X163421122Y-81569435D01*
X163622881Y-81570015D01*
X163688963Y-81570193D01*
X163890986Y-81570892D01*
X164076936Y-81571777D01*
X164246251Y-81572844D01*
X164398365Y-81574086D01*
X164532715Y-81575496D01*
X164648737Y-81577068D01*
X164745866Y-81578795D01*
X164823539Y-81580671D01*
X164881192Y-81582689D01*
X164918260Y-81584844D01*
X164947611Y-81587432D01*
X165115442Y-81606904D01*
X165288653Y-81634205D01*
X165458484Y-81667813D01*
X165616178Y-81706203D01*
X165640729Y-81712488D01*
X165671651Y-81719282D01*
X165690200Y-81721898D01*
X165690976Y-81721260D01*
X165682509Y-81713091D01*
X165661220Y-81697537D01*
X165631075Y-81677172D01*
X165596034Y-81654571D01*
X165560061Y-81632308D01*
X165527119Y-81612957D01*
X165501170Y-81599093D01*
X165500426Y-81598717D01*
X165485010Y-81590170D01*
X165454766Y-81572935D01*
X165412742Y-81548764D01*
X165361985Y-81519409D01*
X165305541Y-81486622D01*
X165304311Y-81485906D01*
X165236405Y-81446453D01*
X165156803Y-81400321D01*
X165072022Y-81351276D01*
X164988573Y-81303089D01*
X164912972Y-81259527D01*
X164881690Y-81241517D01*
X164821524Y-81206819D01*
X164767582Y-81175635D01*
X164722891Y-81149720D01*
X164690482Y-81130829D01*
X164673383Y-81120716D01*
X164662121Y-81114039D01*
X164632989Y-81097124D01*
X164591822Y-81073435D01*
X164542357Y-81045118D01*
X164488329Y-81014321D01*
X164431398Y-80981873D01*
X164359302Y-80940665D01*
X164280975Y-80895804D01*
X164202625Y-80850846D01*
X164130458Y-80809346D01*
X164104299Y-80794284D01*
X164029344Y-80751184D01*
X163968723Y-80716445D01*
X163919396Y-80688349D01*
X163878324Y-80665180D01*
X163842468Y-80645220D01*
X163808788Y-80626750D01*
X163774245Y-80608054D01*
X163749010Y-80594135D01*
X163719851Y-80577163D01*
X163702190Y-80565756D01*
X163689909Y-80557191D01*
X163665179Y-80542182D01*
X163662275Y-80540597D01*
X163607445Y-80510427D01*
X163556391Y-80481920D01*
X163514063Y-80457861D01*
X163485412Y-80441035D01*
X163455589Y-80423823D01*
X163427252Y-80408923D01*
X163403062Y-80395910D01*
X163373479Y-80377635D01*
X163370481Y-80375664D01*
X163358286Y-80369382D01*
X163342897Y-80365435D01*
X163320737Y-80363691D01*
X163288228Y-80364016D01*
X163241792Y-80366277D01*
X163177850Y-80370340D01*
X163168530Y-80370932D01*
X163110232Y-80373834D01*
X163036139Y-80376531D01*
X162950720Y-80378912D01*
X162858442Y-80380865D01*
X162763771Y-80382277D01*
X162671174Y-80383038D01*
X162606834Y-80383251D01*
X162517421Y-80383171D01*
X162444143Y-80382460D01*
X162383897Y-80380995D01*
X162333580Y-80378657D01*
X162290090Y-80375327D01*
X162250325Y-80370882D01*
X162211182Y-80365204D01*
X162050508Y-80334705D01*
X161864073Y-80284621D01*
X161691212Y-80220241D01*
X161530013Y-80140593D01*
X161378560Y-80044707D01*
X161234941Y-79931613D01*
X161097241Y-79800339D01*
X161043281Y-79742567D01*
X160975954Y-79663903D01*
X160915213Y-79583537D01*
X160857847Y-79496845D01*
X160800648Y-79399200D01*
X160740408Y-79285977D01*
X160684844Y-79170389D01*
X160607993Y-78979862D01*
X160542820Y-78775595D01*
X160488479Y-78555137D01*
X160484631Y-78536364D01*
X160476228Y-78490578D01*
X160467858Y-78439627D01*
X160460121Y-78387845D01*
X160453617Y-78339565D01*
X160448945Y-78299121D01*
X160446705Y-78270845D01*
X160447497Y-78259071D01*
X160447614Y-78259020D01*
X160460313Y-78258252D01*
X160492853Y-78257377D01*
X160544012Y-78256406D01*
X160612570Y-78255347D01*
X160697305Y-78254210D01*
X160796998Y-78253005D01*
X160910428Y-78251740D01*
X161036374Y-78250426D01*
X161173615Y-78249072D01*
X161320930Y-78247688D01*
X161477100Y-78246282D01*
X161640904Y-78244865D01*
X161811120Y-78243446D01*
X161986528Y-78242034D01*
X162165908Y-78240640D01*
X162348039Y-78239272D01*
X162531700Y-78237940D01*
X162715671Y-78236653D01*
X162898731Y-78235422D01*
X163079659Y-78234255D01*
X163257235Y-78233161D01*
X163430238Y-78232152D01*
X163597447Y-78231235D01*
X163757642Y-78230421D01*
X163909603Y-78229719D01*
X164052107Y-78229139D01*
X164183936Y-78228689D01*
X164303868Y-78228380D01*
X164410683Y-78228221D01*
X164534857Y-78228122D01*
X164697933Y-78228010D01*
X164842104Y-78227957D01*
X164968697Y-78227988D01*
G37*
D13*
X152175580Y-101795000D02*
X151894420Y-101795000D01*
X152175580Y-102815000D02*
X151894420Y-102815000D01*
X145630900Y-87033580D02*
X145630900Y-86752420D01*
X146650900Y-87033580D02*
X146650900Y-86752420D01*
X163650580Y-123130000D02*
X163369420Y-123130000D01*
X163650580Y-124150000D02*
X163369420Y-124150000D01*
X150832500Y-78475000D02*
X150832500Y-83985000D01*
X150832500Y-83985000D02*
X154132500Y-83985000D01*
X154132500Y-78475000D02*
X154132500Y-83985000D01*
X146470000Y-101329420D02*
X146470000Y-101610580D01*
X147490000Y-101329420D02*
X147490000Y-101610580D01*
X148000580Y-98125000D02*
X147719420Y-98125000D01*
X148000580Y-99145000D02*
X147719420Y-99145000D01*
X143527742Y-90167500D02*
X144002258Y-90167500D01*
X143527742Y-91212500D02*
X144002258Y-91212500D01*
X147447500Y-90142258D02*
X147447500Y-89667742D01*
X148492500Y-90142258D02*
X148492500Y-89667742D01*
X127590000Y-94690000D02*
X133100000Y-94690000D01*
X127590000Y-97990000D02*
X133100000Y-97990000D01*
X133100000Y-97990000D02*
X133100000Y-94690000D01*
X147466300Y-87039580D02*
X147466300Y-86758420D01*
X148486300Y-87039580D02*
X148486300Y-86758420D01*
X145630000Y-89764420D02*
X145630000Y-90045580D01*
X146650000Y-89764420D02*
X146650000Y-90045580D01*
X128451000Y-103712258D02*
X128451000Y-103237742D01*
X129496000Y-103712258D02*
X129496000Y-103237742D01*
X148210000Y-101329420D02*
X148210000Y-101610580D01*
X149230000Y-101329420D02*
X149230000Y-101610580D01*
X153194758Y-85592500D02*
X152720242Y-85592500D01*
X153194758Y-86637500D02*
X152720242Y-86637500D01*
X141148642Y-76670500D02*
X141623158Y-76670500D01*
X141148642Y-77715500D02*
X141623158Y-77715500D01*
X143766300Y-87039580D02*
X143766300Y-86758420D01*
X144786300Y-87039580D02*
X144786300Y-86758420D01*
X143242500Y-78345000D02*
X143242500Y-82105000D01*
X144502500Y-78345000D02*
X143242500Y-78345000D01*
X148802500Y-78345000D02*
X150062500Y-78345000D01*
X150062500Y-78345000D02*
X150062500Y-82105000D01*
X150292500Y-83625000D02*
X149962500Y-83385000D01*
X150292500Y-83145000D01*
X150292500Y-83625000D01*
G36*
X150292500Y-83625000D02*
G01*
X149962500Y-83385000D01*
X150292500Y-83145000D01*
X150292500Y-83625000D01*
G37*
X156530000Y-111145580D02*
X156530000Y-110864420D01*
X157550000Y-111145580D02*
X157550000Y-110864420D01*
X152856920Y-87215000D02*
X153138080Y-87215000D01*
X152856920Y-88235000D02*
X153138080Y-88235000D01*
X149496300Y-87039580D02*
X149496300Y-86758420D01*
X150516300Y-87039580D02*
X150516300Y-86758420D01*
X158200000Y-111145580D02*
X158200000Y-110864420D01*
X159220000Y-111145580D02*
X159220000Y-110864420D01*
X147729420Y-103755000D02*
X148010580Y-103755000D01*
X147729420Y-104775000D02*
X148010580Y-104775000D01*
X162555580Y-95240000D02*
X162274420Y-95240000D01*
X162555580Y-96260000D02*
X162274420Y-96260000D01*
X151909420Y-103745000D02*
X152190580Y-103745000D01*
X151909420Y-104765000D02*
X152190580Y-104765000D01*
%LPC*%
D15*
X113882500Y-109605000D03*
D16*
X116382500Y-109605000D03*
X118882500Y-109605000D03*
D17*
X149202500Y-74285000D03*
D16*
X146702500Y-74285000D03*
X144202500Y-74285000D03*
X141702500Y-74285000D03*
X139202500Y-74285000D03*
D18*
X108112500Y-99215000D03*
X108112500Y-107415000D03*
D19*
X108112500Y-101315000D03*
D20*
X108112500Y-103315000D03*
X108112500Y-105315000D03*
D21*
X153412500Y-112215000D03*
D22*
X150872500Y-112215000D03*
X148332500Y-112215000D03*
X145792500Y-112215000D03*
D15*
X125002500Y-131542000D03*
D16*
X127502500Y-131542000D03*
X130002500Y-131542000D03*
D23*
X158660000Y-117750000D03*
D24*
X156660000Y-117750000D03*
X154660000Y-117750000D03*
X152660000Y-117750000D03*
X150660000Y-117750000D03*
X148660000Y-117750000D03*
X146660000Y-117750000D03*
X144660000Y-117750000D03*
X142660000Y-117750000D03*
X140660000Y-117750000D03*
X140660000Y-139750000D03*
X142660000Y-139750000D03*
X144660000Y-139750000D03*
X146660000Y-139750000D03*
X148660000Y-139750000D03*
X150660000Y-139750000D03*
X152660000Y-139750000D03*
X154660000Y-139750000D03*
X156660000Y-139750000D03*
X158660000Y-139750000D03*
D25*
X135785000Y-96985000D03*
X135785000Y-95085000D03*
D15*
X125002500Y-124324000D03*
D16*
X127502500Y-124324000D03*
X130002500Y-124324000D03*
D26*
X166222500Y-73675000D03*
X158222500Y-73675000D03*
D21*
X109412500Y-95035000D03*
D22*
X109412500Y-92495000D03*
D21*
X174910000Y-98980000D03*
D22*
X172370000Y-98980000D03*
X169830000Y-98980000D03*
X167290000Y-98980000D03*
D15*
X125032500Y-117205000D03*
D16*
X127532500Y-117205000D03*
X130032500Y-117205000D03*
D15*
X113882500Y-116965000D03*
D16*
X116382500Y-116965000D03*
X118882500Y-116965000D03*
D17*
X133142500Y-74285000D03*
D16*
X130642500Y-74285000D03*
X128142500Y-74285000D03*
X125642500Y-74285000D03*
D27*
X140245000Y-80340000D03*
D28*
X140245000Y-82840000D03*
X140245000Y-85340000D03*
X140245000Y-87840000D03*
D15*
X114902500Y-101715000D03*
D16*
X117402500Y-101715000D03*
X119902500Y-101715000D03*
X122402500Y-101715000D03*
D29*
X161630400Y-94036200D03*
X163180400Y-94036200D03*
D30*
X141380000Y-128800000D03*
D31*
X161380000Y-128800000D03*
D32*
X146985000Y-96585000D03*
X146985000Y-95035000D03*
D33*
X131513500Y-104323500D03*
X131513500Y-102673500D03*
D34*
X160800000Y-119850000D03*
X162700000Y-119850000D03*
X161750000Y-121725000D03*
D29*
X151260000Y-102305000D03*
X152810000Y-102305000D03*
D35*
X146140900Y-86118000D03*
X146140900Y-87668000D03*
D29*
X162735000Y-123640000D03*
X164285000Y-123640000D03*
D36*
X152482500Y-82475000D03*
X152482500Y-78475000D03*
D32*
X146980000Y-102245000D03*
X146980000Y-100695000D03*
D29*
X147085000Y-98635000D03*
X148635000Y-98635000D03*
D37*
X144590000Y-90690000D03*
X142940000Y-90690000D03*
D38*
X147970000Y-89080000D03*
X147970000Y-90730000D03*
D39*
X131590000Y-96340000D03*
X127590000Y-96340000D03*
D35*
X147976300Y-86124000D03*
X147976300Y-87674000D03*
D32*
X146140000Y-90680000D03*
X146140000Y-89130000D03*
D38*
X128973500Y-102650000D03*
X128973500Y-104300000D03*
D32*
X148720000Y-102245000D03*
X148720000Y-100695000D03*
D40*
X152132500Y-86115000D03*
X153782500Y-86115000D03*
D37*
X142210900Y-77193000D03*
X140560900Y-77193000D03*
D35*
X144276300Y-86124000D03*
X144276300Y-87674000D03*
D41*
X148952500Y-83405000D03*
X146652500Y-83405000D03*
D42*
X146652500Y-77105000D03*
D41*
X144352500Y-83405000D03*
D35*
X157040000Y-110230000D03*
X157040000Y-111780000D03*
D43*
X153772500Y-87725000D03*
X152222500Y-87725000D03*
D35*
X150006300Y-86124000D03*
X150006300Y-87674000D03*
X158710000Y-110230000D03*
X158710000Y-111780000D03*
D43*
X148645000Y-104265000D03*
X147095000Y-104265000D03*
D29*
X161640000Y-95750000D03*
X163190000Y-95750000D03*
D43*
X152825000Y-104255000D03*
X151275000Y-104255000D03*
%LPD*%
M02*
