G04 #@! TF.GenerationSoftware,KiCad,Pcbnew,8.0.5*
G04 #@! TF.CreationDate,2024-11-26T16:03:35+07:00*
G04 #@! TF.ProjectId,probe06-ivy,70726f62-6530-4362-9d69-76792e6b6963,1*
G04 #@! TF.SameCoordinates,Original*
G04 #@! TF.FileFunction,Paste,Bot*
G04 #@! TF.FilePolarity,Positive*
%FSLAX46Y46*%
G04 Gerber Fmt 4.6, Leading zero omitted, Abs format (unit mm)*
G04 Created by KiCad (PCBNEW 8.0.5) date 2024-11-26 16:03:35*
%MOMM*%
%LPD*%
G01*
G04 APERTURE LIST*
G04 Aperture macros list*
%AMRoundRect*
0 Rectangle with rounded corners*
0 $1 Rounding radius*
0 $2 $3 $4 $5 $6 $7 $8 $9 X,Y pos of 4 corners*
0 Add a 4 corners polygon primitive as box body*
4,1,4,$2,$3,$4,$5,$6,$7,$8,$9,$2,$3,0*
0 Add four circle primitives for the rounded corners*
1,1,$1+$1,$2,$3*
1,1,$1+$1,$4,$5*
1,1,$1+$1,$6,$7*
1,1,$1+$1,$8,$9*
0 Add four rect primitives between the rounded corners*
20,1,$1+$1,$2,$3,$4,$5,0*
20,1,$1+$1,$4,$5,$6,$7,0*
20,1,$1+$1,$6,$7,$8,$9,0*
20,1,$1+$1,$8,$9,$2,$3,0*%
G04 Aperture macros list end*
%ADD10RoundRect,0.225000X-0.225000X-0.250000X0.225000X-0.250000X0.225000X0.250000X-0.225000X0.250000X0*%
%ADD11RoundRect,0.225000X0.250000X-0.225000X0.250000X0.225000X-0.250000X0.225000X-0.250000X-0.225000X0*%
%ADD12RoundRect,0.200000X0.275000X-0.200000X0.275000X0.200000X-0.275000X0.200000X-0.275000X-0.200000X0*%
%ADD13RoundRect,0.150000X-0.150000X0.587500X-0.150000X-0.587500X0.150000X-0.587500X0.150000X0.587500X0*%
%ADD14RoundRect,0.225000X-0.250000X0.225000X-0.250000X-0.225000X0.250000X-0.225000X0.250000X0.225000X0*%
%ADD15RoundRect,0.250000X0.650000X-1.000000X0.650000X1.000000X-0.650000X1.000000X-0.650000X-1.000000X0*%
%ADD16RoundRect,0.200000X0.200000X0.275000X-0.200000X0.275000X-0.200000X-0.275000X0.200000X-0.275000X0*%
%ADD17RoundRect,0.200000X-0.275000X0.200000X-0.275000X-0.200000X0.275000X-0.200000X0.275000X0.200000X0*%
%ADD18RoundRect,0.250000X1.000000X0.650000X-1.000000X0.650000X-1.000000X-0.650000X1.000000X-0.650000X0*%
%ADD19RoundRect,0.200000X-0.200000X-0.275000X0.200000X-0.275000X0.200000X0.275000X-0.200000X0.275000X0*%
%ADD20RoundRect,0.375000X0.375000X-0.625000X0.375000X0.625000X-0.375000X0.625000X-0.375000X-0.625000X0*%
%ADD21RoundRect,0.500000X1.400000X-0.500000X1.400000X0.500000X-1.400000X0.500000X-1.400000X-0.500000X0*%
%ADD22RoundRect,0.225000X0.225000X0.250000X-0.225000X0.250000X-0.225000X-0.250000X0.225000X-0.250000X0*%
G04 APERTURE END LIST*
D10*
X161630400Y-94036200D03*
X163180400Y-94036200D03*
D11*
X146985000Y-96585000D03*
X146985000Y-95035000D03*
D12*
X131513500Y-104323500D03*
X131513500Y-102673500D03*
D13*
X160800000Y-119850000D03*
X162700000Y-119850000D03*
X161750000Y-121725000D03*
D10*
X151260000Y-102305000D03*
X152810000Y-102305000D03*
D14*
X146140900Y-86118000D03*
X146140900Y-87668000D03*
D10*
X162735000Y-123640000D03*
X164285000Y-123640000D03*
D15*
X152482500Y-82475000D03*
X152482500Y-78475000D03*
D11*
X146980000Y-102245000D03*
X146980000Y-100695000D03*
D10*
X147085000Y-98635000D03*
X148635000Y-98635000D03*
D16*
X144590000Y-90690000D03*
X142940000Y-90690000D03*
D17*
X147970000Y-89080000D03*
X147970000Y-90730000D03*
D18*
X131590000Y-96340000D03*
X127590000Y-96340000D03*
D14*
X147976300Y-86124000D03*
X147976300Y-87674000D03*
D11*
X146140000Y-90680000D03*
X146140000Y-89130000D03*
D17*
X128973500Y-102650000D03*
X128973500Y-104300000D03*
D11*
X148720000Y-102245000D03*
X148720000Y-100695000D03*
D19*
X152132500Y-86115000D03*
X153782500Y-86115000D03*
D16*
X142210900Y-77193000D03*
X140560900Y-77193000D03*
D14*
X144276300Y-86124000D03*
X144276300Y-87674000D03*
D20*
X148952500Y-83405000D03*
X146652500Y-83405000D03*
D21*
X146652500Y-77105000D03*
D20*
X144352500Y-83405000D03*
D14*
X157040000Y-110230000D03*
X157040000Y-111780000D03*
D22*
X153772500Y-87725000D03*
X152222500Y-87725000D03*
D14*
X150006300Y-86124000D03*
X150006300Y-87674000D03*
X158710000Y-110230000D03*
X158710000Y-111780000D03*
D22*
X148645000Y-104265000D03*
X147095000Y-104265000D03*
D10*
X161640000Y-95750000D03*
X163190000Y-95750000D03*
D22*
X152825000Y-104255000D03*
X151275000Y-104255000D03*
M02*
