%TF.GenerationSoftware,KiCad,Pcbnew,8.0.5*%
%TF.CreationDate,2024-11-26T16:03:45+07:00*%
%TF.ProjectId,probe06-ivy,70726f62-6530-4362-9d69-76792e6b6963,1*%
%TF.SameCoordinates,Original*%
%TF.FileFunction,Drillmap*%
%TF.FilePolarity,Positive*%
%FSLAX45Y45*%
G04 Gerber Fmt 4.5, Leading zero omitted, Abs format (unit mm)*
G04 Created by KiCad (PCBNEW 8.0.5) date 2024-11-26 16:03:45*
%MOMM*%
%LPD*%
G01*
G04 APERTURE LIST*
%ADD10C,0.100000*%
%ADD11C,0.200000*%
G04 APERTURE END LIST*
D10*
X11427052Y-8406500D02*
G75*
G02*
X11127052Y-8406500I-150000J0D01*
G01*
X11127052Y-8406500D02*
G75*
G02*
X11427052Y-8406500I150000J0D01*
G01*
X18095448Y-8406500D02*
G75*
G02*
X17795448Y-8406500I-150000J0D01*
G01*
X17795448Y-8406500D02*
G75*
G02*
X18095448Y-8406500I150000J0D01*
G01*
X11427052Y-12256500D02*
G75*
G02*
X11127052Y-12256500I-150000J0D01*
G01*
X11127052Y-12256500D02*
G75*
G02*
X11427052Y-12256500I150000J0D01*
G01*
X18095448Y-12256500D02*
G75*
G02*
X17795448Y-12256500I-150000J0D01*
G01*
X17795448Y-12256500D02*
G75*
G02*
X18095448Y-12256500I150000J0D01*
G01*
X18661250Y-10331500D02*
G75*
G02*
X10561250Y-10331500I-4050000J0D01*
G01*
X10561250Y-10331500D02*
G75*
G02*
X18661250Y-10331500I4050000J0D01*
G01*
D11*
D10*
X15777250Y-7322500D02*
X15867250Y-7412500D01*
X15867250Y-7322500D02*
X15777250Y-7412500D01*
X16577250Y-7322500D02*
X16667250Y-7412500D01*
X16667250Y-7322500D02*
X16577250Y-7412500D01*
D11*
X10817027Y-14697984D02*
X10817027Y-14497984D01*
X10817027Y-14497984D02*
X10864646Y-14497984D01*
X10864646Y-14497984D02*
X10893217Y-14507508D01*
X10893217Y-14507508D02*
X10912265Y-14526555D01*
X10912265Y-14526555D02*
X10921789Y-14545603D01*
X10921789Y-14545603D02*
X10931313Y-14583698D01*
X10931313Y-14583698D02*
X10931313Y-14612269D01*
X10931313Y-14612269D02*
X10921789Y-14650365D01*
X10921789Y-14650365D02*
X10912265Y-14669412D01*
X10912265Y-14669412D02*
X10893217Y-14688460D01*
X10893217Y-14688460D02*
X10864646Y-14697984D01*
X10864646Y-14697984D02*
X10817027Y-14697984D01*
X11017027Y-14697984D02*
X11017027Y-14564650D01*
X11017027Y-14602746D02*
X11026551Y-14583698D01*
X11026551Y-14583698D02*
X11036074Y-14574174D01*
X11036074Y-14574174D02*
X11055122Y-14564650D01*
X11055122Y-14564650D02*
X11074170Y-14564650D01*
X11140836Y-14697984D02*
X11140836Y-14564650D01*
X11140836Y-14497984D02*
X11131313Y-14507508D01*
X11131313Y-14507508D02*
X11140836Y-14517031D01*
X11140836Y-14517031D02*
X11150360Y-14507508D01*
X11150360Y-14507508D02*
X11140836Y-14497984D01*
X11140836Y-14497984D02*
X11140836Y-14517031D01*
X11264646Y-14697984D02*
X11245598Y-14688460D01*
X11245598Y-14688460D02*
X11236074Y-14669412D01*
X11236074Y-14669412D02*
X11236074Y-14497984D01*
X11369408Y-14697984D02*
X11350360Y-14688460D01*
X11350360Y-14688460D02*
X11340836Y-14669412D01*
X11340836Y-14669412D02*
X11340836Y-14497984D01*
X11597979Y-14697984D02*
X11597979Y-14497984D01*
X11597979Y-14497984D02*
X11664646Y-14640841D01*
X11664646Y-14640841D02*
X11731312Y-14497984D01*
X11731312Y-14497984D02*
X11731312Y-14697984D01*
X11912265Y-14697984D02*
X11912265Y-14593222D01*
X11912265Y-14593222D02*
X11902741Y-14574174D01*
X11902741Y-14574174D02*
X11883693Y-14564650D01*
X11883693Y-14564650D02*
X11845598Y-14564650D01*
X11845598Y-14564650D02*
X11826551Y-14574174D01*
X11912265Y-14688460D02*
X11893217Y-14697984D01*
X11893217Y-14697984D02*
X11845598Y-14697984D01*
X11845598Y-14697984D02*
X11826551Y-14688460D01*
X11826551Y-14688460D02*
X11817027Y-14669412D01*
X11817027Y-14669412D02*
X11817027Y-14650365D01*
X11817027Y-14650365D02*
X11826551Y-14631317D01*
X11826551Y-14631317D02*
X11845598Y-14621793D01*
X11845598Y-14621793D02*
X11893217Y-14621793D01*
X11893217Y-14621793D02*
X11912265Y-14612269D01*
X12007503Y-14564650D02*
X12007503Y-14764650D01*
X12007503Y-14574174D02*
X12026551Y-14564650D01*
X12026551Y-14564650D02*
X12064646Y-14564650D01*
X12064646Y-14564650D02*
X12083693Y-14574174D01*
X12083693Y-14574174D02*
X12093217Y-14583698D01*
X12093217Y-14583698D02*
X12102741Y-14602746D01*
X12102741Y-14602746D02*
X12102741Y-14659888D01*
X12102741Y-14659888D02*
X12093217Y-14678936D01*
X12093217Y-14678936D02*
X12083693Y-14688460D01*
X12083693Y-14688460D02*
X12064646Y-14697984D01*
X12064646Y-14697984D02*
X12026551Y-14697984D01*
X12026551Y-14697984D02*
X12007503Y-14688460D01*
X12188455Y-14678936D02*
X12197979Y-14688460D01*
X12197979Y-14688460D02*
X12188455Y-14697984D01*
X12188455Y-14697984D02*
X12178932Y-14688460D01*
X12178932Y-14688460D02*
X12188455Y-14678936D01*
X12188455Y-14678936D02*
X12188455Y-14697984D01*
X12188455Y-14574174D02*
X12197979Y-14583698D01*
X12197979Y-14583698D02*
X12188455Y-14593222D01*
X12188455Y-14593222D02*
X12178932Y-14583698D01*
X12178932Y-14583698D02*
X12188455Y-14574174D01*
X12188455Y-14574174D02*
X12188455Y-14593222D01*
D10*
X10466250Y-14981500D02*
X10556250Y-15071500D01*
X10556250Y-14981500D02*
X10466250Y-15071500D01*
D11*
X10855122Y-14917984D02*
X10874170Y-14917984D01*
X10874170Y-14917984D02*
X10893217Y-14927508D01*
X10893217Y-14927508D02*
X10902741Y-14937031D01*
X10902741Y-14937031D02*
X10912265Y-14956079D01*
X10912265Y-14956079D02*
X10921789Y-14994174D01*
X10921789Y-14994174D02*
X10921789Y-15041793D01*
X10921789Y-15041793D02*
X10912265Y-15079888D01*
X10912265Y-15079888D02*
X10902741Y-15098936D01*
X10902741Y-15098936D02*
X10893217Y-15108460D01*
X10893217Y-15108460D02*
X10874170Y-15117984D01*
X10874170Y-15117984D02*
X10855122Y-15117984D01*
X10855122Y-15117984D02*
X10836074Y-15108460D01*
X10836074Y-15108460D02*
X10826551Y-15098936D01*
X10826551Y-15098936D02*
X10817027Y-15079888D01*
X10817027Y-15079888D02*
X10807503Y-15041793D01*
X10807503Y-15041793D02*
X10807503Y-14994174D01*
X10807503Y-14994174D02*
X10817027Y-14956079D01*
X10817027Y-14956079D02*
X10826551Y-14937031D01*
X10826551Y-14937031D02*
X10836074Y-14927508D01*
X10836074Y-14927508D02*
X10855122Y-14917984D01*
X11007503Y-15098936D02*
X11017027Y-15108460D01*
X11017027Y-15108460D02*
X11007503Y-15117984D01*
X11007503Y-15117984D02*
X10997979Y-15108460D01*
X10997979Y-15108460D02*
X11007503Y-15098936D01*
X11007503Y-15098936D02*
X11007503Y-15117984D01*
X11112265Y-15117984D02*
X11150360Y-15117984D01*
X11150360Y-15117984D02*
X11169408Y-15108460D01*
X11169408Y-15108460D02*
X11178932Y-15098936D01*
X11178932Y-15098936D02*
X11197979Y-15070365D01*
X11197979Y-15070365D02*
X11207503Y-15032269D01*
X11207503Y-15032269D02*
X11207503Y-14956079D01*
X11207503Y-14956079D02*
X11197979Y-14937031D01*
X11197979Y-14937031D02*
X11188455Y-14927508D01*
X11188455Y-14927508D02*
X11169408Y-14917984D01*
X11169408Y-14917984D02*
X11131313Y-14917984D01*
X11131313Y-14917984D02*
X11112265Y-14927508D01*
X11112265Y-14927508D02*
X11102741Y-14937031D01*
X11102741Y-14937031D02*
X11093217Y-14956079D01*
X11093217Y-14956079D02*
X11093217Y-15003698D01*
X11093217Y-15003698D02*
X11102741Y-15022746D01*
X11102741Y-15022746D02*
X11112265Y-15032269D01*
X11112265Y-15032269D02*
X11131313Y-15041793D01*
X11131313Y-15041793D02*
X11169408Y-15041793D01*
X11169408Y-15041793D02*
X11188455Y-15032269D01*
X11188455Y-15032269D02*
X11197979Y-15022746D01*
X11197979Y-15022746D02*
X11207503Y-15003698D01*
X11331312Y-14917984D02*
X11350360Y-14917984D01*
X11350360Y-14917984D02*
X11369408Y-14927508D01*
X11369408Y-14927508D02*
X11378932Y-14937031D01*
X11378932Y-14937031D02*
X11388455Y-14956079D01*
X11388455Y-14956079D02*
X11397979Y-14994174D01*
X11397979Y-14994174D02*
X11397979Y-15041793D01*
X11397979Y-15041793D02*
X11388455Y-15079888D01*
X11388455Y-15079888D02*
X11378932Y-15098936D01*
X11378932Y-15098936D02*
X11369408Y-15108460D01*
X11369408Y-15108460D02*
X11350360Y-15117984D01*
X11350360Y-15117984D02*
X11331312Y-15117984D01*
X11331312Y-15117984D02*
X11312265Y-15108460D01*
X11312265Y-15108460D02*
X11302741Y-15098936D01*
X11302741Y-15098936D02*
X11293217Y-15079888D01*
X11293217Y-15079888D02*
X11283693Y-15041793D01*
X11283693Y-15041793D02*
X11283693Y-14994174D01*
X11283693Y-14994174D02*
X11293217Y-14956079D01*
X11293217Y-14956079D02*
X11302741Y-14937031D01*
X11302741Y-14937031D02*
X11312265Y-14927508D01*
X11312265Y-14927508D02*
X11331312Y-14917984D01*
X11521789Y-14917984D02*
X11540836Y-14917984D01*
X11540836Y-14917984D02*
X11559884Y-14927508D01*
X11559884Y-14927508D02*
X11569408Y-14937031D01*
X11569408Y-14937031D02*
X11578932Y-14956079D01*
X11578932Y-14956079D02*
X11588455Y-14994174D01*
X11588455Y-14994174D02*
X11588455Y-15041793D01*
X11588455Y-15041793D02*
X11578932Y-15079888D01*
X11578932Y-15079888D02*
X11569408Y-15098936D01*
X11569408Y-15098936D02*
X11559884Y-15108460D01*
X11559884Y-15108460D02*
X11540836Y-15117984D01*
X11540836Y-15117984D02*
X11521789Y-15117984D01*
X11521789Y-15117984D02*
X11502741Y-15108460D01*
X11502741Y-15108460D02*
X11493217Y-15098936D01*
X11493217Y-15098936D02*
X11483693Y-15079888D01*
X11483693Y-15079888D02*
X11474170Y-15041793D01*
X11474170Y-15041793D02*
X11474170Y-14994174D01*
X11474170Y-14994174D02*
X11483693Y-14956079D01*
X11483693Y-14956079D02*
X11493217Y-14937031D01*
X11493217Y-14937031D02*
X11502741Y-14927508D01*
X11502741Y-14927508D02*
X11521789Y-14917984D01*
X11674170Y-15117984D02*
X11674170Y-14984650D01*
X11674170Y-15003698D02*
X11683693Y-14994174D01*
X11683693Y-14994174D02*
X11702741Y-14984650D01*
X11702741Y-14984650D02*
X11731313Y-14984650D01*
X11731313Y-14984650D02*
X11750360Y-14994174D01*
X11750360Y-14994174D02*
X11759884Y-15013222D01*
X11759884Y-15013222D02*
X11759884Y-15117984D01*
X11759884Y-15013222D02*
X11769408Y-14994174D01*
X11769408Y-14994174D02*
X11788455Y-14984650D01*
X11788455Y-14984650D02*
X11817027Y-14984650D01*
X11817027Y-14984650D02*
X11836074Y-14994174D01*
X11836074Y-14994174D02*
X11845598Y-15013222D01*
X11845598Y-15013222D02*
X11845598Y-15117984D01*
X11940836Y-15117984D02*
X11940836Y-14984650D01*
X11940836Y-15003698D02*
X11950360Y-14994174D01*
X11950360Y-14994174D02*
X11969408Y-14984650D01*
X11969408Y-14984650D02*
X11997979Y-14984650D01*
X11997979Y-14984650D02*
X12017027Y-14994174D01*
X12017027Y-14994174D02*
X12026551Y-15013222D01*
X12026551Y-15013222D02*
X12026551Y-15117984D01*
X12026551Y-15013222D02*
X12036074Y-14994174D01*
X12036074Y-14994174D02*
X12055122Y-14984650D01*
X12055122Y-14984650D02*
X12083693Y-14984650D01*
X12083693Y-14984650D02*
X12102741Y-14994174D01*
X12102741Y-14994174D02*
X12112265Y-15013222D01*
X12112265Y-15013222D02*
X12112265Y-15117984D01*
X12502741Y-14908460D02*
X12331313Y-15165603D01*
X12759884Y-14917984D02*
X12778932Y-14917984D01*
X12778932Y-14917984D02*
X12797979Y-14927508D01*
X12797979Y-14927508D02*
X12807503Y-14937031D01*
X12807503Y-14937031D02*
X12817027Y-14956079D01*
X12817027Y-14956079D02*
X12826551Y-14994174D01*
X12826551Y-14994174D02*
X12826551Y-15041793D01*
X12826551Y-15041793D02*
X12817027Y-15079888D01*
X12817027Y-15079888D02*
X12807503Y-15098936D01*
X12807503Y-15098936D02*
X12797979Y-15108460D01*
X12797979Y-15108460D02*
X12778932Y-15117984D01*
X12778932Y-15117984D02*
X12759884Y-15117984D01*
X12759884Y-15117984D02*
X12740836Y-15108460D01*
X12740836Y-15108460D02*
X12731313Y-15098936D01*
X12731313Y-15098936D02*
X12721789Y-15079888D01*
X12721789Y-15079888D02*
X12712265Y-15041793D01*
X12712265Y-15041793D02*
X12712265Y-14994174D01*
X12712265Y-14994174D02*
X12721789Y-14956079D01*
X12721789Y-14956079D02*
X12731313Y-14937031D01*
X12731313Y-14937031D02*
X12740836Y-14927508D01*
X12740836Y-14927508D02*
X12759884Y-14917984D01*
X12912265Y-15098936D02*
X12921789Y-15108460D01*
X12921789Y-15108460D02*
X12912265Y-15117984D01*
X12912265Y-15117984D02*
X12902741Y-15108460D01*
X12902741Y-15108460D02*
X12912265Y-15098936D01*
X12912265Y-15098936D02*
X12912265Y-15117984D01*
X13045598Y-14917984D02*
X13064646Y-14917984D01*
X13064646Y-14917984D02*
X13083694Y-14927508D01*
X13083694Y-14927508D02*
X13093217Y-14937031D01*
X13093217Y-14937031D02*
X13102741Y-14956079D01*
X13102741Y-14956079D02*
X13112265Y-14994174D01*
X13112265Y-14994174D02*
X13112265Y-15041793D01*
X13112265Y-15041793D02*
X13102741Y-15079888D01*
X13102741Y-15079888D02*
X13093217Y-15098936D01*
X13093217Y-15098936D02*
X13083694Y-15108460D01*
X13083694Y-15108460D02*
X13064646Y-15117984D01*
X13064646Y-15117984D02*
X13045598Y-15117984D01*
X13045598Y-15117984D02*
X13026551Y-15108460D01*
X13026551Y-15108460D02*
X13017027Y-15098936D01*
X13017027Y-15098936D02*
X13007503Y-15079888D01*
X13007503Y-15079888D02*
X12997979Y-15041793D01*
X12997979Y-15041793D02*
X12997979Y-14994174D01*
X12997979Y-14994174D02*
X13007503Y-14956079D01*
X13007503Y-14956079D02*
X13017027Y-14937031D01*
X13017027Y-14937031D02*
X13026551Y-14927508D01*
X13026551Y-14927508D02*
X13045598Y-14917984D01*
X13178932Y-14917984D02*
X13302741Y-14917984D01*
X13302741Y-14917984D02*
X13236075Y-14994174D01*
X13236075Y-14994174D02*
X13264646Y-14994174D01*
X13264646Y-14994174D02*
X13283694Y-15003698D01*
X13283694Y-15003698D02*
X13293217Y-15013222D01*
X13293217Y-15013222D02*
X13302741Y-15032269D01*
X13302741Y-15032269D02*
X13302741Y-15079888D01*
X13302741Y-15079888D02*
X13293217Y-15098936D01*
X13293217Y-15098936D02*
X13283694Y-15108460D01*
X13283694Y-15108460D02*
X13264646Y-15117984D01*
X13264646Y-15117984D02*
X13207503Y-15117984D01*
X13207503Y-15117984D02*
X13188456Y-15108460D01*
X13188456Y-15108460D02*
X13178932Y-15098936D01*
X13483694Y-14917984D02*
X13388456Y-14917984D01*
X13388456Y-14917984D02*
X13378932Y-15013222D01*
X13378932Y-15013222D02*
X13388456Y-15003698D01*
X13388456Y-15003698D02*
X13407503Y-14994174D01*
X13407503Y-14994174D02*
X13455122Y-14994174D01*
X13455122Y-14994174D02*
X13474170Y-15003698D01*
X13474170Y-15003698D02*
X13483694Y-15013222D01*
X13483694Y-15013222D02*
X13493217Y-15032269D01*
X13493217Y-15032269D02*
X13493217Y-15079888D01*
X13493217Y-15079888D02*
X13483694Y-15098936D01*
X13483694Y-15098936D02*
X13474170Y-15108460D01*
X13474170Y-15108460D02*
X13455122Y-15117984D01*
X13455122Y-15117984D02*
X13407503Y-15117984D01*
X13407503Y-15117984D02*
X13388456Y-15108460D01*
X13388456Y-15108460D02*
X13378932Y-15098936D01*
X13664646Y-14984650D02*
X13664646Y-15117984D01*
X13617027Y-14908460D02*
X13569408Y-15051317D01*
X13569408Y-15051317D02*
X13693217Y-15051317D01*
X13759884Y-14917984D02*
X13759884Y-14956079D01*
X13836075Y-14917984D02*
X13836075Y-14956079D01*
X14131313Y-15194174D02*
X14121789Y-15184650D01*
X14121789Y-15184650D02*
X14102741Y-15156079D01*
X14102741Y-15156079D02*
X14093218Y-15137031D01*
X14093218Y-15137031D02*
X14083694Y-15108460D01*
X14083694Y-15108460D02*
X14074170Y-15060841D01*
X14074170Y-15060841D02*
X14074170Y-15022746D01*
X14074170Y-15022746D02*
X14083694Y-14975127D01*
X14083694Y-14975127D02*
X14093218Y-14946555D01*
X14093218Y-14946555D02*
X14102741Y-14927508D01*
X14102741Y-14927508D02*
X14121789Y-14898936D01*
X14121789Y-14898936D02*
X14131313Y-14889412D01*
X14197979Y-14937031D02*
X14207503Y-14927508D01*
X14207503Y-14927508D02*
X14226551Y-14917984D01*
X14226551Y-14917984D02*
X14274170Y-14917984D01*
X14274170Y-14917984D02*
X14293218Y-14927508D01*
X14293218Y-14927508D02*
X14302741Y-14937031D01*
X14302741Y-14937031D02*
X14312265Y-14956079D01*
X14312265Y-14956079D02*
X14312265Y-14975127D01*
X14312265Y-14975127D02*
X14302741Y-15003698D01*
X14302741Y-15003698D02*
X14188456Y-15117984D01*
X14188456Y-15117984D02*
X14312265Y-15117984D01*
X14550360Y-15117984D02*
X14550360Y-14917984D01*
X14636075Y-15117984D02*
X14636075Y-15013222D01*
X14636075Y-15013222D02*
X14626551Y-14994174D01*
X14626551Y-14994174D02*
X14607503Y-14984650D01*
X14607503Y-14984650D02*
X14578932Y-14984650D01*
X14578932Y-14984650D02*
X14559884Y-14994174D01*
X14559884Y-14994174D02*
X14550360Y-15003698D01*
X14759884Y-15117984D02*
X14740837Y-15108460D01*
X14740837Y-15108460D02*
X14731313Y-15098936D01*
X14731313Y-15098936D02*
X14721789Y-15079888D01*
X14721789Y-15079888D02*
X14721789Y-15022746D01*
X14721789Y-15022746D02*
X14731313Y-15003698D01*
X14731313Y-15003698D02*
X14740837Y-14994174D01*
X14740837Y-14994174D02*
X14759884Y-14984650D01*
X14759884Y-14984650D02*
X14788456Y-14984650D01*
X14788456Y-14984650D02*
X14807503Y-14994174D01*
X14807503Y-14994174D02*
X14817027Y-15003698D01*
X14817027Y-15003698D02*
X14826551Y-15022746D01*
X14826551Y-15022746D02*
X14826551Y-15079888D01*
X14826551Y-15079888D02*
X14817027Y-15098936D01*
X14817027Y-15098936D02*
X14807503Y-15108460D01*
X14807503Y-15108460D02*
X14788456Y-15117984D01*
X14788456Y-15117984D02*
X14759884Y-15117984D01*
X14940837Y-15117984D02*
X14921789Y-15108460D01*
X14921789Y-15108460D02*
X14912265Y-15089412D01*
X14912265Y-15089412D02*
X14912265Y-14917984D01*
X15093218Y-15108460D02*
X15074170Y-15117984D01*
X15074170Y-15117984D02*
X15036075Y-15117984D01*
X15036075Y-15117984D02*
X15017027Y-15108460D01*
X15017027Y-15108460D02*
X15007503Y-15089412D01*
X15007503Y-15089412D02*
X15007503Y-15013222D01*
X15007503Y-15013222D02*
X15017027Y-14994174D01*
X15017027Y-14994174D02*
X15036075Y-14984650D01*
X15036075Y-14984650D02*
X15074170Y-14984650D01*
X15074170Y-14984650D02*
X15093218Y-14994174D01*
X15093218Y-14994174D02*
X15102741Y-15013222D01*
X15102741Y-15013222D02*
X15102741Y-15032269D01*
X15102741Y-15032269D02*
X15007503Y-15051317D01*
X15178932Y-15108460D02*
X15197980Y-15117984D01*
X15197980Y-15117984D02*
X15236075Y-15117984D01*
X15236075Y-15117984D02*
X15255122Y-15108460D01*
X15255122Y-15108460D02*
X15264646Y-15089412D01*
X15264646Y-15089412D02*
X15264646Y-15079888D01*
X15264646Y-15079888D02*
X15255122Y-15060841D01*
X15255122Y-15060841D02*
X15236075Y-15051317D01*
X15236075Y-15051317D02*
X15207503Y-15051317D01*
X15207503Y-15051317D02*
X15188456Y-15041793D01*
X15188456Y-15041793D02*
X15178932Y-15022746D01*
X15178932Y-15022746D02*
X15178932Y-15013222D01*
X15178932Y-15013222D02*
X15188456Y-14994174D01*
X15188456Y-14994174D02*
X15207503Y-14984650D01*
X15207503Y-14984650D02*
X15236075Y-14984650D01*
X15236075Y-14984650D02*
X15255122Y-14994174D01*
X15331313Y-15194174D02*
X15340837Y-15184650D01*
X15340837Y-15184650D02*
X15359884Y-15156079D01*
X15359884Y-15156079D02*
X15369408Y-15137031D01*
X15369408Y-15137031D02*
X15378932Y-15108460D01*
X15378932Y-15108460D02*
X15388456Y-15060841D01*
X15388456Y-15060841D02*
X15388456Y-15022746D01*
X15388456Y-15022746D02*
X15378932Y-14975127D01*
X15378932Y-14975127D02*
X15369408Y-14946555D01*
X15369408Y-14946555D02*
X15359884Y-14927508D01*
X15359884Y-14927508D02*
X15340837Y-14898936D01*
X15340837Y-14898936D02*
X15331313Y-14889412D01*
X15693218Y-15194174D02*
X15683694Y-15184650D01*
X15683694Y-15184650D02*
X15664646Y-15156079D01*
X15664646Y-15156079D02*
X15655122Y-15137031D01*
X15655122Y-15137031D02*
X15645599Y-15108460D01*
X15645599Y-15108460D02*
X15636075Y-15060841D01*
X15636075Y-15060841D02*
X15636075Y-15022746D01*
X15636075Y-15022746D02*
X15645599Y-14975127D01*
X15645599Y-14975127D02*
X15655122Y-14946555D01*
X15655122Y-14946555D02*
X15664646Y-14927508D01*
X15664646Y-14927508D02*
X15683694Y-14898936D01*
X15683694Y-14898936D02*
X15693218Y-14889412D01*
X15769408Y-14984650D02*
X15769408Y-15117984D01*
X15769408Y-15003698D02*
X15778932Y-14994174D01*
X15778932Y-14994174D02*
X15797980Y-14984650D01*
X15797980Y-14984650D02*
X15826551Y-14984650D01*
X15826551Y-14984650D02*
X15845599Y-14994174D01*
X15845599Y-14994174D02*
X15855122Y-15013222D01*
X15855122Y-15013222D02*
X15855122Y-15117984D01*
X15978932Y-15117984D02*
X15959884Y-15108460D01*
X15959884Y-15108460D02*
X15950361Y-15098936D01*
X15950361Y-15098936D02*
X15940837Y-15079888D01*
X15940837Y-15079888D02*
X15940837Y-15022746D01*
X15940837Y-15022746D02*
X15950361Y-15003698D01*
X15950361Y-15003698D02*
X15959884Y-14994174D01*
X15959884Y-14994174D02*
X15978932Y-14984650D01*
X15978932Y-14984650D02*
X16007503Y-14984650D01*
X16007503Y-14984650D02*
X16026551Y-14994174D01*
X16026551Y-14994174D02*
X16036075Y-15003698D01*
X16036075Y-15003698D02*
X16045599Y-15022746D01*
X16045599Y-15022746D02*
X16045599Y-15079888D01*
X16045599Y-15079888D02*
X16036075Y-15098936D01*
X16036075Y-15098936D02*
X16026551Y-15108460D01*
X16026551Y-15108460D02*
X16007503Y-15117984D01*
X16007503Y-15117984D02*
X15978932Y-15117984D01*
X16102742Y-14984650D02*
X16178932Y-14984650D01*
X16131313Y-14917984D02*
X16131313Y-15089412D01*
X16131313Y-15089412D02*
X16140837Y-15108460D01*
X16140837Y-15108460D02*
X16159884Y-15117984D01*
X16159884Y-15117984D02*
X16178932Y-15117984D01*
X16397980Y-14984650D02*
X16397980Y-15184650D01*
X16397980Y-14994174D02*
X16417027Y-14984650D01*
X16417027Y-14984650D02*
X16455123Y-14984650D01*
X16455123Y-14984650D02*
X16474170Y-14994174D01*
X16474170Y-14994174D02*
X16483694Y-15003698D01*
X16483694Y-15003698D02*
X16493218Y-15022746D01*
X16493218Y-15022746D02*
X16493218Y-15079888D01*
X16493218Y-15079888D02*
X16483694Y-15098936D01*
X16483694Y-15098936D02*
X16474170Y-15108460D01*
X16474170Y-15108460D02*
X16455123Y-15117984D01*
X16455123Y-15117984D02*
X16417027Y-15117984D01*
X16417027Y-15117984D02*
X16397980Y-15108460D01*
X16607503Y-15117984D02*
X16588456Y-15108460D01*
X16588456Y-15108460D02*
X16578932Y-15089412D01*
X16578932Y-15089412D02*
X16578932Y-14917984D01*
X16769408Y-15117984D02*
X16769408Y-15013222D01*
X16769408Y-15013222D02*
X16759884Y-14994174D01*
X16759884Y-14994174D02*
X16740837Y-14984650D01*
X16740837Y-14984650D02*
X16702742Y-14984650D01*
X16702742Y-14984650D02*
X16683694Y-14994174D01*
X16769408Y-15108460D02*
X16750361Y-15117984D01*
X16750361Y-15117984D02*
X16702742Y-15117984D01*
X16702742Y-15117984D02*
X16683694Y-15108460D01*
X16683694Y-15108460D02*
X16674170Y-15089412D01*
X16674170Y-15089412D02*
X16674170Y-15070365D01*
X16674170Y-15070365D02*
X16683694Y-15051317D01*
X16683694Y-15051317D02*
X16702742Y-15041793D01*
X16702742Y-15041793D02*
X16750361Y-15041793D01*
X16750361Y-15041793D02*
X16769408Y-15032269D01*
X16836075Y-14984650D02*
X16912265Y-14984650D01*
X16864646Y-14917984D02*
X16864646Y-15089412D01*
X16864646Y-15089412D02*
X16874170Y-15108460D01*
X16874170Y-15108460D02*
X16893218Y-15117984D01*
X16893218Y-15117984D02*
X16912265Y-15117984D01*
X17055123Y-15108460D02*
X17036075Y-15117984D01*
X17036075Y-15117984D02*
X16997980Y-15117984D01*
X16997980Y-15117984D02*
X16978932Y-15108460D01*
X16978932Y-15108460D02*
X16969408Y-15089412D01*
X16969408Y-15089412D02*
X16969408Y-15013222D01*
X16969408Y-15013222D02*
X16978932Y-14994174D01*
X16978932Y-14994174D02*
X16997980Y-14984650D01*
X16997980Y-14984650D02*
X17036075Y-14984650D01*
X17036075Y-14984650D02*
X17055123Y-14994174D01*
X17055123Y-14994174D02*
X17064646Y-15013222D01*
X17064646Y-15013222D02*
X17064646Y-15032269D01*
X17064646Y-15032269D02*
X16969408Y-15051317D01*
X17236075Y-15117984D02*
X17236075Y-14917984D01*
X17236075Y-15108460D02*
X17217027Y-15117984D01*
X17217027Y-15117984D02*
X17178932Y-15117984D01*
X17178932Y-15117984D02*
X17159885Y-15108460D01*
X17159885Y-15108460D02*
X17150361Y-15098936D01*
X17150361Y-15098936D02*
X17140837Y-15079888D01*
X17140837Y-15079888D02*
X17140837Y-15022746D01*
X17140837Y-15022746D02*
X17150361Y-15003698D01*
X17150361Y-15003698D02*
X17159885Y-14994174D01*
X17159885Y-14994174D02*
X17178932Y-14984650D01*
X17178932Y-14984650D02*
X17217027Y-14984650D01*
X17217027Y-14984650D02*
X17236075Y-14994174D01*
X17312266Y-15194174D02*
X17321789Y-15184650D01*
X17321789Y-15184650D02*
X17340837Y-15156079D01*
X17340837Y-15156079D02*
X17350361Y-15137031D01*
X17350361Y-15137031D02*
X17359885Y-15108460D01*
X17359885Y-15108460D02*
X17369408Y-15060841D01*
X17369408Y-15060841D02*
X17369408Y-15022746D01*
X17369408Y-15022746D02*
X17359885Y-14975127D01*
X17359885Y-14975127D02*
X17350361Y-14946555D01*
X17350361Y-14946555D02*
X17340837Y-14927508D01*
X17340837Y-14927508D02*
X17321789Y-14898936D01*
X17321789Y-14898936D02*
X17312266Y-14889412D01*
M02*
